<?xml version="1.0" encoding="utf-8"?>
<!-- Generator: Adobe Illustrator 24.3.0, SVG Export Plug-In . SVG Version: 6.00 Build 0)  -->
<svg version="1.1" id="Layer_1" xmlns="http://www.w3.org/2000/svg" xmlns:xlink="http://www.w3.org/1999/xlink" x="0px" y="0px"
	 viewBox="0 0 200 77" style="enable-background:new 0 0 200 77;" xml:space="preserve">
<style type="text/css">
	.st0{fill:#070A29;}
	.st1{fill:url(#SVGID_1_);}
</style>
<g>
	<path class="st0" d="M118.59,72.86c-0.54,0-0.96-0.16-1.26-0.49c-0.3-0.32-0.45-0.78-0.45-1.37v-5.89h3.31V62.8h-3.31v-2.83h-2.9
		v2.83h-2.04v2.32h2.04v5.96c0,1.38,0.37,2.41,1.11,3.12c0.74,0.7,1.79,1.05,3.15,1.05c0.53,0,1.03-0.07,1.53-0.21
		c0.49-0.14,0.91-0.35,1.25-0.63l-0.81-2.06C119.78,72.69,119.24,72.86,118.59,72.86z"/>
	<path class="st0" d="M126.17,64.52v-1.81h-2.76v12.37h2.9v-6c0-1.27,0.32-2.22,0.97-2.86c0.65-0.64,1.52-0.96,2.62-0.96
		c0.11,0,0.22,0,0.32,0.01c0.11,0.01,0.22,0.03,0.35,0.06v-2.76c-1.19,0-2.18,0.22-2.98,0.65C127,63.54,126.52,63.98,126.17,64.52z"
		/>
	<path class="st0" d="M141.03,63.86c-0.98-0.86-2.37-1.29-4.16-1.29c-0.99,0-1.94,0.13-2.86,0.38c-0.92,0.26-1.71,0.63-2.38,1.14
		l1.14,2.11c0.46-0.38,1.03-0.69,1.7-0.9s1.36-0.32,2.05-0.32c1.04,0,1.81,0.24,2.32,0.7c0.51,0.47,0.77,1.13,0.77,1.98v0.19h-3.2
		c-1.25,0-2.25,0.16-3.01,0.48c-0.76,0.33-1.3,0.77-1.64,1.32c-0.33,0.56-0.5,1.18-0.5,1.88c0,0.71,0.19,1.35,0.57,1.91
		c0.38,0.56,0.92,1,1.61,1.32c0.69,0.32,1.5,0.47,2.43,0.47c1.1,0,2.01-0.2,2.73-0.6c0.5-0.28,0.88-0.64,1.17-1.08v1.52h2.74v-7.25
		C142.5,66.04,142.01,64.71,141.03,63.86z M139.61,71.21c-0.25,0.63-0.65,1.12-1.22,1.44c-0.56,0.33-1.2,0.49-1.91,0.49
		c-0.74,0-1.32-0.15-1.74-0.46c-0.42-0.31-0.62-0.72-0.62-1.25c0-0.46,0.17-0.85,0.51-1.17c0.34-0.32,1-0.48,1.99-0.48h2.99V71.21z"
		/>
	<path class="st0" d="M155.45,57.89v6.36c-0.35-0.4-0.75-0.74-1.21-0.99c-0.82-0.45-1.74-0.68-2.78-0.68
		c-1.19,0-2.26,0.26-3.21,0.78c-0.95,0.53-1.7,1.26-2.24,2.2c-0.54,0.95-0.81,2.06-0.81,3.34c0,1.28,0.27,2.4,0.81,3.34
		c0.54,0.94,1.29,1.68,2.24,2.21c0.95,0.53,2.02,0.8,3.21,0.8c1.06,0,2.01-0.23,2.83-0.69c0.49-0.28,0.91-0.65,1.28-1.1v1.63h2.76
		v-17.2H155.45z M155,70.96c-0.33,0.59-0.77,1.04-1.32,1.35c-0.55,0.31-1.17,0.46-1.87,0.46c-0.69,0-1.31-0.16-1.86-0.46
		c-0.55-0.31-0.99-0.76-1.32-1.35c-0.33-0.59-0.5-1.27-0.5-2.06c0-0.8,0.17-1.49,0.5-2.07c0.33-0.58,0.78-1.02,1.32-1.33
		c0.55-0.31,1.17-0.46,1.86-0.46c0.69,0,1.32,0.16,1.87,0.46c0.55,0.31,0.99,0.76,1.32,1.33c0.34,0.58,0.5,1.27,0.5,2.07
		C155.5,69.69,155.34,70.37,155,70.96z"/>
	<path class="st0" d="M172.97,65.58c-0.54-0.96-1.28-1.7-2.22-2.23c-0.95-0.52-2.02-0.78-3.22-0.78c-1.23,0-2.33,0.27-3.3,0.81
		c-0.97,0.54-1.73,1.29-2.27,2.24c-0.55,0.95-0.82,2.05-0.82,3.28c0,1.22,0.28,2.31,0.85,3.27c0.56,0.96,1.36,1.71,2.39,2.26
		c1.03,0.55,2.23,0.82,3.6,0.82c1.08,0,2.05-0.17,2.89-0.52c0.84-0.35,1.54-0.85,2.09-1.49l-1.55-1.79
		c-0.43,0.46-0.93,0.8-1.48,1.02c-0.55,0.22-1.18,0.33-1.88,0.33c-0.8,0-1.51-0.16-2.13-0.46c-0.62-0.31-1.1-0.75-1.44-1.32
		c-0.21-0.36-0.35-0.76-0.43-1.18h9.7c0.01-0.14,0.03-0.28,0.04-0.44c0-0.16,0.01-0.29,0.01-0.42
		C173.78,67.67,173.51,66.54,172.97,65.58z M164.01,67.9c0.07-0.46,0.19-0.89,0.4-1.26c0.3-0.55,0.72-0.98,1.25-1.29
		c0.53-0.31,1.15-0.46,1.86-0.46c0.69,0,1.31,0.16,1.84,0.46c0.53,0.31,0.95,0.73,1.26,1.28c0.22,0.38,0.35,0.81,0.41,1.27H164.01z"
		/>
	<path class="st0" d="M179.32,64.52v-1.81h-2.76v12.37h2.9v-6c0-1.27,0.32-2.22,0.97-2.86c0.65-0.64,1.52-0.96,2.62-0.96
		c0.11,0,0.22,0,0.32,0.01c0.11,0.01,0.22,0.03,0.35,0.06v-2.76c-1.19,0-2.18,0.22-2.98,0.65
		C180.15,63.54,179.68,63.98,179.32,64.52z"/>
	<path class="st0" d="M195.31,69.73c-0.28-0.43-0.65-0.77-1.1-1.01c-0.46-0.24-0.95-0.43-1.5-0.57c-0.54-0.14-1.09-0.24-1.63-0.31
		c-0.55-0.07-1.05-0.16-1.49-0.27c-0.45-0.11-0.81-0.26-1.09-0.44c-0.28-0.19-0.42-0.46-0.42-0.83c0-0.4,0.21-0.73,0.64-1
		c0.42-0.26,1.08-0.39,1.96-0.39c0.59,0,1.18,0.07,1.77,0.2c0.59,0.13,1.19,0.37,1.77,0.73l1.11-2.2c-0.56-0.34-1.26-0.6-2.11-0.79
		c-0.85-0.19-1.69-0.28-2.53-0.28c-1.11,0-2.07,0.16-2.88,0.47c-0.81,0.32-1.44,0.76-1.89,1.34c-0.45,0.58-0.67,1.26-0.67,2.05
		c0,0.71,0.14,1.28,0.42,1.71c0.28,0.43,0.64,0.78,1.09,1.03c0.45,0.25,0.95,0.45,1.49,0.58c0.55,0.13,1.1,0.24,1.65,0.31
		c0.55,0.08,1.05,0.16,1.49,0.26c0.45,0.09,0.81,0.23,1.09,0.41c0.28,0.18,0.42,0.44,0.42,0.78c0,0.42-0.2,0.75-0.61,1
		c-0.41,0.25-1.07,0.37-1.98,0.37c-0.77,0-1.54-0.12-2.32-0.35c-0.77-0.23-1.44-0.53-1.99-0.88l-1.11,2.2
		c0.56,0.39,1.31,0.71,2.26,0.98c0.95,0.27,1.94,0.41,2.98,0.41c1.16,0,2.16-0.16,2.99-0.47c0.83-0.32,1.48-0.76,1.93-1.33
		c0.46-0.57,0.68-1.24,0.68-2.02C195.73,70.73,195.59,70.16,195.31,69.73z"/>
	<linearGradient id="SVGID_1_" gradientUnits="userSpaceOnUse" x1="4.2726" y1="38.5" x2="187.8926" y2="38.5">
		<stop  offset="0" style="stop-color:#0492FF"/>
		<stop  offset="1" style="stop-color:#0B6BDD"/>
	</linearGradient>
	<path class="st1" d="M17.54,45.31L4.27,75.08h7.06l2.66-6.38h13.8l2.64,6.38h7.23L24.35,45.31H17.54z M16.16,63.47l4.74-11.4
		l4.72,11.4H16.16z M56.3,52.2h6.64v22.89h-6.3v-2.69c-0.62,0.74-1.36,1.35-2.23,1.82c-1.49,0.81-3.11,1.21-4.87,1.21
		c-1.9,0-3.59-0.37-5.08-1.11c-1.49-0.74-2.64-1.86-3.47-3.38c-0.82-1.52-1.23-3.45-1.23-5.81V52.2h6.64v11.95
		c0,1.9,0.4,3.3,1.21,4.19c0.81,0.89,1.95,1.34,3.42,1.34c1.02,0,1.93-0.22,2.72-0.66c0.79-0.44,1.42-1.12,1.87-2.04
		c0.45-0.92,0.68-2.08,0.68-3.47V52.2z M82.08,69.3l1.79,4.68c-0.68,0.48-1.5,0.84-2.45,1.08c-0.95,0.24-1.94,0.36-2.96,0.36
		c-2.69,0-4.79-0.69-6.3-2.06c-1.5-1.38-2.25-3.42-2.25-6.15v-9.4h-3.53v-5.1h3.53v-5.57h6.64v5.57h5.7v5.1h-5.7v9.32
		c0,0.96,0.25,1.71,0.77,2.23c0.51,0.53,1.21,0.79,2.08,0.79C80.45,70.15,81.34,69.87,82.08,69.3z M108.7,57.51
		c1.08,1.76,1.62,3.8,1.62,6.13c0,2.27-0.54,4.29-1.62,6.06c-1.08,1.77-2.57,3.17-4.47,4.19c-1.9,1.02-4.06,1.53-6.47,1.53
		c-2.44,0-4.6-0.51-6.48-1.53c-1.89-1.02-3.37-2.42-4.47-4.19s-1.64-3.8-1.64-6.06c0-2.3,0.55-4.33,1.64-6.1s2.58-3.16,4.47-4.17
		s4.05-1.51,6.48-1.51c2.41,0,4.57,0.51,6.47,1.51c0.24,0.13,0.48,0.26,0.71,0.41l-3.96,4.44c-0.08-0.06-0.16-0.1-0.24-0.15
		c-0.88-0.51-1.87-0.77-2.98-0.77c-1.11,0-2.1,0.26-2.98,0.77c-0.88,0.51-1.58,1.23-2.1,2.17c-0.52,0.94-0.79,2.07-0.79,3.4
		c0,1.3,0.26,2.43,0.79,3.38c0.52,0.95,1.22,1.68,2.1,2.19c0.88,0.51,1.87,0.77,2.98,0.77c1.11,0,2.1-0.26,2.98-0.77
		c0.88-0.51,1.57-1.24,2.08-2.19c0.51-0.95,0.77-2.08,0.77-3.38c0-1.1-0.17-2.06-0.52-2.88l4.91-4.28
		C108.24,56.81,108.48,57.15,108.7,57.51z M187.89,14.78l-1.52,11.88l-2.76-2.85l-26.7,30.78l-12.35-15.68l-12.92,16.15
		l-10.73-11.12l-13.54,11.81l-4.74,4.13l-8.42,7.34l7.52-8.43l4-4.49l15.51-17.38l10.54,10.83L144.9,31.5l12.4,14.82l22.95-24.94
		l-3.19-2.47L187.89,14.78z M132.5,43.95l-10.07-9.22V22h10.07V43.95z M136.4,37.3l-0.29-26.6h10.55v18.53l-2.19-1.9L136.4,37.3z
		 M149.98,33.88l-0.1-32.3h10.17V39.2l-3.14,3.42L149.98,33.88z"/>
</g>
</svg>
