<?xml version="1.0" encoding="utf-8"?>
<!-- Generator: Adobe Illustrator 24.3.0, SVG Export Plug-In . SVG Version: 6.00 Build 0)  -->
<svg version="1.1" id="Layer_1" xmlns="http://www.w3.org/2000/svg" xmlns:xlink="http://www.w3.org/1999/xlink" x="0px" y="0px"
	 viewBox="0 0 200 13" style="enable-background:new 0 0 200 13;" xml:space="preserve">
<style type="text/css">
	.st0{fill:#1FBF75;}
	.st1{fill:#F15131;}
</style>
<g>
	<path d="M13.03,0.44l8.1,12.18h-3.69l-4.39-6.46L8.6,12.61l-3.68,0.01L13.03,0.44z"/>
	<path d="M28.13,7.81h0.02c0.06,1.35,0.9,2.09,2.52,2.21h3.68V0.5h3.63v12.12h-9.13c-2.87,0-4.31-1.18-4.33-3.55l0.01-8.58
		l3.59-0.01V7.81z"/>
	<path d="M42.26,0.56l12.12-0.02l0.02,2.62h-4.6l-0.01,9.44L46.8,12.6V3.12h-4.57L42.26,0.56z"/>
	<path d="M70.7,10.97c-1.49,1.24-3.27,1.86-5.36,1.86c-2.09,0-3.88-0.62-5.37-1.86c-1.49-1.24-2.24-2.72-2.24-4.45
		c0-1.75,0.75-3.24,2.24-4.48c1.49-1.24,3.28-1.86,5.37-1.86c2.09,0,3.87,0.62,5.36,1.86c1.49,1.24,2.23,2.73,2.23,4.48
		C72.92,8.24,72.18,9.73,70.7,10.97z M68.28,4.07c-0.83-0.68-1.84-1.02-3.01-1.02c-1.17,0.01-2.16,0.35-2.99,1.04
		c-0.83,0.69-1.24,1.52-1.24,2.48c0,0.97,0.41,1.79,1.24,2.47c0.83,0.68,1.82,1.02,2.99,1.02c1.17-0.01,2.17-0.35,3.01-1.04
		c0.83-0.69,1.25-1.51,1.25-2.47C69.53,5.58,69.12,4.75,68.28,4.07z"/>
	<path d="M76.29,0.56l12.12-0.02l0.02,2.62h-4.6l-0.01,9.44l-2.99-0.01V3.12h-4.57L76.29,0.56z"/>
	<path d="M95.62,12.56l-3.37-0.02l0.03-12.14l7.87-0.02c1.15,0.05,2.05,0.25,2.7,0.6c0.64,0.35,1.15,0.87,1.52,1.54
		c0.37,0.67,0.47,1.45,0.3,2.32c-0.17,0.87-0.91,1.57-2.23,2.1l3.69,5.6l-3.58-0.01L98.2,6.02l2.06-0.02
		c0.71-0.22,1.07-0.75,1.08-1.61s-0.56-1.3-1.72-1.35l-4.01,0.02V12.56z"/>
	<path d="M117.62,0.44l8.1,12.18h-3.69l-4.39-6.46l-4.45,6.45l-3.68,0.01L117.62,0.44z"/>
	<path d="M159.37,10.06l0.02,2.53l-12.64,0.01V0.56h12.65v2.49h-9.27v2.18h7.76v2.59h-7.76l-0.01,2.23H159.37z"/>
	<path d="M167.66,12.56l-3.37-0.02l0.03-12.14l7.87-0.02c1.15,0.05,2.05,0.25,2.7,0.6c0.64,0.35,1.15,0.87,1.52,1.54
		c0.37,0.67,0.47,1.45,0.3,2.32c-0.17,0.87-0.91,1.57-2.23,2.1l3.69,5.6l-3.58-0.01l-4.33-6.53l2.06-0.02
		c0.71-0.22,1.07-0.75,1.08-1.61c0.02-0.86-0.56-1.3-1.72-1.35l-4.01,0.02V12.56z"/>
	<path d="M187.54,6.63h-2.57c-2.21-0.27-3.33-1.1-3.34-2.48c0.11-2.47,2.17-3.7,6.19-3.7h7.16v2.66h-7.27
		c-1.73-0.01-2.6,0.59-2.61,1.8c0,1.07,0.88,1.58,2.65,1.53h1.43l-0.01,0.01h2.57c2.21,0.27,3.33,1.1,3.34,2.48
		c-0.11,2.47-2.17,3.7-6.19,3.7h-7.02l0.01-2.61l3.23-0.02v0.02h3.92c1.73,0.01,2.59-0.6,2.59-1.84c0-1.07-0.88-1.58-2.65-1.53
		L187.54,6.63L187.54,6.63z"/>
	<polygon id="Path-Copy-6_3_" class="st0" points="9.38,12.7 12.94,7.44 16.69,12.7 	"/>
	<path d="M133.83,5.84l-3.75-5.25h5.85c0.46,0.03,0.91,0.1,1.33,0.19L133.83,5.84z"/>
	<path d="M142.71,6.42v0.29c0,1.62-0.69,3-2.08,4.15c-1.43,1.18-3.14,1.77-5.14,1.77v-0.05h-6.44V0.56h0.07l0.33,0.47l3.75,5.25
		l0.64,0.9l0.62-0.92l3.56-5.25l0.03-0.04c0.98,0.3,1.84,0.75,2.58,1.36C142.02,3.48,142.71,4.85,142.71,6.42z"/>
	<g id="Path-Copy-6_2_">
		<path class="st1" d="M137.26,0.77l-3.43,5.07l-3.75-5.25h5.85C136.4,0.62,136.84,0.68,137.26,0.77z"/>
	</g>
</g>
</svg>
