<?xml version="1.0" encoding="utf-8"?>
<!-- Generator: Adobe Illustrator 24.3.0, SVG Export Plug-In . SVG Version: 6.00 Build 0)  -->
<svg version="1.1" id="Layer_1" xmlns="http://www.w3.org/2000/svg" xmlns:xlink="http://www.w3.org/1999/xlink" x="0px" y="0px"
	 viewBox="0 0 150 150" style="enable-background:new 0 0 150 150;" xml:space="preserve">
<style type="text/css">
	.st0{fill:#19D48C;}
	.st1{fill:#1A1036;}
	.st2{fill:url(#SVGID_1_);}
</style>
<g>
	<g>
		<g>
			<path class="st0" d="M27.23,94.07L0.97,134.73h10.05l5.31-8.71h18.91l1.91,8.71h9.41l-9.99-40.66H27.23z M20.69,118.88
				l9.55-15.67l3.44,15.67H20.69z"/>
			<path class="st0" d="M75.09,119.34c-0.5,2.71-1.52,4.72-3.05,6.04c-1.53,1.32-3.42,1.97-5.66,1.97c-2.13,0-3.61-0.62-4.44-1.86
				c-0.83-1.24-1.02-3-0.55-5.29l3.31-16.73h-9.06l-3.43,17.31c-0.62,3.14-0.54,5.77,0.23,7.9c0.77,2.13,2.09,3.75,3.95,4.85
				c1.86,1.1,4.07,1.66,6.62,1.66c2.48,0,4.82-0.53,7.03-1.6c1.15-0.55,2.2-1.28,3.15-2.17l-0.65,3.3h8.6l6.21-31.25h-9.06
				L75.09,119.34z"/>
			<path class="st0" d="M107.26,96.57H98.2l-1.51,7.61h-4.82l-1.39,6.97h4.83l-2.5,12.6c-0.46,2.36-0.36,4.41,0.32,6.13
				c0.68,1.72,1.81,3.04,3.4,3.95c1.59,0.91,3.5,1.36,5.75,1.36c1.36,0,2.71-0.14,4.07-0.41c1.36-0.27,2.59-0.76,3.72-1.45
				l-1.34-6.45c-0.54,0.35-1.13,0.62-1.77,0.81c-0.64,0.19-1.27,0.29-1.89,0.29c-1.36,0-2.28-0.39-2.79-1.16
				c-0.5-0.77-0.64-1.82-0.41-3.14l2.5-12.55h7.78l1.39-6.97h-7.79L107.26,96.57z"/>
			<path class="st0" d="M147.08,109.61c-1.3-2.07-3.12-3.69-5.46-4.85c-2.34-1.16-5.12-1.74-8.33-1.74c-3.64,0-6.88,0.79-9.73,2.38
				c-2.85,1.59-5.08,3.75-6.71,6.48c-1.63,2.73-2.44,5.84-2.44,9.32c0,2.83,0.65,5.29,1.95,7.38c1.3,2.09,3.13,3.72,5.49,4.88
				c2.36,1.16,5.13,1.74,8.31,1.74c3.68,0,6.93-0.79,9.76-2.38c2.83-1.59,5.05-3.76,6.68-6.51c1.63-2.75,2.44-5.85,2.44-9.29
				C149.03,114.15,148.38,111.68,147.08,109.61z M138.69,122.83c-0.78,1.55-1.85,2.76-3.22,3.63c-1.37,0.87-2.95,1.31-4.73,1.31
				c-2.28,0-4.05-0.63-5.29-1.89c-1.24-1.26-1.86-2.95-1.86-5.08c0-2.05,0.4-3.85,1.19-5.4c0.79-1.55,1.88-2.76,3.25-3.63
				c1.37-0.87,2.95-1.31,4.73-1.31c2.25,0,3.99,0.64,5.23,1.92c1.24,1.28,1.86,2.96,1.86,5.05
				C139.85,119.48,139.46,121.28,138.69,122.83z"/>
		</g>
		<g>
			<path class="st1" d="M8.93,140.35v1.42H6.59v7.34H4.84v-7.34H2.5v-1.42H8.93z"/>
			<path class="st1" d="M29.8,149.12l-1.93-3.41h-0.83v3.41h-1.76v-8.76h3.29c0.68,0,1.26,0.12,1.73,0.36
				c0.48,0.24,0.84,0.56,1.07,0.97c0.24,0.41,0.36,0.86,0.36,1.36c0,0.58-0.17,1.1-0.5,1.56c-0.33,0.46-0.83,0.78-1.49,0.96
				l2.1,3.55H29.8z M27.03,144.38h1.47c0.48,0,0.83-0.11,1.07-0.35c0.23-0.23,0.35-0.55,0.35-0.96c0-0.4-0.12-0.71-0.35-0.94
				c-0.23-0.22-0.59-0.33-1.07-0.33h-1.47V144.38z"/>
			<path class="st1" d="M53.76,147.45h-3.49l-0.58,1.67h-1.85l3.15-8.78h2.05l3.15,8.78h-1.86L53.76,147.45z M53.29,146.04
				l-1.27-3.67l-1.27,3.67H53.29z"/>
			<path class="st1" d="M77.94,140.89c0.7,0.36,1.24,0.87,1.62,1.54c0.38,0.67,0.57,1.44,0.57,2.32c0,0.88-0.19,1.65-0.57,2.3
				c-0.38,0.66-0.92,1.17-1.62,1.53c-0.7,0.36-1.51,0.54-2.43,0.54h-3.06v-8.76h3.06C76.43,140.35,77.24,140.53,77.94,140.89z
				 M77.58,146.87c0.5-0.5,0.75-1.21,0.75-2.12c0-0.91-0.25-1.63-0.75-2.14c-0.5-0.51-1.21-0.77-2.13-0.77H74.2v5.79h1.24
				C76.37,147.62,77.08,147.37,77.58,146.87z"/>
			<path class="st1" d="M98.27,141.77v2.2h2.95v1.39h-2.95v2.32h3.33v1.43h-5.08v-8.78h5.08v1.43H98.27z"/>
			<path class="st1" d="M122.78,149.12l-1.93-3.41h-0.83v3.41h-1.76v-8.76h3.29c0.68,0,1.26,0.12,1.73,0.36
				c0.48,0.24,0.84,0.56,1.07,0.97c0.24,0.41,0.36,0.86,0.36,1.36c0,0.58-0.17,1.1-0.5,1.56c-0.33,0.46-0.83,0.78-1.49,0.96
				l2.1,3.55H122.78z M120.02,144.38h1.47c0.48,0,0.83-0.11,1.07-0.35c0.23-0.23,0.35-0.55,0.35-0.96c0-0.4-0.12-0.71-0.35-0.94
				c-0.23-0.22-0.59-0.33-1.07-0.33h-1.47V144.38z"/>
			<path class="st1" d="M142.75,148.89c-0.49-0.21-0.88-0.51-1.16-0.9c-0.28-0.39-0.43-0.86-0.44-1.39h1.88
				c0.02,0.36,0.15,0.64,0.38,0.85c0.23,0.21,0.55,0.31,0.95,0.31c0.41,0,0.73-0.1,0.97-0.3c0.23-0.2,0.35-0.45,0.35-0.77
				c0-0.26-0.08-0.47-0.24-0.64c-0.16-0.17-0.36-0.3-0.6-0.4c-0.24-0.1-0.57-0.2-0.99-0.32c-0.57-0.17-1.03-0.33-1.39-0.5
				s-0.66-0.41-0.92-0.74c-0.26-0.33-0.38-0.77-0.38-1.32c0-0.52,0.13-0.97,0.39-1.36c0.26-0.38,0.62-0.68,1.09-0.89
				c0.47-0.2,1-0.31,1.61-0.31c0.9,0,1.64,0.22,2.2,0.66c0.57,0.44,0.88,1.05,0.94,1.84h-1.93c-0.02-0.3-0.14-0.55-0.38-0.75
				c-0.24-0.2-0.55-0.29-0.95-0.29c-0.34,0-0.62,0.09-0.82,0.26c-0.21,0.18-0.31,0.43-0.31,0.77c0,0.23,0.08,0.43,0.23,0.58
				c0.15,0.15,0.35,0.28,0.58,0.38c0.23,0.1,0.55,0.21,0.97,0.33c0.57,0.17,1.03,0.34,1.39,0.5c0.36,0.17,0.67,0.42,0.93,0.75
				c0.26,0.33,0.39,0.77,0.39,1.32c0,0.47-0.12,0.9-0.36,1.31c-0.24,0.4-0.6,0.72-1.07,0.96c-0.47,0.24-1.03,0.36-1.67,0.36
				C143.79,149.21,143.24,149.1,142.75,148.89z"/>
		</g>
	</g>
	<g>
		<polygon class="st0" points="32.88,61.94 55.05,39.21 60.35,44.43 70.56,34.87 75.94,40.01 91.6,25.55 89.91,24.03 96.26,22.34 
			94.97,28.2 93.21,26.84 76.18,43.54 70.76,38.4 60.57,48.07 55,42.71 		"/>
		<g>
			<g>
				<polygon class="st1" points="109.59,50.93 103.17,44.79 97.91,44.87 91.2,38.64 95.46,34.35 97.18,35.95 98.31,30.33 
					92.44,31.86 93.97,33.34 75.66,50.57 70.96,45.95 50.56,64.83 70.88,48.88 75.74,53.5 89.59,40.17 98.23,48.16 96.46,59.01 
					93.61,59.33 86.66,49.77 92.8,61.86 99.03,60.85 100.27,49.13 104.01,48.84 107.91,52.5 116.02,49.45 				"/>
				<polygon class="st1" points="94.85,51.01 96.14,54.07 96.58,49.37 				"/>
			</g>
		</g>
		<g>
			<linearGradient id="SVGID_1_" gradientUnits="userSpaceOnUse" x1="30.5373" y1="45.2569" x2="119.4627" y2="45.2569">
				<stop  offset="0" style="stop-color:#19D48C"/>
				<stop  offset="1" style="stop-color:#1A1036"/>
			</linearGradient>
			<path class="st2" d="M75,89.72c-24.52,0-44.46-19.95-44.46-44.46C30.54,20.74,50.48,0.79,75,0.79s44.46,19.95,44.46,44.46
				C119.46,69.77,99.52,89.72,75,89.72z M75,3.29c-23.14,0-41.96,18.82-41.96,41.96S51.86,87.22,75,87.22s41.96-18.82,41.96-41.96
				S98.14,3.29,75,3.29z"/>
		</g>
	</g>
</g>
</svg>
