<?xml version="1.0" encoding="utf-8"?>
<!-- Generator: Adobe Illustrator 27.3.1, SVG Export Plug-In . SVG Version: 6.00 Build 0)  -->
<svg version="1.1" id="Layer_1" xmlns="http://www.w3.org/2000/svg" xmlns:xlink="http://www.w3.org/1999/xlink" x="0px" y="0px"
	 viewBox="0 0 100 42" style="enable-background:new 0 0 100 42;" xml:space="preserve">
<style type="text/css">
	.st0{fill:#01A0E7;}
	.st1{fill:#FFFFFF;}
	.st2{fill:#00A1E2;}
</style>
<g>
	<path class="st0" d="M47.83,8.64h3.5c2.17,0,3.65,1.5,3.65,3.94v2.81c0,2.44-1.48,3.94-3.65,3.94h-3.5V8.64z M52.47,15.3v-2.63
		c0-1.07-0.47-1.56-1.24-1.56h-0.9v5.74h0.9C52,16.85,52.47,16.37,52.47,15.3z"/>
	<path class="st0" d="M57.34,8.8c0.98,0,1.6,0.61,1.6,1.53s-0.63,1.53-1.6,1.53c-0.98,0-1.6-0.61-1.6-1.53S56.36,8.8,57.34,8.8z
		 M56.12,12.31h2.44v7.02h-2.44V12.31z"/>
	<path class="st0" d="M63.11,12.18v-1.1l3.21-0.61v1.83h-2.09c1.51,0.37,2.41,1.54,2.41,3.11c0,1.27-0.55,2.23-1.95,3.02l-2.09,1.19
		h3.53v2.44h-4.9c-1.04,0-1.51-0.69-1.51-1.43c0-0.69,0.41-1.31,1.24-1.86l0.63-0.41c-1.21-0.49-1.86-1.57-1.86-2.95
		C59.71,13.53,61,12.21,63.11,12.18z M63.17,16.96c0.61,0,0.99-0.46,0.99-1.19s-0.38-1.21-0.99-1.21s-0.99,0.47-0.99,1.21
		S62.56,16.96,63.17,16.96z"/>
	<path class="st0" d="M69,8.8c0.98,0,1.6,0.61,1.6,1.53s-0.63,1.53-1.6,1.53c-0.98,0-1.6-0.61-1.6-1.53S68.03,8.8,69,8.8z
		 M67.78,12.31h2.44v7.02h-2.44V12.31z"/>
	<path class="st0" d="M72.82,8.8c0.98,0,1.6,0.61,1.6,1.53s-0.63,1.53-1.6,1.53s-1.6-0.61-1.6-1.53S71.84,8.8,72.82,8.8z
		 M71.6,12.31h2.44v7.02H71.6V12.31z"/>
	<path class="st1" d="M79,19.33V8.64h3.04c2.17,0,3.65,1.5,3.65,3.94c0,2.44-1.48,3.94-3.65,3.94h-0.53v2.81H79z M83.18,12.58
		c0-1.01-0.47-1.47-1.24-1.47h-0.44v2.93h0.44C82.71,14.05,83.18,13.59,83.18,12.58z"/>
	<path class="st1" d="M86.76,15.82c0-2.14,1.33-3.51,3.43-3.51h0.84v2.35h-0.84c-0.61,0-0.99,0.4-0.99,1.16v3.51h-2.44V15.82z"/>
	<path class="st1" d="M95.3,12.18c2.14,0,3.54,1.5,3.54,3.63c0,2.14-1.4,3.63-3.54,3.63c-2.14,0-3.54-1.5-3.54-3.63
		C91.76,13.68,93.17,12.18,95.3,12.18z M95.3,17.07c0.64,0,1.07-0.49,1.07-1.25c0-0.76-0.43-1.25-1.07-1.25
		c-0.64,0-1.07,0.49-1.07,1.25C94.24,16.58,94.66,17.07,95.3,17.07z"/>
	<g>
		<path class="st0" d="M47.83,32.24V21.56h3.04c2.17,0,3.65,1.5,3.65,3.94c0,2.44-1.48,3.94-3.65,3.94h-0.53v2.81H47.83z
			 M52.01,25.5c0-1.01-0.47-1.47-1.24-1.47h-0.44v2.93h0.44C51.54,26.96,52.01,26.5,52.01,25.5z"/>
		<path class="st0" d="M55.59,32.24V21.25h2.44v10.99H55.59z"/>
		<path class="st0" d="M61.69,25.22v3.51c0,0.76,0.38,1.16,0.99,1.16h0.69v-4.67h2.44v7.02h-3.13c-2.11,0-3.43-1.37-3.43-3.51v-3.51
			H61.69z"/>
		<path class="st0" d="M66.8,32.24V29.8h2.99l-1.65-1.28c-0.78-0.61-1.19-1.19-1.19-1.89c0-0.73,0.47-1.4,1.51-1.4h3.75v2.44h-2.38
			l1.65,1.28c0.78,0.61,1.19,1.19,1.19,1.89c0,0.73-0.47,1.4-1.51,1.4H66.8z"/>
		<path class="st0" d="M79.69,32.24h-2.55c-2.5,0-3.6-1.5-3.6-3.56c0-2.21,1.31-3.59,3.31-3.59c1.89,0,2.84,1.22,2.92,2.87
			l-2.84,1.83h2.76V32.24z M76.82,28.55c0.47,0,0.79-0.29,0.79-0.73c0-0.46-0.32-0.75-0.79-0.75c-0.49,0-0.81,0.29-0.81,0.75
			C76.01,28.26,76.33,28.55,76.82,28.55z"/>
	</g>
	<g>
		<path class="st1" d="M51.07,37.11h-0.61v2.73h-0.69v-2.73h-0.39v-0.55h0.39v-0.23c0-0.38,0.1-0.65,0.3-0.83
			c0.2-0.17,0.52-0.26,0.94-0.26v0.57c-0.21,0-0.35,0.04-0.43,0.12c-0.08,0.08-0.13,0.21-0.13,0.4v0.23h0.61V37.11z"/>
		<path class="st1" d="M54.66,38.45h-2.51c0.02,0.26,0.12,0.47,0.29,0.63c0.18,0.16,0.39,0.24,0.65,0.24c0.37,0,0.62-0.15,0.77-0.46
			h0.73c-0.1,0.3-0.28,0.55-0.54,0.74c-0.26,0.19-0.58,0.29-0.97,0.29c-0.31,0-0.6-0.07-0.84-0.21c-0.25-0.14-0.44-0.34-0.59-0.6
			c-0.14-0.26-0.21-0.55-0.21-0.89c0-0.34,0.07-0.63,0.21-0.89c0.14-0.26,0.33-0.45,0.58-0.59c0.25-0.14,0.53-0.21,0.86-0.21
			c0.31,0,0.59,0.07,0.83,0.2c0.24,0.13,0.43,0.33,0.57,0.57c0.13,0.24,0.2,0.53,0.2,0.84C54.68,38.24,54.67,38.35,54.66,38.45z
			 M53.97,37.9c0-0.25-0.09-0.45-0.27-0.6c-0.18-0.15-0.39-0.23-0.65-0.23c-0.23,0-0.44,0.07-0.6,0.22
			c-0.17,0.15-0.27,0.35-0.3,0.61H53.97z"/>
		<path class="st1" d="M58.34,38.45h-2.51c0.02,0.26,0.12,0.47,0.29,0.63c0.18,0.16,0.39,0.24,0.65,0.24c0.37,0,0.62-0.15,0.77-0.46
			h0.73c-0.1,0.3-0.28,0.55-0.54,0.74c-0.26,0.19-0.58,0.29-0.97,0.29c-0.31,0-0.6-0.07-0.84-0.21c-0.25-0.14-0.44-0.34-0.59-0.6
			c-0.14-0.26-0.21-0.55-0.21-0.89c0-0.34,0.07-0.63,0.21-0.89c0.14-0.26,0.33-0.45,0.58-0.59c0.25-0.14,0.53-0.21,0.86-0.21
			c0.31,0,0.59,0.07,0.83,0.2c0.24,0.13,0.43,0.33,0.57,0.57c0.13,0.24,0.2,0.53,0.2,0.84C58.36,38.24,58.35,38.35,58.34,38.45z
			 M57.65,37.9c0-0.25-0.09-0.45-0.27-0.6c-0.18-0.15-0.39-0.23-0.65-0.23c-0.23,0-0.44,0.07-0.6,0.22
			c-0.17,0.15-0.27,0.35-0.3,0.61H57.65z"/>
		<path class="st1" d="M59.71,35.42v4.41h-0.68v-4.41H59.71z"/>
		<path class="st1" d="M63.53,37.11h-0.61v2.73h-0.69v-2.73h-0.39v-0.55h0.39v-0.23c0-0.38,0.1-0.65,0.3-0.83
			c0.2-0.17,0.52-0.26,0.94-0.26v0.57c-0.21,0-0.35,0.04-0.43,0.12c-0.08,0.08-0.13,0.21-0.13,0.4v0.23h0.61V37.11z"/>
		<path class="st1" d="M65.21,36.64c0.16-0.09,0.36-0.14,0.59-0.14v0.7h-0.17c-0.27,0-0.47,0.07-0.6,0.2
			c-0.14,0.14-0.21,0.37-0.21,0.7v1.73h-0.68v-3.29h0.68v0.48C64.91,36.86,65.05,36.73,65.21,36.64z"/>
		<path class="st1" d="M69.41,38.45H66.9c0.02,0.26,0.12,0.47,0.29,0.63c0.18,0.16,0.39,0.24,0.65,0.24c0.37,0,0.62-0.15,0.77-0.46
			h0.73c-0.1,0.3-0.28,0.55-0.54,0.74c-0.26,0.19-0.58,0.29-0.97,0.29c-0.31,0-0.6-0.07-0.84-0.21c-0.25-0.14-0.44-0.34-0.59-0.6
			c-0.14-0.26-0.21-0.55-0.21-0.89c0-0.34,0.07-0.63,0.21-0.89c0.14-0.26,0.33-0.45,0.58-0.59c0.25-0.14,0.53-0.21,0.86-0.21
			c0.31,0,0.59,0.07,0.83,0.2c0.24,0.13,0.43,0.33,0.57,0.57c0.13,0.24,0.2,0.53,0.2,0.84C69.44,38.24,69.43,38.35,69.41,38.45z
			 M68.73,37.9c0-0.25-0.09-0.45-0.27-0.6c-0.18-0.15-0.39-0.23-0.65-0.23c-0.23,0-0.44,0.07-0.6,0.22
			c-0.17,0.15-0.27,0.35-0.3,0.61H68.73z"/>
		<path class="st1" d="M73.09,38.45h-2.51c0.02,0.26,0.12,0.47,0.29,0.63c0.18,0.16,0.39,0.24,0.65,0.24c0.37,0,0.62-0.15,0.77-0.46
			h0.73c-0.1,0.3-0.28,0.55-0.54,0.74c-0.26,0.19-0.58,0.29-0.97,0.29c-0.31,0-0.6-0.07-0.84-0.21c-0.25-0.14-0.44-0.34-0.59-0.6
			c-0.14-0.26-0.21-0.55-0.21-0.89c0-0.34,0.07-0.63,0.21-0.89c0.14-0.26,0.33-0.45,0.58-0.59c0.25-0.14,0.53-0.21,0.86-0.21
			c0.31,0,0.59,0.07,0.83,0.2c0.24,0.13,0.43,0.33,0.57,0.57c0.13,0.24,0.2,0.53,0.2,0.84C73.12,38.24,73.11,38.35,73.09,38.45z
			 M72.41,37.9c0-0.25-0.09-0.45-0.27-0.6c-0.18-0.15-0.39-0.23-0.65-0.23c-0.23,0-0.44,0.07-0.6,0.22
			c-0.17,0.15-0.27,0.35-0.3,0.61H72.41z"/>
	</g>
	<path class="st1" d="M41.31,17.78c0,0.01,0,0.02,0,0.04l-0.2,1.51c-0.33,2.43-1.43,4.6-3.06,6.26c-1.59,1.62-3.67,2.75-6.01,3.16
		c-0.11,0.02-0.22-0.04-0.27-0.15l-1.14-2.55c-0.07-0.15,0.03-0.32,0.19-0.35c6.3-0.97,7.06-6.51,7.09-6.83c0-0.01,0-0.02,0-0.03
		v-1.19c0-4.13-3.35-7.48-7.48-7.48H20.14c-0.18,0-0.3,0.19-0.23,0.35l13.94,30.45c0.08,0.17-0.05,0.35-0.23,0.35h-3.02
		c-0.1,0-0.19-0.06-0.23-0.15l-14.2-31.02L14.7,6.94c-0.08-0.17,0.05-0.36,0.23-0.35l3.19,0.02l12.2,0.08
		C36.41,6.73,41.33,11.69,41.31,17.78z"/>
	<path class="st2" d="M1.15,30.13c0-0.01,0-0.02,0-0.04l0.2-1.51c0.33-2.43,1.43-4.6,3.06-6.26c1.59-1.62,3.67-2.75,6.01-3.16
		c0.11-0.02,0.22,0.04,0.27,0.15l1.14,2.55c0.07,0.15-0.03,0.32-0.19,0.35c-6.3,0.97-7.06,6.51-7.09,6.83c0,0.01,0,0.02,0,0.03v1.19
		c0,4.13,3.35,7.48,7.48,7.48h10.29c0.18,0,0.3-0.19,0.23-0.35L8.62,6.94C8.54,6.77,8.66,6.58,8.85,6.58h3.02
		c0.1,0,0.19,0.06,0.23,0.15l14.2,31.02l1.48,3.22c0.08,0.17-0.05,0.36-0.23,0.35l-3.19-0.02l-12.2-0.08
		C6.06,41.18,1.14,36.22,1.15,30.13z"/>
	<path class="st0" d="M42.72,2.97h-2.06c-0.11,0-0.2-0.09-0.2-0.2V0.71c0-0.11-0.09-0.2-0.2-0.2h-1.31c-0.11,0-0.2,0.09-0.2,0.2
		v2.06c0,0.11-0.09,0.2-0.2,0.2H36.5c-0.11,0-0.2,0.09-0.2,0.2v1.31c0,0.11,0.09,0.2,0.2,0.2h2.06c0.11,0,0.2,0.09,0.2,0.2v2.06
		c0,0.11,0.09,0.2,0.2,0.2h1.31c0.11,0,0.2-0.09,0.2-0.2V4.87c0-0.11,0.09-0.2,0.2-0.2h2.06c0.11,0,0.2-0.09,0.2-0.2V3.17
		C42.92,3.06,42.83,2.97,42.72,2.97z"/>
	<g>
		<path class="st1" d="M73.1,41.49H49.36c-0.94,0-1.7-0.76-1.7-1.7v-4.24c0-0.94,0.76-1.7,1.7-1.7H73.1c0.94,0,1.7,0.76,1.7,1.7
			v4.24C74.8,40.73,74.04,41.49,73.1,41.49z M49.36,34.19c-0.75,0-1.37,0.61-1.37,1.37v4.24c0,0.75,0.61,1.37,1.37,1.37H73.1
			c0.75,0,1.37-0.61,1.37-1.37v-4.24c0-0.75-0.61-1.37-1.37-1.37H49.36z"/>
	</g>
</g>
</svg>
