<svg width="1000" height="1000" viewBox="0 0 1000 1000" fill="none" xmlns="http://www.w3.org/2000/svg">
<path d="M853.9 137.3H585.3V313.4C585.3 321.5 581.3 326.5 577.9 323.1L542.1 285.3C540.8 283.9 539.1 283.9 537.8 285.3L504.4 320.5C503.4 322.9 501.7 324.5 500.2 324.1C498.4 324.3 496.9 322.9 495.9 320.5L462.6 285.3C461.3 283.9 459.6 283.9 458.1 285.3L422.3 323.1C419 326.6 414.9 321.4 414.9 313.4V137.3H146.1C100 137.3 62.5 176 62.5 223.7V776.6C62.5 824.3 99.9 863 146.1 863H853.9C900 863 937.5 824.3 937.5 776.6V223.7C937.5 176 900.1 137.3 853.9 137.3ZM425.8 739C425.8 758.2 410.8 773.6 392.4 773.6H197.2C178.8 773.6 163.8 758.2 163.8 739V621C163.8 601.8 178.8 586.4 197.2 586.4H392.3C410.7 586.4 425.7 601.8 425.7 621V739H425.8ZM264.1 601C256.1 601 248.8 601.3 247.6 601.8C246.9 602.1 246.2 602.4 245.7 602.9C244.6 604.1 243.9 605.9 243.3 607.5C243 608.2 243.2 609.1 243.2 609.8V750C243.2 752.4 243.2 754.8 245.1 756.4C245.8 757 246.5 757.4 247.3 757.8C248.6 758.4 256.1 758.9 264.1 758.9C272.1 758.9 280.8 758.5 282.6 756.7C283.7 755.7 284.4 754.3 284.7 752.5C284.8 751.6 284.8 750.7 284.8 749.8V610.6C284.8 607.6 284.6 605.8 283.7 604.4C281.8 601.5 272 601 264.1 601ZM201.6 601C197.4 601 192 601.4 190.2 602.9C189.2 603.8 188.4 605 188 606.6C187.8 607.4 187.8 608.3 187.8 609.1V750.8C187.8 753.2 188.2 754.8 189.4 756.1C191.5 758.4 197.5 758.9 201.7 758.9C205.9 758.9 211.4 758.5 213.2 756.9C214.3 756 215 754.7 215.3 753C215.4 752.2 215.5 751.4 215.5 750.6V609.3C215.5 606.9 215.1 605.2 214 603.9C211.9 601.6 205.8 601 201.6 601ZM298.8 601C298.5 601 297.9 601.1 297.5 601.2C297.2 601.3 297 601.3 296.8 601.4C294.1 602.3 292.4 604.2 292 607.1C291.9 608 291.8 608.9 291.8 609.8V750.1C291.8 754.6 293.3 757.2 296.5 758.4L297.4 758.7C297.9 758.9 298.6 759 298.8 759C299.1 759 301.4 758.6 303.3 757C304.4 756.1 305.1 754.8 305.4 753.1C305.5 752.3 305.6 751.5 305.6 750.7V609.4C305.6 607 305.2 605.3 304.1 604C302 601.6 299 601 298.8 601ZM229.4 601C229.1 601 228.6 601.1 228.3 601.2L227.7 601.4C224.8 602.2 222.8 604.4 222.5 607.5C222.4 608.9 222.4 610.4 222.4 611.9V749.9C222.4 752.6 222.7 754.4 223.7 755.8C225.6 758.6 229 758.9 229.3 758.9C229.6 758.9 231.9 758.6 233.8 757C234.8 756.1 235.6 754.9 236 753.3C236.2 752.5 236.2 751.6 236.2 750.8V609.1C236.2 606.7 235.8 605.1 234.6 603.8C232.6 601.6 229.7 601 229.4 601ZM368 601C363.8 601 358.4 601.4 356.6 602.9C355.6 603.8 354.8 605 354.4 606.6C354.2 607.4 354.2 608.3 354.2 609.1V750.8C354.2 753.2 354.6 754.8 355.8 756.1C357.9 758.4 363.9 758.9 368.1 758.9C372.3 758.9 377.8 758.5 379.6 756.9C380.7 756 381.4 754.7 381.7 753C381.8 752.2 381.9 751.4 381.9 750.6V609.3C381.9 606.9 381.5 605.2 380.4 603.9C378.3 601.6 372.2 601 368 601ZM395.9 601C395.6 601 395.1 601.1 394.8 601.2L394.2 601.4C391.3 602.2 389.3 604.4 389 607.5C388.9 608.9 388.9 610.4 388.9 611.9V749.9C388.9 752.6 389.2 754.4 390.2 755.8C392.1 758.6 395.5 758.9 395.8 758.9C396.1 758.9 398.4 758.6 400.3 757C401.3 756.1 402.1 754.9 402.5 753.3C402.7 752.5 402.7 751.6 402.7 750.8V609.1C402.7 606.7 402.3 605.1 401.1 603.8C399.1 601.6 396.1 601 395.9 601ZM319.5 601C319.2 601 318.7 601.1 318.4 601.2L317.8 601.4C314.9 602.2 312.9 604.4 312.6 607.5C312.5 608.9 312.5 610.4 312.5 611.9V749.9C312.5 752.6 312.8 754.4 313.8 755.8C315.7 758.6 319.1 758.9 319.4 758.9C319.7 758.9 322 758.6 323.9 757C324.9 756.1 325.7 754.9 326.1 753.3C326.3 752.5 326.3 751.6 326.3 750.8V609.1C326.3 606.7 325.9 605.1 324.7 603.8C322.7 601.6 319.8 601 319.5 601ZM340.3 601C340 601 338.9 601.3 337.8 601.8C337.1 602.1 336.4 602.4 335.9 602.9C334.8 604.1 334.1 605.9 333.5 607.5C333.2 608.2 333.4 609.1 333.4 609.8V750C333.4 752.4 333.4 754.8 335.3 756.4C336 757 336.7 757.4 337.5 757.8C338.8 758.4 340.1 758.9 340.4 758.9C340.7 758.9 343 758.6 344.9 756.9C346.7 755.2 347.3 737.6 347.3 718.5V641.3C347.3 622.2 346.7 604.6 344.9 602.9C342.9 601.4 340.6 601 340.3 601Z" fill="#009999"/>
</svg>
