<?xml version="1.0" encoding="UTF-8"?> <svg xmlns="http://www.w3.org/2000/svg" width="64" height="64" viewBox="0 0 64 64"><g id="_24_7-support" data-name="24/7-support" transform="translate(-431 -2688)"><g id="Cloud-storage" transform="translate(431 2688)"><g id="Group_127672" data-name="Group 127672"><circle id="Ellipse_649" data-name="Ellipse 649" cx="32" cy="32" r="32" fill="rgba(255,255,255,0)"></circle></g></g><g id="_3" data-name="3" transform="translate(-2930.169 2264.042)"><path id="Path_145264" data-name="Path 145264" d="M3409.449,448.787a1.194,1.194,0,0,0-.75.292,16.693,16.693,0,0,0-6.5-7.55,16.832,16.832,0,0,0-24.4,7.579,1.214,1.214,0,0,0-.785-.321c-1.309,0-2.843,2.558-2.843,5.714s1.533,5.714,2.843,5.714a1.194,1.194,0,0,0,.753-.295.7.7,0,0,0,.482-.83,15.312,15.312,0,0,1,11.586-18.334,15.394,15.394,0,0,1,18.428,11.526,15.31,15.31,0,0,1-11.343,18.276,4.424,4.424,0,0,0-3.066-.968c-1.87,0-3.386.754-3.386,1.684s1.516,1.684,3.386,1.684A4.455,4.455,0,0,0,3396.9,472a.692.692,0,0,0,.086-.014,16.777,16.777,0,0,0,12.449-11.776h.01c1.309,0,2.842-2.558,2.842-5.714S3410.758,448.787,3409.449,448.787Z" transform="translate(0 0)" stroke="#000" stroke-width="0.2"></path><g id="Group_177107" data-name="Group 177107" transform="translate(3383.868 451.848)"><path id="Path_145265" data-name="Path 145265" d="M3692.737,871.611v-.937l2.133-2.255a4.971,4.971,0,0,0,.646-.849,1.317,1.317,0,0,0,.192-.627.987.987,0,0,0-.215-.677.773.773,0,0,0-.609-.242.844.844,0,0,0-.487.14.888.888,0,0,0-.314.387,1.37,1.37,0,0,0-.109.559h-1.368a2.19,2.19,0,0,1,.285-1.1,2.07,2.07,0,0,1,.811-.792,2.449,2.449,0,0,1,1.209-.292,2.8,2.8,0,0,1,1.182.224,1.606,1.606,0,0,1,.734.648,1.974,1.974,0,0,1,.249,1.017,2.074,2.074,0,0,1-.175.833,3.667,3.667,0,0,1-.489.8q-.315.4-.822.926l-1.087,1.137h2.771v1.1Z" transform="translate(-3692.605 -864.922)" stroke="#000" stroke-width="0.2"></path><path id="Path_145266" data-name="Path 145266" d="M3870.938,873.22h-.724v1.417h-1.368V873.22h-2.663l-.068-.865,2.722-4.311h1.377v4.076h.724Zm-2.092-1.1V869.9l-.091.159-1.3,2.065Z" transform="translate(-3860.831 -867.949)" stroke="#000" stroke-width="0.2"></path><path id="Path_145267" data-name="Path 145267" d="M4030.262,875.2l2.382-7.159h1.005l-2.386,7.159Z" transform="translate(-4019.978 -867.949)" stroke="#000" stroke-width="0.2"></path><path id="Path_145268" data-name="Path 145268" d="M4155.817,874.638h-1.44l2.527-5.493h-3.242v-1.1h4.683v.761Z" transform="translate(-4139.62 -867.949)" stroke="#000" stroke-width="0.2"></path></g></g></g></svg> 