<svg xmlns="http://www.w3.org/2000/svg" width="64" height="64" viewBox="0 0 64 64"><g id="applications" transform="translate(-415 -4763)"><circle id="Ellipse_649" data-name="Ellipse 649" cx="32" cy="32" r="32" transform="translate(415 4763)" fill="rgba(255,255,255,0)"></circle><path id="Union_9" data-name="Union 9" d="M-3903.06,3437a3,3,0,0,1-2.942-3.036v-27.928a2.994,2.994,0,0,1,2.942-3.037h14.118a2.992,2.992,0,0,1,2.94,3.036v27.928a2.993,2.993,0,0,1-2.94,3.035Zm-1.764-30.964v27.928a1.8,1.8,0,0,0,1.764,1.822h14.118a1.8,1.8,0,0,0,1.765-1.822v-27.928a1.8,1.8,0,0,0-1.765-1.821h-1.177v1.821a1.2,1.2,0,0,1-1.177,1.214h-9.412a1.2,1.2,0,0,1-1.176-1.214v-1.821h-1.176a1.793,1.793,0,0,0-1.76,1.825Zm4.117,0h9.413v-1.821h-9.412Zm7.263,22.768a1.2,1.2,0,0,1-1.176-1.214v-3.432a1.2,1.2,0,0,1,1.176-1.214h3.325a1.2,1.2,0,0,1,1.177,1.214v3.432a1.2,1.2,0,0,1-1.177,1.214Zm0-1.214h3.326v-3.432h-3.325Zm-8.439,1.214a1.2,1.2,0,0,1-1.176-1.214v-3.432a1.2,1.2,0,0,1,1.176-1.214h3.325a1.2,1.2,0,0,1,1.177,1.214v3.432a1.2,1.2,0,0,1-1.177,1.214Zm0-1.214h3.325v-3.432h-3.325Zm8.439-7.5a1.2,1.2,0,0,1-1.176-1.214v-3.432a1.2,1.2,0,0,1,1.176-1.214h3.325a1.2,1.2,0,0,1,1.177,1.214v3.432a1.2,1.2,0,0,1-1.177,1.214Zm0-1.214h3.326v-3.432h-3.325Zm-8.439,1.214a1.2,1.2,0,0,1-1.176-1.214v-3.432a1.2,1.2,0,0,1,1.176-1.214h3.325a1.2,1.2,0,0,1,1.177,1.214v3.432a1.2,1.2,0,0,1-1.177,1.214Zm0-1.214h3.324v-3.432h-3.325Z" transform="translate(4343.001 1375)"></path></g></svg>