<svg xmlns="http://www.w3.org/2000/svg" id="backup" width="64" height="64" viewBox="0 0 64 64"><circle id="Ellipse_649" data-name="Ellipse 649" cx="32" cy="32" r="32" fill="rgba(255,255,255,0)"></circle><path id="cloud_upload_24dp_FILL0_wght100_GRAD0_opsz24" d="M101.042-719.15a8.741,8.741,0,0,1-6.405-2.625A8.71,8.71,0,0,1,92-728.193a8.7,8.7,0,0,1,2.664-6.378,8.346,8.346,0,0,1,6.055-2.664,11.749,11.749,0,0,1,4.01-7.7A11.92,11.92,0,0,1,112.884-748a11.841,11.841,0,0,1,8.7,3.572,11.841,11.841,0,0,1,3.572,8.7v2.8h1.722a6.658,6.658,0,0,1,4.9,1.991,6.657,6.657,0,0,1,1.991,4.9,6.753,6.753,0,0,1-1.938,4.9,6.481,6.481,0,0,1-4.844,1.992H115.36a3.137,3.137,0,0,1-2.314-.915,3.137,3.137,0,0,1-.915-2.314V-735.3l-4.844,4.844-1.076-1.023,6.674-6.674,6.674,6.674-1.076,1.023-4.844-4.844v12.918a1.646,1.646,0,0,0,.538,1.184,1.646,1.646,0,0,0,1.184.538h11.518a5.2,5.2,0,0,0,3.822-1.561,5.2,5.2,0,0,0,1.561-3.821,5.2,5.2,0,0,0-1.561-3.822,5.2,5.2,0,0,0-3.822-1.561h-3.229v-4.306a10.375,10.375,0,0,0-3.149-7.616,10.375,10.375,0,0,0-7.616-3.149,10.375,10.375,0,0,0-7.616,3.149,10.375,10.375,0,0,0-3.149,7.616h-1.184a7.166,7.166,0,0,0-5.194,2.207,7.217,7.217,0,0,0-2.234,5.329,7.261,7.261,0,0,0,2.207,5.329,7.261,7.261,0,0,0,5.329,2.207h5.382v1.507ZM112.884-732.822Z" transform="translate(-81 766)"></path></svg>