<svg xmlns="http://www.w3.org/2000/svg" xmlns:xlink="http://www.w3.org/1999/xlink" width="64" height="64" viewBox="0 0 64 64"><defs><clipPath id="clip-path"><rect id="Rectangle_21167" data-name="Rectangle 21167" width="42.624" height="34.077" fill="#0a8edb"></rect></clipPath></defs><g transform="translate(-1254 -1977)"><circle id="Ellipse_649" data-name="Ellipse 649" cx="32" cy="32" r="32" transform="translate(1254 1977)" fill="rgba(10,142,219,0.2)"></circle><g id="Group_171248" data-name="Group 171248" transform="translate(1265 1992)"><g id="Group_171247" data-name="Group 171247" clip-path="url(#clip-path)"><path id="Path_108017" data-name="Path 108017" d="M42.624,19.205a6.887,6.887,0,0,1-6.879,6.88H31.672a.474.474,0,1,1,0-.947h4.073a5.932,5.932,0,0,0,0-11.864,5.872,5.872,0,0,0-1.018.094.474.474,0,0,1-.533-.612,3.819,3.819,0,0,0-5.56-4.474.474.474,0,0,1-.675-.226,11.609,11.609,0,0,0-22.309,4.5c0,.084.006.167.011.25s.009.137.011.206a.474.474,0,0,1-.349.474A5.929,5.929,0,0,0,6.879,25.138h4.074a.474.474,0,0,1,0,.947H6.879a6.876,6.876,0,0,1-2.172-13.4c0-.043,0-.085,0-.129A12.556,12.556,0,0,1,28.626,7.222a4.767,4.767,0,0,1,6.639,5.121c.164-.012.323-.019.481-.019a6.888,6.888,0,0,1,6.879,6.88ZM29.778,25.611a8.466,8.466,0,1,1-8.466-8.466,8.475,8.475,0,0,1,8.466,8.466m-.947,0a7.518,7.518,0,1,0-7.518,7.519,7.527,7.527,0,0,0,7.518-7.519m-7.1-3.781c-.007-.011-.017-.018-.024-.028a.458.458,0,0,0-.04-.054.493.493,0,0,0-.04-.04.411.411,0,0,0-.053-.039.34.34,0,0,0-.029-.024c-.008,0-.016,0-.023-.007a.338.338,0,0,0-.049-.02A.551.551,0,0,0,21.4,21.6a.442.442,0,0,0-.065-.01c-.009,0-.015,0-.024,0s-.015,0-.024,0a.543.543,0,0,0-.065.01.443.443,0,0,0-.069.017c-.017.006-.033.012-.049.02s-.016,0-.023.007-.018.018-.029.025a.47.47,0,0,0-.053.039.554.554,0,0,0-.04.04.468.468,0,0,0-.04.054c-.007.011-.018.017-.024.028L19,25.265a.474.474,0,0,0,.83.458L20.838,23.9v5.265a.474.474,0,1,0,.947,0V23.9l1.006,1.823a.473.473,0,0,0,.415.245.467.467,0,0,0,.228-.059.474.474,0,0,0,.186-.643Z" transform="translate(0 0)" fill="#0a8edb"></path></g></g></g></svg>