<svg xmlns="http://www.w3.org/2000/svg" width="64" height="64" viewBox="0 0 64 64"><g id="customer-support" transform="translate(-325 -482)"><circle id="Ellipse_649" data-name="Ellipse 649" cx="32" cy="32" r="32" transform="translate(325 482)" fill="rgba(255,255,255,0)"></circle><path id="Union_7" data-name="Union 7" d="M-3903.45,3684.9a2.5,2.5,0,0,1-1.784-.7,2.5,2.5,0,0,1-.767-1.755v-3.328a7.081,7.081,0,0,1,5.029-6.694l7.188-2.293a.639.639,0,0,1,.8.382.6.6,0,0,1-.037.469.6.6,0,0,1-.363.3l-7.186,2.3a5.863,5.863,0,0,0-4.167,5.544v3.328a1.265,1.265,0,0,0,1.288,1.241h26.9a1.267,1.267,0,0,0,1.29-1.241v-3.328a5.865,5.865,0,0,0-4.167-5.544l-3.258-1.042a.6.6,0,0,1-.363-.3.6.6,0,0,1-.037-.469.639.639,0,0,1,.8-.382l3.259,1.042a7.084,7.084,0,0,1,5.03,6.693v3.328a2.505,2.505,0,0,1-2.553,2.452Zm13.131-13.574a1.837,1.837,0,0,1-1.573-1.783,1.838,1.838,0,0,1,1.565-1.789,1.9,1.9,0,0,1,2.1,1.177h6.243a1.344,1.344,0,0,0,1.371-1.312v-2.6h-1.186c-.041.117-.072.234-.117.351-.329.65-1.131,2.877-2.115,2.223a.6.6,0,0,1-.239-.4.583.583,0,0,1,.125-.448c3.724-4.516.153-11.431-5.86-11.354-7.63.047-10.189,9.83-3.474,13.3a.6.6,0,0,1,.306.678.625.625,0,0,1-.6.461,7.86,7.86,0,0,1-4.441-4.806h-1.849a1.239,1.239,0,0,1-1.263-1.21V3659.9a1.205,1.205,0,0,1,.693-1.076A8.5,8.5,0,0,1-3892,3651h4.011a8.5,8.5,0,0,1,8.625,7.82,1.207,1.207,0,0,1,.693,1.076v3.913a1.2,1.2,0,0,1-.669,1.062v2.746a2.583,2.583,0,0,1-2.634,2.523h-6.242a1.883,1.883,0,0,1-1.78,1.21,1.974,1.974,0,0,1-.324-.03Zm-.31-1.785a.618.618,0,0,0,.631.6.619.619,0,0,0,.632-.6.62.62,0,0,0-.632-.606.619.619,0,0,0-.632.6Zm9.282-5.729h1.41V3659.9h-1.41Zm-18.711,0h1.409V3659.9h-1.409Zm17.781-5.043a6.937,6.937,0,0,1,1.64-.08,7.275,7.275,0,0,0-7.355-6.475H-3892a7.277,7.277,0,0,0-7.354,6.475,6.982,6.982,0,0,1,1.639.08,8.666,8.666,0,0,1,7.721-4.586,8.664,8.664,0,0,1,7.713,4.587Z" transform="translate(4247 -3153.998)"></path></g></svg>