<svg xmlns="http://www.w3.org/2000/svg" width="64" height="64" viewBox="0 0 64 64"><g id="customized" transform="translate(-415 -4515)"><circle id="Ellipse_649" data-name="Ellipse 649" cx="32" cy="32" r="32" transform="translate(415 4515)" fill="rgba(255,255,255,0)"></circle><g id="noun-settings-2299823" transform="translate(428.027 4528.026)"><g id="Group_180313" data-name="Group 180313" transform="translate(1.973 1.974)"><g id="Group_180308" data-name="Group 180308" transform="translate(0)"><path id="Path_146423" data-name="Path 146423" d="M21.4,36.026H16.6a.515.515,0,0,1-.513-.461l-.493-4.611a12.373,12.373,0,0,1-2.637-1.1L9.345,32.773a.515.515,0,0,1-.688-.037L5.264,29.343a.515.515,0,0,1-.037-.688l2.917-3.617a12.382,12.382,0,0,1-1.091-2.632l-4.619-.494a.515.515,0,0,1-.461-.513V16.6a.515.515,0,0,1,.461-.513l4.609-.493a12.387,12.387,0,0,1,1.09-2.648l-2.905-3.6a.515.515,0,0,1,.037-.688L8.657,5.264a.514.514,0,0,1,.688-.037l3.587,2.894A12.423,12.423,0,0,1,15.6,7.009l.489-4.574a.515.515,0,0,1,.513-.461h4.8a.515.515,0,0,1,.513.461L22.4,6.992A12.392,12.392,0,0,1,25.091,8.1l3.563-2.875a.515.515,0,0,1,.688.037l3.393,3.393a.515.515,0,0,1,.037.688L29.9,12.905a12.388,12.388,0,0,1,1.115,2.7l4.549.487a.516.516,0,0,1,.461.513v4.8a.515.515,0,0,1-.461.513l-4.56.488a12.37,12.37,0,0,1-1.117,2.681l2.883,3.574a.515.515,0,0,1-.037.688l-3.393,3.393a.515.515,0,0,1-.688.037l-3.589-2.895A12.379,12.379,0,0,1,22.4,30.972l-.491,4.593A.515.515,0,0,1,21.4,36.026Zm-4.336-1.031h3.873l.479-4.485a.515.515,0,0,1,.388-.445,11.361,11.361,0,0,0,3.048-1.254.518.518,0,0,1,.587.042l3.5,2.825,2.738-2.738-2.815-3.49a.516.516,0,0,1-.041-.59A11.341,11.341,0,0,0,30.1,21.8a.516.516,0,0,1,.445-.386l4.45-.476V17.064l-4.44-.475a.515.515,0,0,1-.445-.387,11.376,11.376,0,0,0-1.275-3.08.516.516,0,0,1,.041-.589l2.8-3.475L28.941,6.32,25.463,9.126a.516.516,0,0,1-.588.041A11.351,11.351,0,0,0,21.8,7.9a.516.516,0,0,1-.388-.446L20.936,3H17.063l-.477,4.465a.514.514,0,0,1-.385.445,11.351,11.351,0,0,0-3.05,1.273.515.515,0,0,1-.59-.04L9.058,6.32,6.32,9.058l2.836,3.516a.515.515,0,0,1,.042.587A11.364,11.364,0,0,0,7.949,16.2a.514.514,0,0,1-.445.387L3,17.064v3.873l4.509.482a.514.514,0,0,1,.445.386A11.365,11.365,0,0,0,9.21,24.822a.516.516,0,0,1-.041.588L6.32,28.941l2.738,2.738,3.527-2.845a.517.517,0,0,1,.589-.041A11.343,11.343,0,0,0,16.2,30.05a.515.515,0,0,1,.385.445ZM35.51,21.4h0Z" transform="translate(-1.973 -1.974)" stroke="#000" stroke-width="0.5"></path></g><g id="Group_180310" data-name="Group 180310" transform="translate(9.315 9.713)"><g id="Group_180309" data-name="Group 180309"><path id="Path_146424" data-name="Path 146424" d="M27.755,35.343a7.711,7.711,0,0,1-3.723-14.465.515.515,0,0,1,.764.452V25.9l2.958,2.572L30.712,25.9V21.329a.515.515,0,0,1,.764-.452,7.711,7.711,0,0,1-3.722,14.465ZM23.765,22.272a6.682,6.682,0,1,0,7.978,0v3.866a.516.516,0,0,1-.177.389l-3.473,3.02a.517.517,0,0,1-.677,0l-3.474-3.02a.516.516,0,0,1-.177-.389V22.272Z" transform="translate(-20.042 -20.814)" stroke="#000" stroke-width="0.5"></path></g></g><g id="Group_180311" data-name="Group 180311" transform="translate(13.579 22.59)"><path id="Path_146425" data-name="Path 146425" d="M28.828,52.293h0a.516.516,0,0,1-.514-.517l.016-5.47a.516.516,0,0,1,.516-.514h0a.516.516,0,0,1,.514.517l-.016,5.47A.516.516,0,0,1,28.828,52.293Z" transform="translate(-28.312 -45.792)" stroke="#000" stroke-width="0.5"></path></g><g id="Group_180312" data-name="Group 180312" transform="translate(19.43 22.59)"><path id="Path_146426" data-name="Path 146426" d="M40.188,52.309a.515.515,0,0,1-.516-.515l-.01-5.486a.516.516,0,0,1,.515-.517h0a.515.515,0,0,1,.516.515l.01,5.486a.516.516,0,0,1-.515.517Z" transform="translate(-39.663 -45.792)" stroke="#000" stroke-width="0.5"></path></g></g></g></g></svg>