<svg xmlns="http://www.w3.org/2000/svg" width="64" height="64" viewBox="0 0 64 64"><g transform="translate(-107 -800)"><circle id="Ellipse_649" data-name="Ellipse 649" cx="32" cy="32" r="32" transform="translate(107 800)" fill="rgba(255,255,255,0)"></circle><path id="Path_146055" data-name="Path 146055" d="M112.569,25.035a6.329,6.329,0,0,0-4.953-6.178,6.494,6.494,0,0,0-5.059-4.474C98.776,5.7,85.675,8.046,84.983,17.419a6.988,6.988,0,0,0-6.5,6.977,6.913,6.913,0,0,0,5.272,6.764V41.278a1.682,1.682,0,0,0,1.7,1.7h20.131a1.682,1.682,0,0,0,1.7-1.7V31.319a6.354,6.354,0,0,0,5.272-6.284Zm-6.337,16.3a.648.648,0,0,1-.639.639H85.461a.648.648,0,0,1-.639-.639V23.81a.648.648,0,0,1,.639-.639H89.4a.739.739,0,0,1,.533.266l2.5,3.142a.658.658,0,0,0,.426.213h4.58V35.42a.512.512,0,0,0,.373.479h.16a.484.484,0,0,0,.426-.213l1.917-2.769,1.917,2.716a.591.591,0,0,0,.586.213.511.511,0,0,0,.373-.479V26.739h2.45a.648.648,0,0,1,.639.639V41.331ZM98.456,26.739h3.675v6.976l-1.438-1.971a.554.554,0,0,0-.852,0L98.4,33.716V26.739Zm8.841,3.515V27.379a1.682,1.682,0,0,0-1.7-1.7H93.078l-2.343-2.929a1.616,1.616,0,0,0-1.331-.639H85.462a1.682,1.682,0,0,0-1.7,1.7v6.337a5.955,5.955,0,0,1,1.7-11.663.525.525,0,0,0,.533-.479c.266-8.787,12.462-11.184,15.71-2.982a.464.464,0,0,0,.426.319,5.4,5.4,0,0,1,4.58,4.047.452.452,0,0,0,.426.373,5.341,5.341,0,0,1,.16,10.492Z" transform="translate(43.515 806.018)" stroke="#000" stroke-width="0.5"></path></g></svg>