<svg xmlns="http://www.w3.org/2000/svg" width="64" height="64" viewBox="0 0 64 64"><g id="expertise" transform="translate(-419 -2733)"><circle id="Ellipse_649" data-name="Ellipse 649" cx="32" cy="32" r="32" transform="translate(419 2733)" fill="rgba(255,255,255,0)"></circle><g id="Group_177045" data-name="Group 177045" transform="translate(2560.822 -175)"><path id="Path_127104" data-name="Path 127104" d="M234.083,230.529a6.958,6.958,0,0,0-4.253-5.578,6.022,6.022,0,0,0,1.324-3.812,6.1,6.1,0,1,0-10.834,3.812,6.883,6.883,0,0,0-4.253,5.578l-.642,4.976a2.107,2.107,0,0,0,1.6,2.287,38.633,38.633,0,0,0,16.051,0,2.057,2.057,0,0,0,1.6-2.287Zm-9.029-13.884a4.494,4.494,0,1,1-4.494,4.494A4.487,4.487,0,0,1,225.054,216.645Zm7.7,19.582a38.126,38.126,0,0,1-15.369,0,.488.488,0,0,1-.361-.522l.6-4.976a5.364,5.364,0,0,1,4.013-4.534,6.119,6.119,0,0,0,3.411,1.043,6.223,6.223,0,0,0,3.411-1.043,5.261,5.261,0,0,1,4.013,4.534l.6,4.976a.46.46,0,0,1-.321.521Z" transform="translate(-2334.795 2720.205)"></path><path id="Path_127105" data-name="Path 127105" d="M267.054,23.745l-.6,2.568a1.367,1.367,0,0,0,.522,1.4,1.448,1.448,0,0,0,.8.241,1.353,1.353,0,0,0,.682-.2l2.247-1.364,2.247,1.364a1.415,1.415,0,0,0,1.485-.04,1.34,1.34,0,0,0,.522-1.4l-.6-2.568,2.006-1.725a1.325,1.325,0,0,0-.762-2.327l-2.649-.2-1-2.448a1.329,1.329,0,0,0-1.244-.8,1.416,1.416,0,0,0-1.244.8l-1,2.448-2.648.2a1.334,1.334,0,0,0-1.164.923,1.306,1.306,0,0,0,.4,1.4Zm1.685-2.689a1.389,1.389,0,0,0,1.124-.8l.843-2.006.843,2.006a1.314,1.314,0,0,0,1.124.8l2.167.16-1.645,1.4a1.375,1.375,0,0,0-.441,1.324l.481,2.127-1.846-1.124a1.275,1.275,0,0,0-1.4,0l-1.846,1.124.481-2.127a1.292,1.292,0,0,0-.441-1.324l-1.645-1.4Z" transform="translate(-2380.447 2904.759)"></path><path id="Path_127106" data-name="Path 127106" d="M94.083,109.193l-.6-2.568,2.006-1.725a1.325,1.325,0,0,0-.762-2.327l-2.648-.2-1-2.448a1.329,1.329,0,0,0-1.244-.8,1.416,1.416,0,0,0-1.244.8l-1,2.448-2.648.2a1.334,1.334,0,0,0-1.164.923,1.306,1.306,0,0,0,.4,1.4l2.006,1.725-.6,2.568a1.366,1.366,0,0,0,.522,1.4,1.448,1.448,0,0,0,.8.241,1.353,1.353,0,0,0,.682-.2l2.247-1.364,2.247,1.364a1.415,1.415,0,0,0,1.485-.04,1.367,1.367,0,0,0,.521-1.4ZM92.317,105.5a1.375,1.375,0,0,0-.441,1.324l.481,2.127-1.846-1.124a1.275,1.275,0,0,0-1.4,0l-1.846,1.124.481-2.127A1.292,1.292,0,0,0,87.3,105.5l-1.645-1.4,2.167-.16a1.389,1.389,0,0,0,1.124-.8l.843-2.006.843,2.006a1.314,1.314,0,0,0,1.124.8l2.167.16Z" transform="translate(-2212.531 2827.818)"></path><path id="Path_127107" data-name="Path 127107" d="M457.086,102.935a1.29,1.29,0,0,0-1.164-.923l-2.648-.2-1-2.448a1.329,1.329,0,0,0-1.244-.8,1.416,1.416,0,0,0-1.244.8l-1,2.448-2.648.2a1.334,1.334,0,0,0-1.164.923,1.306,1.306,0,0,0,.4,1.4l2.006,1.725-.6,2.568a1.367,1.367,0,0,0,.522,1.4,1.448,1.448,0,0,0,.8.241,1.353,1.353,0,0,0,.682-.2l2.247-1.364,2.247,1.364a1.415,1.415,0,0,0,1.485-.04,1.34,1.34,0,0,0,.522-1.4l-.6-2.568,2.006-1.725A1.184,1.184,0,0,0,457.086,102.935Zm-3.571,2.046a1.375,1.375,0,0,0-.441,1.324l.481,2.127-1.806-1.124a1.275,1.275,0,0,0-1.4,0l-1.846,1.124.481-2.127a1.292,1.292,0,0,0-.441-1.324l-1.6-1.4,2.167-.16a1.389,1.389,0,0,0,1.124-.8l.843-2.006.843,2.006a1.314,1.314,0,0,0,1.124.8l2.167.16Z" transform="translate(-2547.847 2828.337)"></path></g></g></svg>