<?xml version="1.0" encoding="UTF-8"?> <svg xmlns="http://www.w3.org/2000/svg" width="64" height="64" viewBox="0 0 64 64"><g id="implemetation-services" transform="translate(-436 -2687.082)"><g id="Group_127672" data-name="Group 127672" transform="translate(436 2687)"><circle id="Ellipse_649" data-name="Ellipse 649" cx="32" cy="32" r="32" transform="translate(0 0.082)" fill="rgba(0,0,0,0)"></circle></g><path id="settings_panorama" d="M148.463-810.835a1.309,1.309,0,0,1-1.181-.233,1.3,1.3,0,0,1-.536-1.091v-7.179a1.244,1.244,0,0,1,.551-1.075,1.389,1.389,0,0,1,1.206-.217,15.512,15.512,0,0,0,2.534.475,25.372,25.372,0,0,0,2.575.131,23.149,23.149,0,0,0,2.594-.146,16.7,16.7,0,0,0,2.561-.491,1.22,1.22,0,0,1,1.181.217,1.338,1.338,0,0,1,.536,1.107v7.179a1.337,1.337,0,0,1-.536,1.107,1.219,1.219,0,0,1-1.181.217,16.731,16.731,0,0,0-2.555-.49,23.23,23.23,0,0,0-2.6-.146,23.188,23.188,0,0,0-2.6.146A16.728,16.728,0,0,0,148.463-810.835ZM144.5-825.393Zm-3.028,14.608-.587-4.694a8.618,8.618,0,0,1-1.681-.737,8.24,8.24,0,0,1-1.537-1.077l-4.329,1.841-3.027-5.275,3.742-2.822q-.072-.44-.118-.906a9.03,9.03,0,0,1-.047-.907,8.292,8.292,0,0,1,.047-.86q.047-.451.118-1.016l-3.742-2.822,3.027-5.212,4.3,1.81a11.126,11.126,0,0,1,1.573-1.092,9,9,0,0,1,1.645-.752l.618-4.694h6.056l.587,4.725a9.248,9.248,0,0,1,1.649.752,11.191,11.191,0,0,1,1.475,1.061l4.423-1.81,3.027,5.212-3.867,2.915a4.213,4.213,0,0,1,.15.922q.015.419.015.828v.406q0,.188-.019.406h-1.7q.019-.218.028-.406t.009-.406a9.358,9.358,0,0,0-.09-1.25,9.69,9.69,0,0,0-.243-1.131l3.615-2.731-1.614-2.759-4.142,1.735a8.3,8.3,0,0,0-1.937-1.516,7.746,7.746,0,0,0-2.271-.938l-.5-4.4h-3.237l-.506,4.364a7.9,7.9,0,0,0-2.255.844,9.659,9.659,0,0,0-2.046,1.6l-4.048-1.7-1.614,2.759,3.521,2.628a5.318,5.318,0,0,0-.284,1.186,10.564,10.564,0,0,0-.081,1.33,9.273,9.273,0,0,0,.081,1.227,7.749,7.749,0,0,0,.253,1.186l-3.49,2.669,1.614,2.759,4.017-1.7a8.845,8.845,0,0,0,2.207,1.626,10.3,10.3,0,0,0,2.622.939v5.874Zm1.4-10.856v-1.882a2.382,2.382,0,0,1-.621-.818,2.419,2.419,0,0,1-.234-1.052,2.348,2.348,0,0,1,.71-1.724,2.348,2.348,0,0,1,1.725-.71,2.348,2.348,0,0,1,1.724.71,2.348,2.348,0,0,1,.71,1.724,1.915,1.915,0,0,1-.048.435,1.213,1.213,0,0,1-.155.376h1.739a2.189,2.189,0,0,0,.073-.4q.014-.183.014-.411a3.915,3.915,0,0,0-1.18-2.878,3.916,3.916,0,0,0-2.878-1.18,3.912,3.912,0,0,0-2.883,1.18,3.923,3.923,0,0,0-1.175,2.878,3.969,3.969,0,0,0,.679,2.269,4.008,4.008,0,0,0,1.8,1.483Z" transform="translate(322.69 3544.082)"></path></g></svg> 