<svg xmlns="http://www.w3.org/2000/svg" xmlns:xlink="http://www.w3.org/1999/xlink" width="64" height="64" viewBox="0 0 64 64"><defs><clipPath id="clip-path"><rect id="Rectangle_21165" data-name="Rectangle 21165" width="40.084" height="40.787" fill="#c8361a"></rect></clipPath></defs><g id="leverage_gpu_logo" transform="translate(-384 -1976)"><circle id="Ellipse_649" data-name="Ellipse 649" cx="32" cy="32" r="32" transform="translate(384 1976)" fill="rgba(200,54,26,0.2)"></circle><g id="Group_171244" data-name="Group 171244" transform="translate(396 1988)"><g id="Group_171243" data-name="Group 171243" transform="translate(0)" clip-path="url(#clip-path)"><path id="Path_108015" data-name="Path 108015" d="M1.432,20.633a1.436,1.436,0,0,0,1.386-1.086H9.657v1H7.282a.342.342,0,1,0,0,.683H9.657v1H6.217a1.432,1.432,0,1,0,0,.682h3.44v1H7.282a.342.342,0,1,0,0,.683H9.657v1H4.168a1.432,1.432,0,1,0,0,.682H9.646v.963a.353.353,0,0,0,.026.127.324.324,0,0,0,.071.112l2.869,2.869a.326.326,0,0,0,.112.071.379.379,0,0,0,.127.026h.958v2.38a.342.342,0,0,0,.683,0v-2.38h1v3.44a1.437,1.437,0,1,0,.682,0V30.447h1v2.38a.342.342,0,0,0,.683,0v-2.38h1v7.522a1.432,1.432,0,1,0,.682,0V30.438h1v2.38a.342.342,0,0,0,.683,0v-2.38h1v3.445a1.432,1.432,0,1,0,.682,0V30.438h1v2.38a.342.342,0,0,0,.683,0v-2.38h1v5.483a1.432,1.432,0,1,0,.682,0V30.438h.958a.353.353,0,0,0,.127-.026.323.323,0,0,0,.112-.071l2.869-2.869c.005-.005.005-.005.005-.01a.349.349,0,0,0,.066-.1.384.384,0,0,0,.026-.133v-.963h2.375a.342.342,0,1,0,0-.683H30.442v-1h3.44a1.437,1.437,0,1,0,0-.682H30.442v-1h2.375a.342.342,0,1,0,0-.683H30.442v-1h6.824a1.437,1.437,0,1,0,0-.682H30.433v-1h2.375a.342.342,0,1,0,0-.683H30.433v-1h3.44a1.432,1.432,0,1,0,0-.682h-3.44v-1h2.375a.342.342,0,1,0,0-.683H30.433v-1h5.478a1.432,1.432,0,1,0,0-.682H30.433v-.963a.354.354,0,0,0-.026-.127.323.323,0,0,0-.072-.112L27.467,9.728a.326.326,0,0,0-.112-.071.379.379,0,0,0-.127-.026h-.958V7.256a.342.342,0,0,0-.683,0V9.631H24.578V6.2a1.432,1.432,0,1,0-.682,0V9.631h-1V7.256a.342.342,0,0,0-.683,0V9.631h-1V2.818a1.432,1.432,0,1,0-.682,0V9.651h-1V7.277a.342.342,0,0,0-.683,0V9.651h-1V6.217a1.432,1.432,0,1,0-.682,0V9.651h-1V7.277a.342.342,0,0,0-.683,0V9.651h-1V4.158a1.421,1.421,0,1,0-.682.035V9.651h-.958a.353.353,0,0,0-.127.026.323.323,0,0,0-.112.071L9.729,12.617a.326.326,0,0,0-.071.112.379.379,0,0,0-.026.127v.963H7.257a.342.342,0,1,0,0,.683H9.632v1H6.192a1.434,1.434,0,1,0,0,.688H9.632v1H7.257a.342.342,0,1,0,0,.683H9.632v1H2.818a1.428,1.428,0,1,0-1.386,1.758Zm3.394,2.686a.749.749,0,1,1,.749-.749.75.75,0,0,1-.749.749M2.787,26.682a.749.749,0,1,1,.749-.749.75.75,0,0,1-.749.749M35.259,23.5a.749.749,0,1,1-.749.749.75.75,0,0,1,.749-.749m3.394-3.363a.749.749,0,1,1-.749.749.75.75,0,0,1,.749-.749m-3.394-3.363a.749.749,0,1,1-.749.749.75.75,0,0,1,.749-.749M37.3,13.417a.749.749,0,1,1-.749.749.75.75,0,0,1,.749-.749M16.587,35.263a.749.749,0,1,1-.749-.749.75.75,0,0,1,.749.749M19.95,39.34a.749.749,0,1,1-.749-.749.75.75,0,0,1,.749.749m3.363-4.077a.749.749,0,1,1-.749-.749.75.75,0,0,1,.749.749m3.358,2.044a.749.749,0,1,1-.749-.749.75.75,0,0,1,.749.749M23.487,4.836a.749.749,0,1,1,.754.749h-.01a.756.756,0,0,1-.744-.749m-3.353-3.4a.749.749,0,1,1,.749.749.75.75,0,0,1-.749-.749m-3.363,3.4a.749.749,0,1,1,.754.749h-.01a.756.756,0,0,1-.744-.749M13.345,2.792a.749.749,0,1,1,.749.749.75.75,0,0,1-.749-.749M10.329,13,13,10.329h1.141c.005,0,.01.005.015.005s.01-.005.015-.005h1.656c.005,0,.01.005.015.005s.01-.005.015-.005h1.646c.005,0,.01.005.015.005s.01-.005.015-.005h1.646s.01.005.015.005.01-.005.015-.005h1.656s.01.005.015.005.01-.005.015-.005h1.646s.01.005.015.005.01-.005.015-.005h1.646s.01.005.015.005.01-.005.015-.005h1.656s.01.005.015.005.01-.005.015-.005h1.141L29.76,13v14.08L27.084,29.76H13l-2.675-2.675Zm-5.5,3.582a.749.749,0,1,1,.749-.749.75.75,0,0,1-.749.749M1.431,18.452a.749.749,0,1,1-.754.749.75.75,0,0,1,.754-.749" fill="#c8361a"></path></g></g><g id="Group_171270" data-name="Group 171270" transform="translate(396 1988)"><g id="Group_171243-2" data-name="Group 171243" transform="translate(0)" clip-path="url(#clip-path)"><path id="Path_108015-2" data-name="Path 108015" d="M1.432,20.633a1.436,1.436,0,0,0,1.386-1.086H9.657v1H7.282a.342.342,0,1,0,0,.683H9.657v1H6.217a1.432,1.432,0,1,0,0,.682h3.44v1H7.282a.342.342,0,1,0,0,.683H9.657v1H4.168a1.432,1.432,0,1,0,0,.682H9.646v.963a.353.353,0,0,0,.026.127.324.324,0,0,0,.071.112l2.869,2.869a.326.326,0,0,0,.112.071.379.379,0,0,0,.127.026h.958v2.38a.342.342,0,0,0,.683,0v-2.38h1v3.44a1.437,1.437,0,1,0,.682,0V30.447h1v2.38a.342.342,0,0,0,.683,0v-2.38h1v7.522a1.432,1.432,0,1,0,.682,0V30.438h1v2.38a.342.342,0,0,0,.683,0v-2.38h1v3.445a1.432,1.432,0,1,0,.682,0V30.438h1v2.38a.342.342,0,0,0,.683,0v-2.38h1v5.483a1.432,1.432,0,1,0,.682,0V30.438h.958a.353.353,0,0,0,.127-.026.323.323,0,0,0,.112-.071l2.869-2.869c.005-.005.005-.005.005-.01a.349.349,0,0,0,.066-.1.384.384,0,0,0,.026-.133v-.963h2.375a.342.342,0,1,0,0-.683H30.442v-1h3.44a1.437,1.437,0,1,0,0-.682H30.442v-1h2.375a.342.342,0,1,0,0-.683H30.442v-1h6.824a1.437,1.437,0,1,0,0-.682H30.433v-1h2.375a.342.342,0,1,0,0-.683H30.433v-1h3.44a1.432,1.432,0,1,0,0-.682h-3.44v-1h2.375a.342.342,0,1,0,0-.683H30.433v-1h5.478a1.432,1.432,0,1,0,0-.682H30.433v-.963a.354.354,0,0,0-.026-.127.323.323,0,0,0-.072-.112L27.467,9.728a.326.326,0,0,0-.112-.071.379.379,0,0,0-.127-.026h-.958V7.256a.342.342,0,0,0-.683,0V9.631H24.578V6.2a1.432,1.432,0,1,0-.682,0V9.631h-1V7.256a.342.342,0,0,0-.683,0V9.631h-1V2.818a1.432,1.432,0,1,0-.682,0V9.651h-1V7.277a.342.342,0,0,0-.683,0V9.651h-1V6.217a1.432,1.432,0,1,0-.682,0V9.651h-1V7.277a.342.342,0,0,0-.683,0V9.651h-1V4.158a1.421,1.421,0,1,0-.682.035V9.651h-.958a.353.353,0,0,0-.127.026.323.323,0,0,0-.112.071L9.729,12.617a.326.326,0,0,0-.071.112.379.379,0,0,0-.026.127v.963H7.257a.342.342,0,1,0,0,.683H9.632v1H6.192a1.434,1.434,0,1,0,0,.688H9.632v1H7.257a.342.342,0,1,0,0,.683H9.632v1H2.818a1.428,1.428,0,1,0-1.386,1.758Zm3.394,2.686a.749.749,0,1,1,.749-.749.75.75,0,0,1-.749.749M2.787,26.682a.749.749,0,1,1,.749-.749.75.75,0,0,1-.749.749M35.259,23.5a.749.749,0,1,1-.749.749.75.75,0,0,1,.749-.749m3.394-3.363a.749.749,0,1,1-.749.749.75.75,0,0,1,.749-.749m-3.394-3.363a.749.749,0,1,1-.749.749.75.75,0,0,1,.749-.749M37.3,13.417a.749.749,0,1,1-.749.749.75.75,0,0,1,.749-.749M16.587,35.263a.749.749,0,1,1-.749-.749.75.75,0,0,1,.749.749M19.95,39.34a.749.749,0,1,1-.749-.749.75.75,0,0,1,.749.749m3.363-4.077a.749.749,0,1,1-.749-.749.75.75,0,0,1,.749.749m3.358,2.044a.749.749,0,1,1-.749-.749.75.75,0,0,1,.749.749M23.487,4.836a.749.749,0,1,1,.754.749h-.01a.756.756,0,0,1-.744-.749m-3.353-3.4a.749.749,0,1,1,.749.749.75.75,0,0,1-.749-.749m-3.363,3.4a.749.749,0,1,1,.754.749h-.01a.756.756,0,0,1-.744-.749M13.345,2.792a.749.749,0,1,1,.749.749.75.75,0,0,1-.749-.749M10.329,13,13,10.329h1.141c.005,0,.01.005.015.005s.01-.005.015-.005h1.656c.005,0,.01.005.015.005s.01-.005.015-.005h1.646c.005,0,.01.005.015.005s.01-.005.015-.005h1.646s.01.005.015.005.01-.005.015-.005h1.656s.01.005.015.005.01-.005.015-.005h1.646s.01.005.015.005.01-.005.015-.005h1.646s.01.005.015.005.01-.005.015-.005h1.656s.01.005.015.005.01-.005.015-.005h1.141L29.76,13v14.08L27.084,29.76H13l-2.675-2.675Zm-5.5,3.582a.749.749,0,1,1,.749-.749.75.75,0,0,1-.749.749M1.431,18.452a.749.749,0,1,1-.754.749.75.75,0,0,1,.754-.749" fill="#c8361a"></path></g></g></g></svg>