<svg xmlns="http://www.w3.org/2000/svg" id="multi-user-capabilities" width="64" height="64" viewBox="0 0 64 64"><circle id="Ellipse_649" data-name="Ellipse 649" cx="32" cy="32" r="32" fill="rgba(255,255,255,0)"></circle><path id="Path_146240" data-name="Path 146240" d="M44.727,34.34A7.771,7.771,0,1,0,32.1,25.449a9.758,9.758,0,0,0-1.111-.079,10.46,10.46,0,0,0-1.111.079A7.773,7.773,0,1,0,17.259,34.34a8.858,8.858,0,0,0-5.359,8.1v4.684a.983.983,0,0,0,.992.992h6.946v2.977a.983.983,0,0,0,.992.992H41.154a.983.983,0,0,0,.992-.992V48.114h6.946a.983.983,0,0,0,.992-.992V42.438a8.713,8.713,0,0,0-5.357-8.1ZM48.1,46.129H42.147a8.809,8.809,0,0,0-5.359-7.82A7.268,7.268,0,0,0,37.82,36.88a9.757,9.757,0,0,0,1.111.079,7.631,7.631,0,0,0,4.009-1.151A6.8,6.8,0,0,1,48.1,42.4ZM21.823,50.1V46.407a6.77,6.77,0,0,1,5.16-6.589,7.738,7.738,0,0,0,4.009,1.151A7.631,7.631,0,0,0,35,39.818a6.8,6.8,0,0,1,5.16,6.589V50.1Zm-7.939-7.661a6.77,6.77,0,0,1,5.16-6.589A7.738,7.738,0,0,0,23.054,37a10.461,10.461,0,0,0,1.111-.079A7.269,7.269,0,0,0,25.2,38.349a8.876,8.876,0,0,0-5.359,7.82H13.885V42.438ZM17.259,29.18A5.792,5.792,0,0,1,27.9,26a7.791,7.791,0,0,0-4.684,7.145,6.982,6.982,0,0,0,.238,1.826H23.1a5.811,5.811,0,0,1-5.838-5.791Zm21.673-5.835a5.815,5.815,0,1,1,0,11.63h-.357a6.982,6.982,0,0,0,.238-1.826A7.833,7.833,0,0,0,34.128,26a5.671,5.671,0,0,1,4.8-2.655Zm-2.143,9.8a5.8,5.8,0,1,1-5.8-5.8,5.8,5.8,0,0,1,5.8,5.8Z" transform="translate(1.007 -4.742)"></path></svg>