<?xml version="1.0" encoding="UTF-8"?> <svg xmlns="http://www.w3.org/2000/svg" width="64" height="64" viewBox="0 0 64 64"><g id="no-services" transform="translate(-519 -105.713)"><circle id="Ellipse_649" data-name="Ellipse 649" cx="32" cy="32" r="32" transform="translate(519 105.713)" fill="rgba(0,0,0,0)"></circle><path id="hub_24dp_5F6368_FILL0_wght200_GRAD0_opsz24" d="M28.667-905.347a3.806,3.806,0,0,1-2.79-1.147,3.788,3.788,0,0,1-1.151-2.787,3.8,3.8,0,0,1,1.149-2.79,3.8,3.8,0,0,1,2.79-1.151,3.759,3.759,0,0,1,.962.133,4.485,4.485,0,0,1,.936.361l4-4.977a4.869,4.869,0,0,1-1.172-2.029,4.972,4.972,0,0,1-.106-2.254L27.4-923.931a4.032,4.032,0,0,1-1.429,1.484,3.8,3.8,0,0,1-2.033.56,3.8,3.8,0,0,1-2.789-1.147A3.792,3.792,0,0,1,20-925.82a3.806,3.806,0,0,1,1.147-2.79,3.789,3.789,0,0,1,2.787-1.151,3.8,3.8,0,0,1,2.79,1.149,3.792,3.792,0,0,1,1.151,2.789,2.425,2.425,0,0,1-.015.309,1.559,1.559,0,0,0-.015.218l5.855,2.042a5.251,5.251,0,0,1,1.471-1.736,4.913,4.913,0,0,1,2.246-.957v-6.243a3.763,3.763,0,0,1-2.373-1.4,3.955,3.955,0,0,1-.868-2.483,3.787,3.787,0,0,1,1.147-2.774A3.788,3.788,0,0,1,38.11-940a3.8,3.8,0,0,1,2.79,1.149,3.793,3.793,0,0,1,1.151,2.789,3.925,3.925,0,0,1-.872,2.47,3.777,3.777,0,0,1-2.369,1.4v6.243a4.812,4.812,0,0,1,2.231.957,5.69,5.69,0,0,1,1.486,1.736l5.855-2.042a1.127,1.127,0,0,1-.03-.233v-.294a3.8,3.8,0,0,1,1.147-2.789,3.792,3.792,0,0,1,2.787-1.149,3.806,3.806,0,0,1,2.79,1.147,3.788,3.788,0,0,1,1.151,2.787,3.8,3.8,0,0,1-1.149,2.79,3.793,3.793,0,0,1-2.789,1.151,3.835,3.835,0,0,1-2.033-.56,3.939,3.939,0,0,1-1.429-1.484l-5.885,1.941a4.948,4.948,0,0,1-.106,2.249,4.715,4.715,0,0,1-1.172,2l4,4.968a5.665,5.665,0,0,1,.936-.326,3.881,3.881,0,0,1,.962-.129,3.8,3.8,0,0,1,2.79,1.147A3.792,3.792,0,0,1,51.5-909.3a3.806,3.806,0,0,1-1.147,2.79,3.788,3.788,0,0,1-2.787,1.151,3.8,3.8,0,0,1-2.79-1.149,3.793,3.793,0,0,1-1.151-2.789,4.094,4.094,0,0,1,.226-1.352,3.4,3.4,0,0,1,.75-1.21l-4-5.037a4.446,4.446,0,0,1-2.476.694,4.6,4.6,0,0,1-2.506-.694l-3.993,5.037a3.843,3.843,0,0,1,.734,1.21,3.858,3.858,0,0,1,.241,1.352,3.8,3.8,0,0,1-1.147,2.789,3.793,3.793,0,0,1-2.788,1.156Zm-4.729-18.114a2.276,2.276,0,0,0,1.668-.695,2.275,2.275,0,0,0,.7-1.668,2.275,2.275,0,0,0-.7-1.668,2.276,2.276,0,0,0-1.668-.7,2.276,2.276,0,0,0-1.668.7,2.275,2.275,0,0,0-.7,1.668,2.275,2.275,0,0,0,.7,1.668,2.276,2.276,0,0,0,1.668.7Zm4.725,16.539a2.276,2.276,0,0,0,1.668-.695,2.276,2.276,0,0,0,.7-1.668,2.275,2.275,0,0,0-.7-1.668,2.275,2.275,0,0,0-1.668-.7,2.275,2.275,0,0,0-1.668.7,2.275,2.275,0,0,0-.7,1.668,2.276,2.276,0,0,0,.7,1.668,2.276,2.276,0,0,0,1.668.7ZM38.114-933.7a2.275,2.275,0,0,0,1.668-.7,2.275,2.275,0,0,0,.7-1.667,2.275,2.275,0,0,0-.7-1.668,2.275,2.275,0,0,0-1.668-.7,2.275,2.275,0,0,0-1.668.7,2.275,2.275,0,0,0-.7,1.668,2.275,2.275,0,0,0,.7,1.667,2.275,2.275,0,0,0,1.668.7Zm0,15.933a3.211,3.211,0,0,0,2.357-.975,3.211,3.211,0,0,0,.975-2.357,3.211,3.211,0,0,0-.975-2.357,3.21,3.21,0,0,0-2.357-.975,3.21,3.21,0,0,0-2.357.975,3.211,3.211,0,0,0-.975,2.357,3.211,3.211,0,0,0,.975,2.357,3.211,3.211,0,0,0,2.357.976Zm9.451,10.844a2.276,2.276,0,0,0,1.668-.695,2.276,2.276,0,0,0,.7-1.668,2.275,2.275,0,0,0-.7-1.668,2.275,2.275,0,0,0-1.668-.7,2.275,2.275,0,0,0-1.668.7,2.275,2.275,0,0,0-.7,1.668,2.276,2.276,0,0,0,.7,1.668,2.276,2.276,0,0,0,1.668.7Zm4.725-16.539a2.276,2.276,0,0,0,1.668-.695,2.275,2.275,0,0,0,.7-1.668,2.275,2.275,0,0,0-.7-1.668,2.277,2.277,0,0,0-1.668-.7,2.277,2.277,0,0,0-1.668.7,2.275,2.275,0,0,0-.7,1.668,2.275,2.275,0,0,0,.7,1.668,2.276,2.276,0,0,0,1.668.7ZM38.114-936.062ZM23.938-925.824ZM38.114-921.1ZM52.29-925.824ZM28.663-909.285ZM47.565-909.285Z" transform="translate(513 1060.713)"></path></g></svg> 