<svg xmlns="http://www.w3.org/2000/svg" id="pricing-plans" width="64" height="64" viewBox="0 0 64 64"><circle id="Ellipse_649" data-name="Ellipse 649" cx="32" cy="32" r="32" fill="rgba(255,255,255,0)"></circle><g id="Group_177106" data-name="Group 177106" transform="translate(-691.007 -463.702)"><g id="Group_177105" data-name="Group 177105" transform="translate(706.007 478.702)"><g id="Group_177104" data-name="Group 177104"><path id="Path_145262" data-name="Path 145262" d="M737.844,482.253h-2.782v-1.388A2.166,2.166,0,0,0,732.9,478.7H713.116a2.166,2.166,0,0,0-2.164,2.164v1.388H708.17a2.166,2.166,0,0,0-2.164,2.164V507.24a2.166,2.166,0,0,0,2.164,2.164h2.782v1.134a2.166,2.166,0,0,0,2.164,2.164H732.9a2.166,2.166,0,0,0,2.164-2.164V509.4h2.782a2.166,2.166,0,0,0,2.164-2.164V484.417a2.166,2.166,0,0,0-2.166-2.164Zm-29.673,26.121a1.135,1.135,0,0,1-1.133-1.133V484.417a1.135,1.135,0,0,1,1.133-1.133h2.782v25.09Zm25.861,2.164a1.135,1.135,0,0,1-1.133,1.133H713.116a1.135,1.135,0,0,1-1.133-1.133V480.866a1.135,1.135,0,0,1,1.133-1.133H732.9a1.135,1.135,0,0,1,1.133,1.133v29.673Zm4.945-3.3a1.135,1.135,0,0,1-1.133,1.133h-2.782v-25.09h2.782a1.135,1.135,0,0,1,1.133,1.133Z" transform="translate(-706.007 -478.702)" stroke="#000" stroke-width="0.5"></path><path id="Path_145263" data-name="Path 145263" d="M967.732,597.576a.642.642,0,0,0-1.283,0c0,2.432,2.25,4.44,5.134,4.7v3.486a.642.642,0,0,0,1.283,0v-3.486c2.883-.263,5.134-2.271,5.134-4.7s-2.25-4.44-5.134-4.7v-6.89c2.171.242,3.85,1.669,3.85,3.4a.642.642,0,0,0,1.283,0c0-2.432-2.25-4.44-5.133-4.7V581.2a.642.642,0,0,0-1.284,0v3.486c-2.884.263-5.134,2.271-5.134,4.7s2.25,4.441,5.134,4.7v6.89C969.411,600.739,967.732,599.313,967.732,597.576Zm8.984,0c0,1.736-1.679,3.163-3.85,3.4v-6.809c2.172.247,3.851,1.673,3.851,3.409Zm-8.984-8.189c0-1.736,1.679-3.163,3.851-3.4v6.81c-2.172-.247-3.851-1.673-3.851-3.409Z" transform="translate(-955.225 -576.154)" stroke="#000" stroke-width="0.5"></path></g></g></g></svg>