<svg xmlns="http://www.w3.org/2000/svg" width="64" height="64" viewBox="0 0 64 64"><g id="proactive-monitoring-icon" transform="translate(-323 -300)"><circle id="Ellipse_649" data-name="Ellipse 649" cx="32" cy="32" r="32" transform="translate(323 300)" fill="rgba(255,255,255,0)"></circle><path id="screen_search_desktop_FILL0_wght200_GRAD0_opsz24" d="M96.693-761.808l1.19-1.168-4.558-4.558a6.2,6.2,0,0,0,.733-1.5,5.686,5.686,0,0,0,.22-1.684,5.168,5.168,0,0,0-1.575-3.811,5.2,5.2,0,0,0-3.8-1.564,5.2,5.2,0,0,0-3.8,1.564,5.168,5.168,0,0,0-1.575,3.811,5.168,5.168,0,0,0,1.575,3.811,5.2,5.2,0,0,0,3.8,1.564,5.056,5.056,0,0,0,1.7-.256,8.527,8.527,0,0,0,1.557-.769ZM88.9-766.99a3.589,3.589,0,0,1-2.632-1.095,3.589,3.589,0,0,1-1.095-2.632,3.589,3.589,0,0,1,1.095-2.632,3.589,3.589,0,0,1,2.632-1.095,3.594,3.594,0,0,1,2.627,1.095,3.58,3.58,0,0,1,1.1,2.632,3.589,3.589,0,0,1-1.095,2.632A3.589,3.589,0,0,1,88.9-766.99Zm-12.829,9.676a2.916,2.916,0,0,1-2.148-.862,2.916,2.916,0,0,1-.862-2.148v-18.2a2.916,2.916,0,0,1,.862-2.148,2.916,2.916,0,0,1,2.148-.862h27.522a2.916,2.916,0,0,1,2.148.862,2.916,2.916,0,0,1,.862,2.148v18.2a2.916,2.916,0,0,1-.862,2.148,2.916,2.916,0,0,1-2.148.862Zm0-1.863h27.522a1.1,1.1,0,0,0,.788-.358,1.1,1.1,0,0,0,.358-.788v-18.2a1.1,1.1,0,0,0-.358-.788,1.1,1.1,0,0,0-.788-.358H76.073a1.1,1.1,0,0,0-.788.358,1.1,1.1,0,0,0-.358.788v18.2a1.1,1.1,0,0,0,.358.788A1.1,1.1,0,0,0,76.073-759.178Zm-1.147,0v0Zm-4.157,5.59v-1.863H108.9v1.863Z" transform="translate(265.231 1099.539)"></path></g></svg>