<svg xmlns="http://www.w3.org/2000/svg" xmlns:xlink="http://www.w3.org/1999/xlink" width="64" height="64" viewBox="0 0 64 64"><defs><clipPath id="clip-path"><rect id="Rectangle_21168" data-name="Rectangle 21168" width="35.01" height="33.118" fill="#a97ce5"></rect></clipPath></defs><g id="resiliency_logo" transform="translate(-960 -1975)"><circle id="Ellipse_649" data-name="Ellipse 649" cx="32" cy="32" r="32" transform="translate(960 1975)" fill="rgba(169,124,229,0.2)"></circle><g id="Group_171250" data-name="Group 171250" transform="translate(974.704 1990.667)"><g id="Group_171249" data-name="Group 171249" transform="translate(0)" clip-path="url(#clip-path)"><path id="Path_108018" data-name="Path 108018" d="M32.1,32.73H2.022A2.022,2.022,0,0,1,0,30.708V2.022A2.022,2.022,0,0,1,2.022,0H32.1A2.022,2.022,0,0,1,34.12,2.022V30.708A2.022,2.022,0,0,1,32.1,32.73M2.022,1.327a.7.7,0,0,0-.632.695V30.708a.7.7,0,0,0,.7.695H32.1a.7.7,0,0,0,.695-.695V2.022a.7.7,0,0,0-.695-.695Zm17.06,31.4H0V14.974H19.082ZM1.39,31.4H17.755V16.365H1.39Z" transform="translate(0.443 0.193)" fill="#a97ce5"></path><path id="Path_108019" data-name="Path 108019" d="M54.634,22.677h-.063l-.885.253-6.634,1.706a.316.316,0,0,0-.126.506l2.211,2.211L28.6,47.066,26.58,44.791a.316.316,0,0,0-.506.126l-2.148,6.7-.253.758a.316.316,0,0,0,.316.379l.695-.126,6.95-1.453h0a.316.316,0,0,0,.126-.505l-2.338-2.654,20.6-19.777,2.4,2.464a.316.316,0,0,0,.505-.126l1.9-6.95.126-.506h0a.316.316,0,0,0-.316-.442Z" transform="translate(-21.841 -21.157)" fill="#a97ce5"></path></g></g></g></svg>