<?xml version="1.0" encoding="UTF-8"?> <svg xmlns="http://www.w3.org/2000/svg" xmlns:xlink="http://www.w3.org/1999/xlink" width="64" height="64" viewBox="0 0 64 64"><defs><clipPath id="clip-path"><rect id="Rectangle_21168" data-name="Rectangle 21168" width="28.347" height="26.815" stroke="#000" stroke-width="0.5"></rect></clipPath></defs><g id="scalability" transform="translate(-960 -1975)"><circle id="Ellipse_649" data-name="Ellipse 649" cx="32" cy="32" r="32" transform="translate(960 1975)" fill="rgba(255,255,255,0)"></circle><g id="Group_171250" data-name="Group 171250" transform="translate(978.035 1993.818)"><g id="Group_171249" data-name="Group 171249" clip-path="url(#clip-path)"><path id="Path_108018" data-name="Path 108018" d="M25.991,26.5H1.637A1.637,1.637,0,0,1,0,24.864V1.637A1.637,1.637,0,0,1,1.637,0H25.991a1.637,1.637,0,0,1,1.636,1.637V24.864A1.637,1.637,0,0,1,25.991,26.5M1.637,1.074a.567.567,0,0,0-.512.563V24.864a.567.567,0,0,0,.567.563h24.3a.567.567,0,0,0,.563-.563V1.637a.567.567,0,0,0-.563-.563ZM15.451,26.5H0V12.124H15.451ZM1.125,25.424H14.376V13.251H1.125Z" transform="translate(0.359 0.156)" stroke="#000" stroke-width="0.5"></path><path id="Path_108019" data-name="Path 108019" d="M48.741,22.677H48.69l-.717.2L42.6,24.263a.256.256,0,0,0-.1.41l1.79,1.79L27.661,42.425l-1.636-1.842a.256.256,0,0,0-.41.1L23.877,46.11l-.2.614a.256.256,0,0,0,.256.307l.563-.1,5.627-1.176h0a.256.256,0,0,0,.1-.409l-1.893-2.149,16.68-16.013,1.943,2a.256.256,0,0,0,.409-.1L48.9,23.446l.1-.41h0a.256.256,0,0,0-.256-.358Z" transform="translate(-22.188 -21.446)" stroke="#000" stroke-width="0.5"></path></g></g></g></svg> 