<?xml version="1.0" encoding="UTF-8"?> <svg xmlns="http://www.w3.org/2000/svg" width="64" height="64" viewBox="0 0 64 64"><g id="security" transform="translate(-998 -1916)"><path id="Path_146414" data-name="Path 146414" d="M32,0A32,32,0,1,1,0,32,32,32,0,0,1,32,0Z" transform="translate(998 1916)" fill="rgba(255,255,255,0)"></path><g id="noun-security-4025249" transform="translate(874.002 1905.668)"><path id="Path_145835" data-name="Path 145835" d="M147.083,23.332a.886.886,0,0,0-.885.886,5.347,5.347,0,0,1-5.314,5.407.886.886,0,0,0-.886.886V36.8c0,9.878,3.89,16.3,7.789,20.17a23.662,23.662,0,0,0,7.858,5.276h0a.886.886,0,0,0,.588,0,23.663,23.663,0,0,0,7.858-5.276c3.9-3.874,7.789-10.292,7.789-20.17V30.51h0a.886.886,0,0,0-.886-.886,5.347,5.347,0,0,1-5.314-5.407.885.885,0,0,0-.885-.886Zm.709,1.771h16.294a6.992,6.992,0,0,0,6.023,6.111V36.8c0,9.418-3.638,15.306-7.266,18.912a20.642,20.642,0,0,1-6.9,4.72,20.642,20.642,0,0,1-6.9-4.72c-3.629-3.606-7.266-9.495-7.266-18.912V31.214a6.992,6.992,0,0,0,6.023-6.111Z" transform="translate(0)"></path><path id="Path_145836" data-name="Path 145836" d="M231.411,128.33a9.741,9.741,0,1,0,9.741,9.741A9.755,9.755,0,0,0,231.411,128.33Zm0,1.771a7.97,7.97,0,1,1-7.97,7.97A7.957,7.957,0,0,1,231.411,130.1Z" transform="translate(-75.472 -97.028)"></path><path id="Path_145837" data-name="Path 145837" d="M293.044,210.122l-4.136,4.624-2.733-2.674a.885.885,0,0,0-1.238,1.266l3.394,3.321a.886.886,0,0,0,1.28-.043l4.753-5.314a.886.886,0,0,0-.069-1.251.855.855,0,0,0-1.25.071Z" transform="translate(-133.691 -172.325)"></path></g></g></svg> 