<svg xmlns="http://www.w3.org/2000/svg" xmlns:xlink="http://www.w3.org/1999/xlink" width="64" height="64" viewBox="0 0 64 64"><defs><clipPath id="clip-path"><rect id="Rectangle_21166" data-name="Rectangle 21166" width="37.305" height="37.305" fill="#0da2a1"></rect></clipPath></defs><g id="simplify_logo" transform="translate(-667 -1975)"><circle id="Ellipse_649" data-name="Ellipse 649" cx="32" cy="32" r="32" transform="translate(667 1975)" fill="rgba(13,162,161,0.2)"></circle><g id="Group_171283" data-name="Group 171283" transform="translate(680 1988)"><g id="Group_171245" data-name="Group 171245" clip-path="url(#clip-path)"><path id="Path_108016" data-name="Path 108016" d="M31.89,8.424a5.44,5.44,0,0,0-.753.058,10.222,10.222,0,0,0-19.5-2.221A4.206,4.206,0,0,0,6.386,8.512a5.415,5.415,0,1,0-.97,10.742h.6V37.3h21.66V36.1H7.221V20.457H23.175v-1.2H7.221v-3.61h21.66v3.189h.6v.421H31.89a5.415,5.415,0,0,0,0-10.831Zm0,9.627H30.085V14.44H6.017v3.61h-.6a4.212,4.212,0,1,1,4.179-4.739l1.194-.149A5.411,5.411,0,0,0,7.55,8.868a3,3,0,0,1,4.133-1.273l.624.346.234-.674h0A9.015,9.015,0,0,1,29.959,8.779a5.4,5.4,0,0,0-1.652,1l.8.9h0a4.211,4.211,0,1,1,2.785,7.37Zm-23.466-1.2h1.2v1.2h-1.2Zm2.407,1.2v-1.2h1.2v1.2Zm2.407-1.2h1.2v1.2h-1.2Zm7.22,6.017H9.627v10.83H21.542v1.2H8.424V21.66H20.457Zm-3.61,2.407H10.831v-1.2h6.017Zm0,2.407H10.831v-1.2h6.017Zm0,2.407H10.831v-1.2h6.017Zm-6.017,1.2h6.017v1.2H10.831Zm16.847-5.415a1.808,1.808,0,1,0,1.276.529A1.805,1.805,0,0,0,27.678,25.872Zm0,2.407h0a.6.6,0,1,1,.6-.6.6.6,0,0,1-.6.6Zm0-4.814h0A4.216,4.216,0,1,0,30.655,24.7a4.212,4.212,0,0,0-2.977-1.235Zm0,7.22h0A3.011,3.011,0,1,1,29.8,29.8a3.008,3.008,0,0,1-2.126.882Zm0,3.008v1.2a7.228,7.228,0,0,1-7.22-7.22h1.2a6.024,6.024,0,0,0,6.017,6.017Z" transform="translate(0 0)" fill="#0da2a1"></path></g></g></g></svg>