<svg xmlns="http://www.w3.org/2000/svg" width="101.054" height="16.218" viewBox="0 0 101.054 16.218"><g id="star" transform="translate(-390.001 -747.068)"><path id="Path_37063" data-name="Path 37063" d="M8.839,0l2.755,5.1,5.6,1.1-3.9,4.248L14,16.216,8.839,13.745,3.673,16.216l.708-5.775L.481,6.194l5.6-1.1L8.839,0" transform="translate(389.52 747.07)" fill="#ff5722" fill-rule="evenodd"></path><path id="Path_37064" data-name="Path 37064" d="M8.839,0l2.755,5.1,5.6,1.1-3.9,4.248L14,16.216,8.839,13.745,3.673,16.216l.708-5.775L.481,6.194l5.6-1.1L8.839,0" transform="translate(410.604 747.07)" fill="#ff5722" fill-rule="evenodd"></path><path id="Path_37065" data-name="Path 37065" d="M8.839,0l2.755,5.1,5.6,1.1-3.9,4.248L14,16.216,8.839,13.745,3.673,16.216l.708-5.775L.481,6.194l5.6-1.1L8.839,0" transform="translate(431.688 747.07)" fill="#ff5722" fill-rule="evenodd"></path><path id="Path_37066" data-name="Path 37066" d="M8.839,0l2.755,5.1,5.6,1.1-3.9,4.248L14,16.216,8.839,13.745,3.673,16.216l.708-5.775L.481,6.194l5.6-1.1L8.839,0" transform="translate(452.773 747.07)" fill="#ff5722" fill-rule="evenodd"></path><path id="Path_37067" data-name="Path 37067" d="M8.839,0l2.755,5.1,5.6,1.1-3.9,4.248L14,16.216,8.839,13.745,3.673,16.216l.708-5.775L.481,6.194l5.6-1.1L8.839,0" transform="translate(473.858 747.07)" fill="#ff5722" fill-rule="evenodd"></path></g></svg>