<svg xmlns="http://www.w3.org/2000/svg" width="416.9" height="78.123" viewBox="0 0 416.9 78.123"><g id="Logo_ace_citirix" transform="translate(-1025.41 -1369.852)"><g id="ace-cloud-logo-dark" transform="translate(1026 1370)"><path id="Path_4" data-name="Path 4" d="M5.078,136.224v-56h66.3v52.2L54.979,121.2,36.6,83.383,8.868,136.109Z" transform="translate(-4.253 -65.957)" fill="#c8361a"></path><path id="Path_20" data-name="Path 20" d="M23328,504.3s28.594-36.435,31.078-69.895l.217-1.409,1,3.211a174.533,174.533,0,0,0,15.639,36.856,125.557,125.557,0,0,1,48.762-8.682s-20.4.142-47.268,11.209c6.049,9.965,13.76,19.669,23.221,26.166,0,0-2.789,4.385-4.619,5.121,0,0-15.936-7.372-28.184-26.978a168.071,168.071,0,0,0-18.518,10.543c-3.926,7.253-8.957,14.569-15.145,19.889C23334.182,510.332,23329.15,506.565,23328,504.3Zm24.248-19.645a149.158,149.158,0,0,1,13.977-7.463,86.491,86.491,0,0,1-6.186-13.3A135.325,135.325,0,0,1,23352.248,484.658Z" transform="translate(-23328 -432.998)" fill="#3c3c3c" stroke="rgba(0,0,0,0)" stroke-width="1"></path><path id="Path_19" data-name="Path 19" d="M23393.016,490.795a2.78,2.78,0,0,1-1.061-2.277c0-.117.01-.274.016-.477l3.5.4a1.1,1.1,0,0,0,.406.673,1.731,1.731,0,0,0,.994.274,1.54,1.54,0,0,0,1.168-.415,2.129,2.129,0,0,0,.381-1.455v-1.424a3.673,3.673,0,0,1-1.053.916,3.842,3.842,0,0,1-1.8.438,3.569,3.569,0,0,1-3.045-1.643,5.264,5.264,0,0,1-.82-3.091,4.739,4.739,0,0,1,1.064-3.341,3.6,3.6,0,0,1,2.775-1.15,3.892,3.892,0,0,1,1.813.376,3.852,3.852,0,0,1,1.324,1.228v-1.393h3.377v8.873l.008.415a3.981,3.981,0,0,1-.375,1.69,3.593,3.593,0,0,1-1,1.291,3.853,3.853,0,0,1-1.582.72,9.788,9.788,0,0,1-2.2.219C23395.018,491.64,23393.717,491.358,23393.016,490.795Zm2.689-9.468a2.659,2.659,0,0,0-.416,1.659,2.276,2.276,0,0,0,.432,1.51,1.536,1.536,0,0,0,2.27-.016,2.215,2.215,0,0,0,.463-1.534,2.325,2.325,0,0,0-.48-1.573,1.51,1.51,0,0,0-1.176-.54A1.351,1.351,0,0,0,23395.705,481.327Zm-27.738,6.369a2.088,2.088,0,0,1-.945-1.049,6.178,6.178,0,0,1-.3-2.277v-3.3h-1.324v-2.637h1.324V476.71l3.613-1.854v3.576h1.977v2.637h-1.977V484.4a1.776,1.776,0,0,0,.105.79.668.668,0,0,0,.629.3,3.776,3.776,0,0,0,1.109-.227l.27,2.488a11.688,11.688,0,0,1-2.5.29A4.361,4.361,0,0,1,23367.967,487.7Zm-12.283-.391a3.26,3.26,0,0,1-1.4-2.089l3.568-.336a1.8,1.8,0,0,0,.623.915,1.865,1.865,0,0,0,1.061.274,1.788,1.788,0,0,0,1.127-.313.691.691,0,0,0,.309-.571.665.665,0,0,0-.412-.6,7.448,7.448,0,0,0-1.543-.368,16.332,16.332,0,0,1-2.613-.61,2.735,2.735,0,0,1-1.227-.939,2.481,2.481,0,0,1-.5-1.51,2.429,2.429,0,0,1,.547-1.6,3.186,3.186,0,0,1,1.479-1.009,7.964,7.964,0,0,1,2.539-.329,8.671,8.671,0,0,1,2.48.258,3.251,3.251,0,0,1,1.338.8,4.107,4.107,0,0,1,.883,1.455l-3.41.336a1.133,1.133,0,0,0-.445-.665,1.809,1.809,0,0,0-1.025-.282,1.384,1.384,0,0,0-.881.219.64.64,0,0,0-.285.524.567.567,0,0,0,.355.524,5.722,5.722,0,0,0,1.541.313,10.777,10.777,0,0,1,2.674.571,2.9,2.9,0,0,1,1.34,1.033,2.593,2.593,0,0,1,.463,1.471,2.889,2.889,0,0,1-.494,1.581,3.34,3.34,0,0,1-1.545,1.228,7.441,7.441,0,0,1-2.889.454A6.775,6.775,0,0,1,23355.684,487.305Zm-11.578-.415a4.6,4.6,0,0,1-1.719-3.732,4.7,4.7,0,0,1,1.457-3.545,6.289,6.289,0,0,1,8.178.242,5.124,5.124,0,0,1-.275,6.8,5.5,5.5,0,0,1-3.98,1.385A5.583,5.583,0,0,1,23344.105,486.89Zm2.4-5.587a3.6,3.6,0,0,0,0,3.7,1.615,1.615,0,0,0,1.281.6,1.582,1.582,0,0,0,1.275-.595,2.9,2.9,0,0,0,.5-1.9,2.8,2.8,0,0,0-.5-1.815,1.568,1.568,0,0,0-1.254-.595A1.623,1.623,0,0,0,23346.51,481.3Zm39.859,6.526v-5.164a1.914,1.914,0,0,0-.318-1.252,1.158,1.158,0,0,0-.922-.368,1.328,1.328,0,0,0-1.068.493,2.946,2.946,0,0,0-.406,1.776v4.515h-3.6v-9.4h3.354v1.534a4.958,4.958,0,0,1,1.52-1.338,3.948,3.948,0,0,1,1.875-.407,3.072,3.072,0,0,1,2.342.892,3.852,3.852,0,0,1,.846,2.746v5.97Zm-12.213,0v-9.4h3.6v9.4Zm-37.775,0v-5.25H23332v5.25h-4V474.856h4v4.538h4.377v-4.538h4.025v12.973Zm37.775-10.516v-2.457h3.6v2.457Zm-43.035-11.557a5.154,5.154,0,0,1-2.2-2.05,6.94,6.94,0,0,1-.918-3.764,6.412,6.412,0,0,1,1.613-4.695,7.41,7.41,0,0,1,8.264-.7,5.539,5.539,0,0,1,1.982,2.9l-3.365.743a2.684,2.684,0,0,0-.367-.822,2.118,2.118,0,0,0-.785-.673,2.208,2.208,0,0,0-1.027-.235,2.231,2.231,0,0,0-1.982,1.041,4.435,4.435,0,0,0-.523,2.426,4.613,4.613,0,0,0,.623,2.809,2.454,2.454,0,0,0,3.395.149,3.827,3.827,0,0,0,.814-1.784l3.338,1.009a6.177,6.177,0,0,1-1.061,2.34,4.588,4.588,0,0,1-1.789,1.424,6.758,6.758,0,0,1-2.732.477A7.847,7.847,0,0,1,23331.121,465.756Zm39.7-.806a5.748,5.748,0,0,1-.963-3.372,4.958,4.958,0,0,1,1.061-3.4,3.5,3.5,0,0,1,2.705-1.174,3.967,3.967,0,0,1,1.453.266,3.322,3.322,0,0,1,1.148.814v-4.272h3.451v12.316h-3.2v-1.315a4.463,4.463,0,0,1-1.221,1.135,3.518,3.518,0,0,1-1.654.384A3.177,3.177,0,0,1,23370.816,464.95Zm2.861-4.89a2.622,2.622,0,0,0-.4,1.659,2.542,2.542,0,0,0,.412,1.6,1.306,1.306,0,0,0,1.037.509,1.381,1.381,0,0,0,1.09-.516,2.517,2.517,0,0,0,.436-1.667,2.359,2.359,0,0,0-.441-1.565,1.423,1.423,0,0,0-1.127-.516A1.244,1.244,0,0,0,23373.678,460.059Zm-14.105,5.43a3.669,3.669,0,0,1-.8-2.6v-5.681h3.432v4.906a1.8,1.8,0,0,0,.316,1.189,1.114,1.114,0,0,0,.877.36,1.258,1.258,0,0,0,1-.477,2.707,2.707,0,0,0,.393-1.682v-4.3h3.418v8.92h-3.2v-1.44a4.881,4.881,0,0,1-1.437,1.268,3.874,3.874,0,0,1-1.793.376A2.916,2.916,0,0,1,23359.572,465.49Zm-11.033-.25a4.367,4.367,0,0,1-1.627-3.545,4.473,4.473,0,0,1,1.375-3.365,5.969,5.969,0,0,1,7.768.235,4.85,4.85,0,0,1-.264,6.455,5.2,5.2,0,0,1-3.77,1.315A5.315,5.315,0,0,1,23348.539,465.239Zm2.283-5.305a3.442,3.442,0,0,0,0,3.521,1.54,1.54,0,0,0,1.215.571,1.511,1.511,0,0,0,1.209-.563,2.81,2.81,0,0,0,.479-1.807,2.65,2.65,0,0,0-.484-1.729,1.479,1.479,0,0,0-1.182-.563A1.553,1.553,0,0,0,23350.822,459.934Zm-9.111,6.2V453.815h3.43v12.316Zm14.08-21.111a4.07,4.07,0,0,1-1.686-1.588,4.859,4.859,0,0,1-.67-2.559,4.5,4.5,0,0,1,1.338-3.388,5.122,5.122,0,0,1,3.7-1.291,6.629,6.629,0,0,1,3.029.579,3.952,3.952,0,0,1,1.693,1.682,6.151,6.151,0,0,1,.578,2.864v.383h-6.854a2.184,2.184,0,0,0,.443,1.228,1.63,1.63,0,0,0,1.291.579,1.956,1.956,0,0,0,.955-.25,2.355,2.355,0,0,0,.6-.563l3.367.313a4.9,4.9,0,0,1-1.863,1.925,6.763,6.763,0,0,1-3.139.587A6.437,6.437,0,0,1,23355.791,445.02Zm1.527-6.158a2.391,2.391,0,0,0-.395,1.2h3.369a2.279,2.279,0,0,0-.533-1.424,1.687,1.687,0,0,0-2.441.219Zm-12.262,6.393a4.1,4.1,0,0,1-1.627-.861,4.27,4.27,0,0,1-1.064-1.385,4.858,4.858,0,0,1-.383-2.113,4.991,4.991,0,0,1,.465-2.293,4.041,4.041,0,0,1,.943-1.2,4.367,4.367,0,0,1,1.229-.8,6.794,6.794,0,0,1,2.555-.407,5.9,5.9,0,0,1,3.336.782,4.117,4.117,0,0,1,1.611,2.285l-3.223.423a1.509,1.509,0,0,0-.549-.861,1.826,1.826,0,0,0-1.07-.29,1.713,1.713,0,0,0-1.371.61,2.736,2.736,0,0,0-.531,1.839,2.418,2.418,0,0,0,.523,1.675,1.736,1.736,0,0,0,1.33.571,1.84,1.84,0,0,0,1.129-.344,2.12,2.12,0,0,0,.684-1.064l3.25.368a4.358,4.358,0,0,1-.885,1.761,4.039,4.039,0,0,1-1.564,1.158,6.125,6.125,0,0,1-2.424.415A9.1,9.1,0,0,1,23345.057,445.255Zm-7.639.063-.615-2.035h-4.324l-.6,2.035H23328l4.621-12.316h4.154l4.625,12.316Zm-4.107-4.695h2.7l-1.355-4.429Z" transform="translate(-23247.393 -417.542)" fill="#3c3c3c"></path></g><g id="citrix-registered-tm-logo" transform="translate(1256.776 1379.82)"><g id="Group_198974" data-name="Group 198974" transform="translate(0 0)"><path id="Path_186581" data-name="Path 186581" d="M0,38.861c0-13.1,8.789-22.22,21.309-22.22,8.455,0,15.338,4.229,18.072,10.778a3.939,3.939,0,0,1,.415,1.907,2.486,2.486,0,0,1-2.653,2.488,2.782,2.782,0,0,1-2.653-1.991c-2.153-5.306-7.044-8.374-13.181-8.374-9.37,0-15.918,7.132-15.918,17.413,0,10.2,6.467,17.326,15.918,17.326,6.136,0,10.778-2.984,13.265-9.2a2.71,2.71,0,0,1,2.569-1.991A2.62,2.62,0,0,1,39.8,47.647a4.886,4.886,0,0,1-.331,1.742c-2.653,7.129-9.451,11.689-18.156,11.689C8.705,61.077,0,51.957,0,38.861Z" transform="translate(0 -3.023)"></path><path id="Path_186582" data-name="Path 186582" d="M85.7,54.409c0,1.823-1,2.984-2.734,2.984s-2.653-1.161-2.653-2.984l0-51.422c0-1.907,1-2.987,2.737-2.987S85.7,1.08,85.7,2.987V14.695H94.98a2.339,2.339,0,0,1,2.653,2.4A2.339,2.339,0,0,1,94.98,19.5H85.7Z" transform="translate(-14.588 0)"></path><path id="Path_186583" data-name="Path 186583" d="M132.36,20.617a2.5,2.5,0,0,1-2.653,2.569,4.355,4.355,0,0,1-1.991-.581,9.726,9.726,0,0,0-4.31-.911c-5.721,0-9.451,4.975-9.451,11.277V57.429c0,1.9-.911,2.984-2.653,2.984s-2.737-1.08-2.737-2.984V20.286c0-1.907,1-2.987,2.737-2.987s2.653,1.08,2.653,2.987v1.077a12.307,12.307,0,0,1,10.032-4.726,12.835,12.835,0,0,1,6.963,1.657A2.659,2.659,0,0,1,132.36,20.617Z" transform="translate(-19.72 -3.019)"></path><path id="Path_186584" data-name="Path 186584" d="M144.323,20.436c0-1.907.992-2.987,2.734-2.987s2.653,1.08,2.653,2.987V57.579c0,1.823-1,2.984-2.734,2.984s-2.653-1.161-2.653-2.984Z" transform="translate(-26.215 -3.17)"></path><g id="Group_198973" data-name="Group 198973" transform="translate(47.721)"><path id="Path_186585" data-name="Path 186585" d="M60.2,20.436c0-1.907.992-2.987,2.734-2.987s2.653,1.08,2.653,2.987V57.579c0,1.823-1,2.984-2.734,2.984S60.2,59.4,60.2,57.579Z" transform="translate(-58.656 -3.17)"></path><circle id="Ellipse_1329" data-name="Ellipse 1329" cx="4.234" cy="4.234" r="4.234"></circle></g><path id="Path_186586" data-name="Path 186586" d="M180.837,42.322l-14.674,17.16a2.625,2.625,0,0,1-2.157,1.08,2.513,2.513,0,0,1-2.569-2.488,2.8,2.8,0,0,1,.746-1.907L177.521,38.84,162.764,21.928a2.944,2.944,0,0,1-.911-1.991,2.535,2.535,0,0,1,2.653-2.488,2.6,2.6,0,0,1,2.072,1.08l14.259,16.745L195.1,18.529a2.6,2.6,0,0,1,2.072-1.08,2.535,2.535,0,0,1,2.653,2.488,2.943,2.943,0,0,1-.911,1.991L184.154,38.84l15.338,17.327a2.8,2.8,0,0,1,.746,1.907,2.513,2.513,0,0,1-2.569,2.488,2.625,2.625,0,0,1-2.157-1.08Z" transform="translate(-29.324 -3.169)"></path><circle id="Ellipse_1330" data-name="Ellipse 1330" cx="4.234" cy="4.234" r="4.234" transform="translate(147.279)"></circle></g><path id="Path_186587" data-name="Path 186587" d="M220.613,68.253a4.093,4.093,0,0,1-1.653-.336,4.283,4.283,0,0,1-2.257-2.256,4.2,4.2,0,0,1,.91-4.636,4.366,4.366,0,0,1,1.347-.9,4.22,4.22,0,0,1,3.295,0,4.363,4.363,0,0,1,1.346.9,4.233,4.233,0,0,1,0,5.982,4.309,4.309,0,0,1-1.346.91,4.069,4.069,0,0,1-1.642.336Zm0-.559a3.519,3.519,0,0,0,1.424-.285,3.361,3.361,0,0,0,1.123-.782,3.666,3.666,0,0,0,.738-1.168,4.041,4.041,0,0,0,0-2.893,3.6,3.6,0,0,0-.738-1.162,3.406,3.406,0,0,0-1.123-.776,3.52,3.52,0,0,0-1.424-.285,3.56,3.56,0,0,0-1.43.285,3.462,3.462,0,0,0-1.134.776,3.556,3.556,0,0,0-.742,1.162,4.03,4.03,0,0,0,0,2.893,3.623,3.623,0,0,0,.742,1.168,3.417,3.417,0,0,0,1.134.782,3.561,3.561,0,0,0,1.43.285Zm2.111-1.319h-.693L220.68,64.2h-1.061v2.178h-.581V61.651H221.1a1.96,1.96,0,0,1,1.307.335,1.178,1.178,0,0,1,.368.916,1.427,1.427,0,0,1-.112.592,1,1,0,0,1-.312.4,1.373,1.373,0,0,1-.475.224,2.622,2.622,0,0,1-.587.084ZM220.5,63.74h.536a2.088,2.088,0,0,0,.542-.067.839.839,0,0,0,.414-.246.779.779,0,0,0,.161-.536.8.8,0,0,0-.106-.441.689.689,0,0,0-.273-.245,1.183,1.183,0,0,0-.38-.112,3.3,3.3,0,0,0-.424-.028h-1.352V63.74Z" transform="translate(-39.302 -10.86)"></path></g><path id="close_24dp_5F6368_FILL0_wght300_GRAD0_opsz24_1_" data-name="close_24dp_5F6368_FILL0_wght300_GRAD0_opsz24 (1)" d="M215.386-726.755l-1.536-1.536,8.162-8.162-8.162-8.162,1.536-1.536,8.162,8.162,8.162-8.162,1.536,1.536-8.162,8.162,8.162,8.162-1.536,1.536-8.162-8.162Z" transform="translate(994.071 2144.792)"></path></g></svg>