<svg xmlns="http://www.w3.org/2000/svg" id="user-management" width="64" height="64" viewBox="0 0 64 64"><circle id="Ellipse_649" data-name="Ellipse 649" cx="32" cy="32" r="32" fill="rgba(255,255,255,0)"></circle><g id="Group_179812" data-name="Group 179812" transform="translate(-121.219 -208.187)"><path id="Path_146076" data-name="Path 146076" d="M148.378,227.621a12.7,12.7,0,0,1,2.049-.755l.308-3.383a16.1,16.1,0,0,1,6.145,0l.309,3.383a12.7,12.7,0,0,1,2.948,1.221l2.612-2.176a16.139,16.139,0,0,1,4.346,4.344l-2.176,2.613a12.714,12.714,0,0,1,1.221,2.947l3.384.308a16.1,16.1,0,0,1,0,6.145l-3.385.309a12.7,12.7,0,0,1-1.22,2.946l2.177,2.613a16.057,16.057,0,0,1-4.2,4.133l-2.648-2.134a12.7,12.7,0,0,1-2.926,1.268l-.254,3.39a16.1,16.1,0,0,1-6.144.1l-.363-3.379m-7.307-5.962-.007,9.9c0,2.324,4.252,2.3,4.228-.035l-.079-4.885-.1-12.274m.114,6.034c.593,1.645,1.483,1.851,2.11,1.476,1.032-.619.675-1.919.63-2.944l-.321-7.266c-.114-2.583-12.719-2.391-13.127-.026a42.854,42.854,0,0,0-.419,6.839c-.018,1.23-.452,3.751,1.328,3.556.514-.035,1.074-.483,1.489-1.634m.114-6.034-.1,12.274-.079,4.885c-.024,2.333,4.214,2.368,4.213.035m-.088-30.487a3.182,3.182,0,0,1,3.094,3.264,3.3,3.3,0,0,1-1.569,2.841,2.958,2.958,0,0,1-1.567.45,3.182,3.182,0,0,1-3.094-3.264,3.3,3.3,0,0,1,1.568-2.84,2.958,2.958,0,0,1,1.568-.45Zm17.895,14.117a6.9,6.9,0,0,1-.047,1.2l1.635.859a8.762,8.762,0,0,1-1.278,3.081l-1.762-.549a6.9,6.9,0,0,1-1.224,1.224l.548,1.762a8.738,8.738,0,0,1-3.082,1.275l-.857-1.633a6.9,6.9,0,0,1-1.732,0l-.859,1.634m5.347-9.115,3.319.885a6.9,6.9,0,0,0-.047-1.2l1.635-.859a8.763,8.763,0,0,0-1.278-3.081l-1.762.549a6.893,6.893,0,0,0-1.224-1.224l.548-1.762a8.738,8.738,0,0,0-3.082-1.275l-.857,1.633a6.9,6.9,0,0,0-1.732,0l-.859-1.634a8.729,8.729,0,0,0-1.665.517" transform="translate(0 0)" fill="none" stroke="#000" stroke-linecap="round" stroke-linejoin="round" stroke-width="1.4"></path></g></svg>