<svg xmlns="http://www.w3.org/2000/svg" width="64" height="64" viewBox="0 0 64 64"><g id="years-of-experience" transform="translate(-1641 -303)"><g id="Hassle-free_Operations_" data-name="Hassle-free Operations " transform="translate(-6167 2439)"><path id="Path_146403" data-name="Path 146403" d="M32,0A32,32,0,1,1,0,32,32,32,0,0,1,32,0Z" transform="translate(7808 -2136)" fill="rgba(255,255,255,0)"></path></g><g id="experience" transform="translate(1496.146 88.247)"><g id="Path_145128" data-name="Path 145128" transform="translate(32 178)" fill="none"><path d="M160.836,84.5,148.714,63.507V60.458l6.061-3.45h0a.834.834,0,0,0,0-1.452l-6.483-3.692a.834.834,0,0,0-1.251.726V63.749L140.2,75.6l-2.824-4.893a.834.834,0,0,0-1.447,0L127.965,84.5a.834.834,0,0,0,.726,1.251H160.11a.834.834,0,0,0,.726-1.251Z" stroke="none"></path><path d="M 158.9598693847656 84.25278472900391 L 147.9472961425781 65.1800537109375 L 140.2001342773438 78.60514068603516 L 136.6520690917969 72.45787048339844 L 129.8406829833984 84.25278472900391 L 158.9598693847656 84.25278472900391 M 148.5410614013672 58.83047485351562 L 153.0177459716797 56.2824592590332 L 148.5410614013672 53.73312759399414 L 148.5410614013672 58.83047485351562 M 160.1128387451172 85.75279235839844 C 160.1117553710938 85.75279235839844 160.1106414794922 85.75278472900391 160.1095581054688 85.75278472900391 L 128.6909484863281 85.75278472900391 C 128.3906402587891 85.75307464599609 128.1145477294922 85.59479522705078 127.9649963378906 85.33583068847656 C 127.8159942626953 85.07745361328125 127.8159942626953 84.75971221923828 127.9649963378906 84.50133514404297 L 135.9285736083984 70.71123504638672 C 136.0772552490234 70.45168304443359 136.3531036376953 70.29194641113281 136.6522216796875 70.29194641113281 C 136.9510498046875 70.29194641113281 137.2271728515625 70.45168304443359 137.3758544921875 70.71123504638672 L 140.2000122070312 75.60425567626953 L 147.0410614013672 63.74937438964844 L 147.0410614013672 52.59096145629883 C 147.0398864746094 52.29242324829102 147.1981811523438 52.01570129394531 147.4565734863281 51.86586380004883 C 147.7149810791016 51.71599960327148 148.0338745117188 51.71571731567383 148.2922515869141 51.86527252197266 L 154.7747802734375 55.55686187744141 C 155.0360870361328 55.70497131347656 155.1975708007812 55.98226165771484 155.1975708007812 56.28254318237305 C 155.1975708007812 56.58312225341797 155.0360870361328 56.86041259765625 154.7747802734375 57.00852203369141 L 154.7744903564453 57.00852203369141 L 148.7135772705078 60.45823287963867 L 148.7135772705078 63.50736236572266 L 160.8358612060547 84.50200653076172 L 160.8355255126953 84.50133514404297 C 160.9844818115234 84.75968933105469 160.9844818115234 85.07744598388672 160.8355255126953 85.33583068847656 C 160.6864929199219 85.59385681152344 160.4109802246094 85.75279235839844 160.1128387451172 85.75279235839844 Z" stroke="none" fill="#000"></path></g></g></g></svg>