<?xml version="1.0" encoding="utf-8"?>
<!-- Generator: Adobe Illustrator 24.3.0, SVG Export Plug-In . SVG Version: 6.00 Build 0)  -->
<svg version="1.1" id="Layer_1" xmlns="http://www.w3.org/2000/svg" xmlns:xlink="http://www.w3.org/1999/xlink" x="0px" y="0px"
	 viewBox="0 0 200 90" style="enable-background:new 0 0 200 90;" xml:space="preserve">
<g>
	<g>
		<rect x="78.05" y="21.82" transform="matrix(0.7071 -0.7071 0.7071 0.7071 5.9048 65.2643)" width="7.36" height="7.36"/>
		<rect x="96.36" y="21.82" transform="matrix(0.7071 -0.7071 0.7071 0.7071 11.2672 78.2103)" width="7.36" height="7.36"/>
		<rect x="114.58" y="21.82" transform="matrix(0.7071 -0.7071 0.7071 0.7071 16.6051 91.0972)" width="7.36" height="7.36"/>
		<polygon points="100.17,12.44 109.28,21.56 114.11,16.73 100.16,2.63 86.18,16.18 91.31,21.31 		"/>
		<polygon points="100.17,39.21 91.31,30.35 86.18,35.47 100.16,49.02 114.11,34.92 109.28,30.09 		"/>
	</g>
	<g>
		<path d="M17.04,77.67c-0.21-0.1-0.44-0.18-0.66-0.26c0.71-0.38,1.29-0.89,1.73-1.55c0.46-0.7,0.69-1.55,0.69-2.54
			c0-1.47-0.59-2.65-1.76-3.53c-1.17-0.88-2.87-1.32-5.11-1.32H3.2V87.1h9.26c2.41,0,4.23-0.44,5.46-1.33s1.84-2.13,1.84-3.73
			c0-1.08-0.24-1.99-0.73-2.72C18.54,78.6,17.88,78.05,17.04,77.67z M11.56,71.18c1.21,0,2.13,0.21,2.78,0.64
			c0.65,0.43,0.97,1.07,0.97,1.94c0,0.85-0.32,1.49-0.97,1.92c-0.65,0.43-1.58,0.64-2.78,0.64h-4.9v-5.14H11.56z M15.23,83.75
			c-0.69,0.43-1.69,0.64-2.98,0.64H6.66v-5.38h5.59c1.3,0,2.29,0.22,2.98,0.65c0.69,0.44,1.04,1.11,1.04,2.04
			C16.27,82.64,15.92,83.32,15.23,83.75z"/>
		<rect x="23.46" y="68.47" width="3.46" height="18.63"/>
		<polygon points="45.07,81.08 34.8,68.47 31.95,68.47 31.95,87.1 35.38,87.1 35.38,74.49 45.66,87.1 48.51,87.1 48.51,68.47 
			45.07,68.47 		"/>
		<path d="M59.26,68.47L50.87,87.1h3.57l1.85-4.31h9.32l1.85,4.31h3.62l-8.41-18.63H59.26z M57.45,80.07l3.49-8.16l3.5,8.16H57.45z"
			/>
		<polygon points="86.57,81.08 76.3,68.47 73.45,68.47 73.45,87.1 76.88,87.1 76.88,74.49 87.16,87.1 90,87.1 90,68.47 86.57,68.47 
					"/>
		<path d="M99.04,73.07c0.59-0.59,1.3-1.04,2.1-1.36c0.81-0.32,1.7-0.48,2.68-0.48c0.98,0,1.88,0.18,2.72,0.55
			c0.83,0.36,1.59,0.91,2.26,1.64l2.24-2.1c-0.87-1.03-1.93-1.81-3.19-2.33c-1.26-0.52-2.65-0.79-4.18-0.79
			c-1.44,0-2.76,0.24-3.97,0.71c-1.21,0.47-2.26,1.14-3.17,2c-0.91,0.86-1.61,1.88-2.1,3.05c-0.5,1.17-0.75,2.45-0.75,3.83
			s0.25,2.66,0.75,3.83c0.5,1.17,1.19,2.19,2.09,3.05c0.9,0.86,1.95,1.53,3.17,2c1.22,0.47,2.53,0.71,3.95,0.71
			c1.54,0,2.95-0.27,4.21-0.8c1.26-0.53,2.32-1.3,3.19-2.32l-2.24-2.13c-0.67,0.75-1.43,1.3-2.26,1.66
			c-0.83,0.36-1.74,0.55-2.72,0.55c-0.98,0-1.87-0.16-2.68-0.48c-0.81-0.32-1.51-0.77-2.1-1.36c-0.59-0.59-1.06-1.28-1.38-2.08
			c-0.33-0.8-0.49-1.68-0.49-2.64s0.16-1.84,0.49-2.64C97.99,74.35,98.45,73.66,99.04,73.07z"/>
		<polygon points="117.82,79.06 126.82,79.06 126.82,76.21 117.82,76.21 117.82,71.37 127.96,71.37 127.96,68.47 114.36,68.47 
			114.36,87.1 128.34,87.1 128.34,84.2 117.82,84.2 		"/>
		<path d="M151.45,69.27c-1.18-0.53-2.6-0.8-4.25-0.8h-7.67V87.1H143v-5.38h4.21c1.65,0,3.07-0.27,4.25-0.8
			c1.18-0.53,2.09-1.3,2.73-2.29c0.64-0.99,0.96-2.17,0.96-3.54c0-1.37-0.32-2.55-0.96-3.54C153.54,70.56,152.63,69.8,151.45,69.27z
			 M150.5,77.83c-0.77,0.65-1.92,0.97-3.45,0.97H143v-7.4h4.05c1.53,0,2.68,0.32,3.45,0.96c0.77,0.64,1.16,1.55,1.16,2.74
			C151.65,76.27,151.27,77.18,150.5,77.83z"/>
		<path d="M170.51,80.89c1.18-0.52,2.09-1.28,2.73-2.26c0.64-0.99,0.96-2.16,0.96-3.53c0-1.37-0.32-2.55-0.96-3.54
			c-0.64-0.99-1.55-1.76-2.73-2.29c-1.18-0.53-2.6-0.8-4.25-0.8h-7.67V87.1h3.46v-5.43h4.21c0.25,0,0.49-0.01,0.73-0.02l3.8,5.45
			h3.73L170.24,81C170.33,80.96,170.43,80.93,170.51,80.89z M169.56,72.35c0.77,0.64,1.16,1.55,1.16,2.74
			c0,1.17-0.39,2.09-1.16,2.74c-0.77,0.66-1.92,0.98-3.45,0.98h-4.05V71.4h4.05C167.63,71.4,168.78,71.72,169.56,72.35z"/>
		<path d="M196.05,73.97c-0.5-1.16-1.2-2.17-2.1-3.03c-0.91-0.86-1.97-1.53-3.18-2.01c-1.22-0.48-2.55-0.72-4.01-0.72
			c-1.44,0-2.77,0.24-3.99,0.72c-1.22,0.48-2.29,1.15-3.19,2.01c-0.91,0.86-1.61,1.87-2.1,3.03c-0.5,1.16-0.75,2.44-0.75,3.82
			s0.25,2.66,0.75,3.82c0.5,1.16,1.2,2.17,2.1,3.03c0.9,0.86,1.97,1.53,3.19,2.01c1.22,0.48,2.56,0.72,4.02,0.72
			c1.44,0,2.76-0.24,3.98-0.72c1.22-0.48,2.28-1.14,3.18-2c0.9-0.85,1.61-1.86,2.1-3.03c0.5-1.17,0.75-2.45,0.75-3.83
			S196.55,75.13,196.05,73.97z M192.82,80.41c-0.33,0.79-0.79,1.48-1.37,2.08c-0.59,0.59-1.28,1.05-2.08,1.37
			c-0.8,0.32-1.67,0.48-2.61,0.48c-0.94,0-1.81-0.16-2.61-0.48c-0.8-0.32-1.49-0.78-2.08-1.37c-0.59-0.59-1.04-1.29-1.37-2.09
			c-0.33-0.8-0.49-1.67-0.49-2.61c0-0.96,0.16-1.83,0.49-2.62c0.33-0.79,0.79-1.48,1.38-2.08c0.59-0.59,1.29-1.05,2.08-1.37
			c0.79-0.32,1.65-0.48,2.6-0.48c0.94,0,1.81,0.16,2.61,0.48c0.8,0.32,1.49,0.78,2.08,1.37c0.59,0.59,1.04,1.29,1.37,2.08
			c0.33,0.79,0.49,1.66,0.49,2.62S193.15,79.62,192.82,80.41z"/>
	</g>
</g>
</svg>
