<?xml version="1.0" encoding="utf-8"?>
<!-- Generator: Adobe Illustrator 24.3.0, SVG Export Plug-In . SVG Version: 6.00 Build 0)  -->
<svg version="1.1" id="Layer_1" xmlns="http://www.w3.org/2000/svg" xmlns:xlink="http://www.w3.org/1999/xlink" x="0px" y="0px"
	 viewBox="0 0 250 250" style="enable-background:new 0 0 250 250;" xml:space="preserve">
<style type="text/css">
	.st0{clip-path:url(#SVGID_2_);fill:#F43397;}
	.st1{fill:#0079FF;}
	.st2{opacity:0.28;fill:#99CFFF;}
	.st3{fill:#0569C4;}
	.st4{fill:#FFFFFF;}
</style>
<g>
	<g>
		<g>
			<g>
				<defs>
					<rect id="SVGID_1_" x="13.1" y="49.3" width="223.9" height="51.7"/>
				</defs>
				<clipPath id="SVGID_2_">
					<use xlink:href="#SVGID_1_"  style="overflow:visible;"/>
				</clipPath>
				<path class="st0" d="M46.1,66.8c3.8,0,6.9,1.3,9.5,3.9c2.6,2.6,3.9,5.6,3.9,9.3l-0.1,17c0,2-1.7,3.7-3.8,3.7
					c-2.1,0-3.8-1.7-3.8-3.7l0.1-17c0-1.5-0.6-3-1.7-4c-1.1-1.1-2.5-1.7-4.1-1.7c-1.6,0-3.2,0.6-4.3,1.8c-1.1,1.1-1.6,2.6-1.6,4.1
					l-0.1,16.8c0,2-1.8,3.7-3.9,3.7c-2.1,0-3.8-1.7-3.8-3.8l0.1-16.9c0-1.5-0.5-2.9-1.6-4c-1.1-1.2-2.6-1.8-4.3-1.8
					c-1.6,0-3,0.5-4.1,1.6c-1.1,1.1-1.7,2.4-1.7,4l-0.1,17c0,2-1.7,3.7-3.8,3.7c-2.1,0-3.8-1.7-3.8-3.7l0.1-16.9
					c0-3.2,1.2-6.2,3.3-8.6c2.8-3,6.2-4.5,10.2-4.5c3.8,0,7.1,1.4,9.7,4C39.1,68.1,42.3,66.8,46.1,66.8L46.1,66.8z M94.2,85.7
					l-21.8-0.1c0.2,2.6,1,4.7,2.6,6.3c1.6,1.5,3.6,2.3,5.9,2.3c1.9,0,3.5-0.4,4.7-1.3c0.7-0.5,1.5-1.3,2.4-2.4c1.1-1.4,3-1.8,4.6-1
					l0.2,0.1c1.9,1,2.4,3.6,1,5.2c-0.2,0.3-0.5,0.6-0.8,0.8c-1,1.1-2.2,2.1-3.6,2.9c-1.3,0.8-2.7,1.3-4.1,1.6
					c-1.5,0.3-3,0.5-4.8,0.5c-4.9,0-8.8-1.6-11.8-4.7c-2.9-3.1-4.4-7.2-4.4-12.3c0-5,1.5-9.1,4.4-12.2c2.9-3,6.8-4.6,11.6-4.5
					c4.8,0,8.7,1.6,11.5,4.6c2.8,3,4.1,7.1,4.1,12.4C96,84.9,95.2,85.7,94.2,85.7L94.2,85.7z M88.2,79.6c-1-3.9-3.6-5.9-7.7-5.9
					c-0.9,0-1.8,0.1-2.6,0.4c-0.8,0.2-1.6,0.7-2.2,1.2c-0.7,0.5-1.2,1.1-1.7,1.9c-0.5,0.8-0.9,1.6-1.1,2.5L88.2,79.6z M130.5,85.7
					l-21.8-0.1c0.2,2.6,1,4.7,2.6,6.3c1.6,1.5,3.6,2.3,5.9,2.3c1.9,0,3.5-0.4,4.7-1.3c0.8-0.5,1.5-1.3,2.4-2.4c1.1-1.4,3-1.8,4.6-1
					l0.2,0.1c1.9,1,2.4,3.6,1,5.2c-0.2,0.3-0.5,0.6-0.8,0.8c-1,1.1-2.2,2.1-3.6,2.9c-1.3,0.8-2.7,1.3-4.1,1.6
					c-1.5,0.3-3,0.5-4.8,0.5c-4.9,0-8.9-1.6-11.8-4.7c-2.9-3.1-4.4-7.2-4.4-12.3c0-5,1.5-9.1,4.4-12.2c2.9-3,6.8-4.6,11.6-4.5
					c4.8,0,8.7,1.6,11.5,4.6c2.8,3,4.1,7.1,4.1,12.4C132.3,84.9,131.5,85.7,130.5,85.7L130.5,85.7z M124.5,79.6
					c-1-3.9-3.6-5.9-7.7-5.9c-0.9,0-1.8,0.1-2.6,0.4c-1.6,0.5-3,1.6-3.9,3c-0.5,0.8-0.9,1.6-1.1,2.5L124.5,79.6z M172.5,49.3
					c2.1,0,3.8,1.7,3.8,3.8l-0.1,16.7c2.8-2.4,5.8-2.9,9.2-2.9c3.3,0,6.8,1.5,9.1,3.8c1.9,2.1,2.9,5.4,2.9,10L197.3,97
					c0,2.1-1.8,3.8-3.9,3.8s-3.9-1.7-3.8-3.8l0.1-15.5c0-2.6-0.4-4.5-1.4-5.7c-1-1.2-2.5-1.8-4.6-1.8c-2.7,0-4.7,0.8-5.8,2.4
					c-1.1,1.7-1.7,4.5-1.7,8.5l-0.1,12c0,2.1-1.8,3.8-3.9,3.7c-2.1,0-3.8-1.7-3.8-3.8l0.3-43.6C168.6,50.9,170.4,49.3,172.5,49.3
					L172.5,49.3z M202,83.9c0-4.5,1.7-8.3,5.1-11.5c3.3-3.1,7.4-4.7,12.2-4.7c4.8,0,8.9,1.7,12.2,4.8c3.3,3.2,4.9,7.1,4.9,11.7
					c0,4.7-1.7,8.6-5.1,11.7c-3.4,3.1-7.5,4.7-12.4,4.6c-4.8,0-8.9-1.7-12.1-4.9C203.6,92.7,202,88.7,202,83.9L202,83.9z
					 M209.6,84.1c0,3.1,0.8,5.6,2.5,7.4c1.8,1.9,4.1,2.8,7,2.8s5.2-0.9,7-2.7c1.8-1.8,2.7-4.2,2.7-7.2c0-3-0.8-5.5-2.6-7.3
					c-1.8-1.9-4.1-2.8-7-2.8c-2.9,0-5.1,0.9-6.9,2.7C210.6,78.8,209.7,81.2,209.6,84.1L209.6,84.1z M159.7,83.5
					c2.3,1.7,3.5,3.9,3.6,6.7v0.1c0,3.3-1.3,6-3.8,7.9c-2.2,1.7-5.3,2.6-8.9,2.6c-3.8,0-7.9-1.1-11.4-3c-1.9-1-2.4-3.3-1.2-5.1
					c0.7-1,1.9-1.6,3.1-1.6c0.7,0,1.3,0.1,1.8,0.5c2.7,1.5,5.4,2.3,7.9,2.3c3.9,0,4.4-1.9,4.4-2.8v-0.1c0-1.7-2.3-2.5-6-3.6
					c-0.2-0.1-0.5-0.1-0.8-0.2c-2.5-0.7-5-1.5-7-2.9c-2.4-1.7-3.5-3.9-3.5-6.9v-0.1c0-6,5-10.2,12.2-10.2c3,0,6.3,0.7,9.3,2.1
					c0.9,0.4,1.7,1.2,2,2.1c0.3,1,0.2,2-0.3,2.9l0,0c-0.7,1.1-1.9,1.9-3.2,1.9c-0.5,0-1.1-0.1-1.6-0.3c-2.3-1-4.5-1.6-6.4-1.6
					c-2.3,0-3.8,1-3.8,2.4v0.1c0,1.7,3,2.7,6.2,3.7l0.6,0.2C155.2,81.1,157.7,82,159.7,83.5L159.7,83.5z"/>
			</g>
		</g>
	</g>
	<g>
		<path class="st1" d="M192.6,181.2c0,5.2-2.1,9.8-5.5,13.2c-3.4,3.4-8,5.5-13.2,5.5H75.9c-10.3,0-18.7-8.4-18.7-18.7
			c0-5.2,2.1-9.8,5.5-13.2c1.3-1.3,2.8-2.4,4.4-3.3c2.6-1.4,5.6-2.2,8.8-2.2h98.1c2.5,0,4.8,0.5,7,1.4
			C187.8,166.7,192.6,173.4,192.6,181.2z"/>
		<path class="st2" d="M180.9,163.9c-11.6,17-32.9,28.4-57.2,28.4c-23.9,0-44.9-11-56.6-27.6c2.6-1.4,5.6-2.2,8.8-2.2h98.1
			C176.4,162.6,178.8,163,180.9,163.9z"/>
		<g>
			<path class="st3" d="M173.9,200.7H75.9c-10.7,0-19.5-8.7-19.5-19.5c0-10.7,8.7-19.5,19.5-19.5h98.1c10.7,0,19.5,8.7,19.5,19.5
				C193.4,191.9,184.7,200.7,173.9,200.7z M75.9,163.4c-9.8,0-17.9,8-17.9,17.9c0,9.8,8,17.9,17.9,17.9h98.1c9.8,0,17.9-8,17.9-17.9
				c0-9.8-8-17.9-17.9-17.9H75.9z"/>
		</g>
		<g>
			<path class="st4" d="M102,182c0,1.6-1.3,2.6-3.7,2.6h-4.7v-9.5H98c2.3,0,3.5,1,3.5,2.5c0,1-0.5,1.7-1.2,2.1
				C101.3,180,102,180.8,102,182z M95.3,176.5v2.6h2.5c1.2,0,1.9-0.4,1.9-1.3c0-0.9-0.7-1.3-1.9-1.3H95.3z M100.2,181.8
				c0-0.9-0.7-1.4-2-1.4h-2.8v2.7h2.8C99.5,183.2,100.2,182.8,100.2,181.8z"/>
			<path class="st4" d="M110.7,177.4v7.2h-1.6v-0.9c-0.5,0.7-1.4,1-2.3,1c-1.9,0-3.1-1-3.1-3.2v-4.1h1.7v3.9c0,1.3,0.6,1.9,1.7,1.9
				c1.2,0,2-0.7,2-2.2v-3.7H110.7z"/>
			<path class="st4" d="M119.7,177.4l-3.4,7.8c-0.7,1.6-1.6,2.1-2.8,2.1c-0.7,0-1.5-0.2-1.9-0.7l0.7-1.2c0.3,0.3,0.8,0.5,1.2,0.5
				c0.6,0,0.9-0.3,1.3-1l0.1-0.3l-3.2-7.3h1.8l2.3,5.4l2.3-5.4H119.7z"/>
			<path class="st4" d="M133.1,175.1v9.5h-1.8v-4.1h-4.9v4.1h-1.8v-9.5h1.8v3.9h4.9v-3.9H133.1z"/>
			<path class="st4" d="M142.2,181.5h-5.7c0.2,1.1,1.1,1.7,2.3,1.7c0.8,0,1.5-0.3,2-0.8l0.9,1c-0.7,0.8-1.7,1.2-2.9,1.2
				c-2.4,0-4-1.6-4-3.7c0-2.2,1.6-3.7,3.7-3.7c2.1,0,3.7,1.5,3.7,3.7C142.3,181.2,142.3,181.4,142.2,181.5z M136.6,180.4h4.1
				c-0.1-1-0.9-1.8-2-1.8C137.5,178.6,136.7,179.3,136.6,180.4z"/>
			<path class="st4" d="M148.1,177.3v1.6c-0.1,0-0.3,0-0.4,0c-1.3,0-2.1,0.8-2.1,2.2v3.5h-1.7v-7.2h1.6v1.1
				C146,177.7,146.9,177.3,148.1,177.3z"/>
			<path class="st4" d="M156.2,181.5h-5.7c0.2,1.1,1.1,1.7,2.3,1.7c0.8,0,1.4-0.3,2-0.8l0.9,1c-0.7,0.8-1.7,1.2-2.9,1.2
				c-2.4,0-4-1.6-4-3.7c0-2.2,1.6-3.7,3.7-3.7c2.1,0,3.7,1.5,3.7,3.7C156.3,181.2,156.2,181.4,156.2,181.5z M150.5,180.4h4.1
				c-0.1-1-0.9-1.8-2-1.8C151.5,178.6,150.7,179.3,150.5,180.4z"/>
		</g>
	</g>
</g>
</svg>
