<?xml version="1.0" encoding="utf-8"?>
<!-- Generator: Adobe Illustrator 24.3.0, SVG Export Plug-In . SVG Version: 6.00 Build 0)  -->
<svg version="1.1" id="Layer_1" xmlns="http://www.w3.org/2000/svg" xmlns:xlink="http://www.w3.org/1999/xlink" x="0px" y="0px"
	 viewBox="0 0 250 250" style="enable-background:new 0 0 250 250;" xml:space="preserve">
<style type="text/css">
	.st0{fill:url(#SVGID_1_);}
	.st1{fill:url(#SVGID_2_);}
	.st2{fill:#FFFFFF;}
	.st3{fill:url(#SVGID_3_);}
	.st4{fill:#F3971B;}
</style>
<g>
	<g>
		<linearGradient id="SVGID_1_" gradientUnits="userSpaceOnUse" x1="124.9185" y1="197.7011" x2="124.5792" y2="163.0989">
			<stop  offset="0" style="stop-color:#1F4D97"/>
			<stop  offset="1" style="stop-color:#1D83D0"/>
		</linearGradient>
		<path class="st0" d="M177.8,197.2h-106c-9.3,0-16.8-7.5-16.8-16.8s7.5-16.8,16.8-16.8h106c9.3,0,16.8,7.5,16.8,16.8
			S187,197.2,177.8,197.2z"/>
		<linearGradient id="SVGID_2_" gradientUnits="userSpaceOnUse" x1="124.9682" y1="164.6045" x2="124.5294" y2="196.1955">
			<stop  offset="0" style="stop-color:#0F337A"/>
			<stop  offset="1" style="stop-color:#1D83D0"/>
		</linearGradient>
		<path class="st1" d="M177.7,195.5H71.8c-8.3,0-15.1-6.8-15.1-15.1c0-8.3,6.8-15.1,15.1-15.1h105.9c8.3,0,15.1,6.8,15.1,15.1
			C192.8,188.7,186,195.5,177.7,195.5z"/>
		<g>
			<path class="st2" d="M94.8,181.2c0.4,0.5,0.6,1.1,0.6,1.8c0,0.6-0.1,1.1-0.4,1.6c-0.3,0.5-0.7,0.8-1.3,1.1
				c-0.6,0.3-1.2,0.4-2,0.4h-4.9v-11.3h4.7c0.8,0,1.4,0.1,2,0.4c0.6,0.2,1,0.6,1.3,1c0.3,0.4,0.4,0.9,0.4,1.5c0,0.7-0.2,1.2-0.5,1.7
				c-0.4,0.4-0.8,0.8-1.4,0.9C93.9,180.4,94.4,180.7,94.8,181.2z M89.1,179.4h2.1c0.5,0,1-0.1,1.3-0.4s0.4-0.6,0.4-1
				c0-0.5-0.1-0.8-0.4-1.1c-0.3-0.2-0.7-0.4-1.3-0.4h-2.1V179.4z M92.6,183.9c0.3-0.3,0.5-0.6,0.5-1.1c0-0.5-0.2-0.9-0.5-1.1
				c-0.3-0.3-0.8-0.4-1.3-0.4h-2.2v3.1h2.3C91.9,184.2,92.3,184.1,92.6,183.9z"/>
			<path class="st2" d="M99.5,174.8v7c0,0.8,0.2,1.4,0.6,1.8c0.4,0.4,1,0.6,1.7,0.6c0.7,0,1.3-0.2,1.7-0.6c0.4-0.4,0.6-1,0.6-1.8v-7
				h2.3v7c0,1-0.2,1.8-0.6,2.4c-0.4,0.7-1,1.2-1.7,1.5c-0.7,0.3-1.5,0.5-2.3,0.5c-0.8,0-1.6-0.2-2.3-0.5c-0.7-0.3-1.2-0.8-1.6-1.5
				c-0.4-0.7-0.6-1.5-0.6-2.4v-7H99.5z"/>
			<path class="st2" d="M117.6,174.8l-3.8,7.4v3.9h-2.3v-3.9l-3.9-7.4h2.6l2.4,5.2l2.4-5.2H117.6z"/>
			<path class="st2" d="M132.5,186.1h-2.3l-5.2-7.8v7.8h-2.3v-11.4h2.3l5.2,7.8v-7.8h2.3V186.1z"/>
			<path class="st2" d="M137.1,185.5c-0.9-0.5-1.6-1.2-2.1-2.1c-0.5-0.9-0.8-1.9-0.8-3c0-1.1,0.3-2.1,0.8-3c0.5-0.9,1.2-1.6,2.1-2.1
				c0.9-0.5,1.9-0.7,2.9-0.7c1.1,0,2.1,0.2,2.9,0.7c0.9,0.5,1.6,1.2,2.1,2.1c0.5,0.9,0.8,1.9,0.8,3c0,1.1-0.3,2.1-0.8,3
				c-0.5,0.9-1.2,1.6-2.1,2.1c-0.9,0.5-1.9,0.7-2.9,0.7C139,186.2,138,186,137.1,185.5z M141.8,183.7c0.5-0.3,0.9-0.8,1.2-1.3
				c0.3-0.6,0.4-1.2,0.4-2c0-0.8-0.1-1.4-0.4-2c-0.3-0.6-0.7-1-1.2-1.3c-0.5-0.3-1.1-0.5-1.8-0.5c-0.7,0-1.3,0.2-1.8,0.5
				c-0.5,0.3-0.9,0.7-1.2,1.3c-0.3,0.6-0.4,1.2-0.4,2c0,0.8,0.1,1.4,0.4,2c0.3,0.6,0.7,1,1.2,1.3c0.5,0.3,1.1,0.5,1.8,0.5
				C140.7,184.2,141.3,184,141.8,183.7z"/>
			<path class="st2" d="M162.7,174.8l-3.2,11.3h-2.7l-2.1-8.1l-2.2,8.1l-2.7,0l-3.1-11.4h2.4l2,8.8l2.3-8.8h2.5l2.2,8.8l2-8.8H162.7
				z"/>
		</g>
		<circle class="st2" cx="176.3" cy="180.4" r="8.9"/>
		<linearGradient id="SVGID_3_" gradientUnits="userSpaceOnUse" x1="169.8057" y1="174.5963" x2="179.4096" y2="184.2002">
			<stop  offset="0" style="stop-color:#0F337A"/>
			<stop  offset="1" style="stop-color:#1D83D0"/>
		</linearGradient>
		<path class="st3" d="M178.5,185.2l2-1.6l-2.5-2.8c-0.1-0.1-0.1-0.3,0.1-0.4l1.6-0.9l-7.6-3.9l2.3,8.3l1.2-1.5
			c0.1-0.1,0.3-0.1,0.3,0L178.5,185.2z"/>
		<g>
			<path class="st2" d="M81.2,183h-7.7l-3.5-8h-4.5c-0.2,0-0.4,0.2-0.4,0.4c0,0.2,0.2,0.4,0.4,0.4h4l3.5,8h1.3
				c-0.2,0.2-0.4,0.5-0.4,0.8c0,0.6,0.5,1.1,1.1,1.1c0.6,0,1.1-0.5,1.1-1.1c0-0.3-0.2-0.6-0.4-0.8h2.4c-0.2,0.2-0.4,0.5-0.4,0.8
				c0,0.6,0.5,1.1,1.1,1.1c0.6,0,1.1-0.5,1.1-1.1c0-0.3-0.2-0.6-0.4-0.8h1.8c0.2,0,0.4-0.2,0.4-0.4S81.4,183,81.2,183z M75,184.9
				c-0.1,0-0.3-0.1-0.3-0.3c0-0.1,0.1-0.3,0.3-0.3c0.1,0,0.3,0.1,0.3,0.3C75.2,184.8,75.1,184.9,75,184.9z M78.7,184.9
				c-0.1,0-0.3-0.1-0.3-0.3c0-0.1,0.1-0.3,0.3-0.3c0.1,0,0.3,0.1,0.3,0.3C79,184.8,78.9,184.9,78.7,184.9z"/>
			<path class="st2" d="M73.5,181.8c0.1,0.3,0.5,0.5,0.8,0.5h6c0.5,0,0.9-0.4,0.9-0.8l0.2-4.2c0-0.2-0.1-0.5-0.2-0.6
				c-0.2-0.2-0.4-0.3-0.6-0.3l-8.1-0.3c-0.3,0-0.5,0.1-0.7,0.3c-0.2,0.2-0.2,0.5-0.1,0.8L73.5,181.8z M80.3,177.4l-0.2,3.9h-5.7
				l-1.7-4.2L80.3,177.4z"/>
		</g>
	</g>
	<g>
		<path d="M56.4,67.2v23c0,0.8-0.6,1.4-1.4,1.4h-7.3c-0.8,0-1.4-0.6-1.4-1.4V52.8c0-0.8,0.6-1.4,1.4-1.4h6.7c0.8,0,1.4,0.6,1.4,1.4
			V58c0,0,2.4-7.5,9.5-7.5c0,0,7.1-0.9,9.9,7c0,0,2.4-7,9.7-7c0,0,10.9-0.6,10.9,10.6l0.1,6.2v23c0,0.8-0.6,1.4-1.4,1.4l0,0h-7.3
			c-0.8,0-1.4-0.6-1.4-1.4l0-25.1c0.2-5.7-4.4-5.3-4.4-5.3c-5.8,0.1-5.2,7.4-5.2,7.4v23c0,0.8-0.6,1.4-1.4,1.4h-7.3
			c-0.8,0-1.4-0.6-1.4-1.4V65.7c0,0,0.4-5.9-4.8-5.9C61.3,59.8,56.2,59.2,56.4,67.2z M243.9,67.1v23c0,0.8-0.6,1.4-1.4,1.4l-7.6,0.1
			c-0.8,0-1.4-0.6-1.4-1.4V65.7c0,0,0.4-5.9-4.7-5.9c0,0-4.9-0.2-4.9,9v21.4c0,0.8-0.6,1.4-1.4,1.4h-7.3c-0.8,0-1.4-0.6-1.4-1.4
			V52.8c0-0.8,0.6-1.4,1.4-1.4h6.7c0.8,0,1.4,0.6,1.4,1.4l0,0V58c0,0,2.4-7.5,9.5-7.5c0,0,7.7-1.2,10.2,6.8
			C243.1,57.3,243.9,59,243.9,67.1L243.9,67.1z M191.4,50.4c-9.3,0-16.8,7.8-16.8,21c0,11.6,5.8,21,16.8,21c10.4,0,16.8-9.4,16.8-21
			C208.2,58.4,200.7,50.4,191.4,50.4z M197.3,71.9c0,5-0.6,7.6-0.6,7.6c-0.9,5.3-4.7,5.3-5.3,5.2c-0.6,0-4.5,0-5.2-5.2
			c0,0-0.6-2.6-0.6-7.6V71c0-5,0.6-7.6,0.6-7.6c0.8-5.2,4.6-5.3,5.2-5.2c0.6,0,4.4,0,5.3,5.2c0,0,0.6,2.6,0.6,7.6V71.9z M170.3,58
			v-5.4c0-0.8-0.6-1.4-1.4-1.4h-24c-0.8,0-1.4,0.6-1.4,1.4l0,0v5.3c0,0.8,0.6,1.4,1.4,1.4h12.5l-14.8,21.5c0,0-0.6,0.9-0.6,1.8v6.6
			c0,0-0.1,2.2,2.5,0.9c0,0,4.5-2.7,12.1-2.7c0,0,7.5-0.1,12.5,3c0,0,2.1,0.9,2.1-1.1v-5.7c0,0,0.2-1.5-1.8-2.5
			c0,0-5.7-3.2-13.3-2.6L170.3,58z M40.7,84.9l-2.3-3.5c-0.7-1.3-0.7-2.7-0.7-2.7v-16c0.3-13.8-15-12.6-15-12.6
			C9.1,50.1,7.1,60.7,7.1,60.7c-0.6,2.1,1.1,2.2,1.1,2.2l6.7,0.7c0,0,1.1,0.3,1.5-1.1c0,0,0.9-4.6,5.8-4.6c5.3,0,5.3,4.6,5.3,4.6
			v3.8c-10.6,0.4-15.6,3.3-15.6,3.3c-6.6,3.7-6.2,11.1-6.2,11.1c0,12.1,11.5,11.5,11.5,11.5c7.3,0,11.7-5.4,11.7-5.4
			c1.3,2.3,3.7,4.5,3.7,4.5c1.2,1.3,2.4,0.2,2.4,0.2l5.4-4.6C41.6,86,40.7,84.9,40.7,84.9z M20.8,84.8c-3.5,0-4.7-3.4-4.2-6.8
			c0.6-3.4,3.6-6,10.8-6v2.1C27.7,83.1,23.6,84.8,20.8,84.8L20.8,84.8z M137.4,84.9l-2.3-3.5c-0.7-1.3-0.7-2.7-0.7-2.7v-16
			c0.3-13.8-15-12.6-15-12.6c-13.6,0-15.6,10.6-15.6,10.6c-0.6,2.1,1.1,2.2,1.1,2.2l6.7,0.7c0,0,1.1,0.3,1.5-1.1
			c0,0,0.9-4.6,5.8-4.6c5.3,0,5.3,4.6,5.3,4.6v3.8c-10.6,0.4-15.6,3.3-15.6,3.3c-6.6,3.7-6.2,11.1-6.2,11.1
			c0,12.1,11.5,11.5,11.5,11.5c7.3,0,11.7-5.4,11.7-5.4c1.3,2.3,3.7,4.5,3.7,4.5c1.2,1.3,2.4,0.2,2.4,0.2l5.4-4.6
			C138.2,86,137.4,84.9,137.4,84.9L137.4,84.9z M117.4,84.8c-3.5,0-4.7-3.4-4.2-6.8c0.6-3.4,3.6-6,10.8-6v2.1
			C124.4,83.1,120.3,84.8,117.4,84.8L117.4,84.8z"/>
		<g>
			<path class="st4" d="M155.7,115.2c0,0-0.6,1.1,0.1,1.3c0,0,0.8,0.3,1.9-0.6c0,0,7.7-6.7,7.9-18.9c0,0,0.1-1.5-0.6-1.9
				c0,0-2.4-2.1-11.1-1.5c0,0-7.5,0.5-11.7,4.2c0,0-0.4,0.3-0.4,0.7c0,0-0.1,0.9,2.2,0.5c0,0,7.5-1.1,12-0.5c0,0,2.3,0.3,3,1.1
				c0,0,1.1,0.9,0.5,3.8C159.6,103.3,158.1,110.7,155.7,115.2L155.7,115.2z"/>
			<path class="st4" d="M154.2,103.5c0,0,1.1,1.5-0.7,2.7c0,0-19.4,15.5-52,15.5c0,0-33.6,1.7-61.6-23.8c0,0-1-0.9-0.4-1.7
				c0,0,0.5-0.7,2,0.1c0,0,26.4,16.4,61,16.4c0,0,24.1,0.9,48.8-9.6C151.2,103.1,153.1,102.1,154.2,103.5L154.2,103.5z"/>
		</g>
	</g>
</g>
</svg>
