<?xml version="1.0" encoding="utf-8"?>
<!-- Generator: Adobe Illustrator 24.3.0, SVG Export Plug-In . SVG Version: 6.00 Build 0)  -->
<svg version="1.1" id="Layer_1" xmlns="http://www.w3.org/2000/svg" xmlns:xlink="http://www.w3.org/1999/xlink" x="0px" y="0px"
	 viewBox="0 0 250 250" style="enable-background:new 0 0 250 250;" xml:space="preserve">
<style type="text/css">
	.st0{opacity:0.28;fill:#99CFFF;enable-background:new    ;}
	.st1{fill:#FFFFFF;}
	.st2{fill:url(#SVGID_1_);stroke:#FCD109;stroke-width:9.400000e-02;}
	.st3{fill:#F8F3B5;stroke:#F8F3B5;stroke-width:9.400000e-02;}
	.st4{fill:#F7B402;stroke:#F7B402;stroke-width:9.400000e-02;}
	.st5{fill:#BDA727;stroke:#BDA727;stroke-width:9.400000e-02;}
	.st6{fill:#F7E62D;stroke:#F7E62D;stroke-width:9.400000e-02;}
	.st7{fill:url(#SVGID_2_);stroke:#FCD109;stroke-width:9.400000e-02;}
	.st8{fill:url(#SVGID_3_);stroke:#FCD109;stroke-width:9.400000e-02;}
	.st9{fill:url(#SVGID_4_);stroke:#FCD109;stroke-width:9.400000e-02;}
	.st10{fill:#0D69B3;stroke:#0D69B3;stroke-width:9.400000e-02;}
	.st11{fill:#107BD4;stroke:#107BD4;stroke-width:9.400000e-02;}
	.st12{fill:#FFFFFF;stroke:#FFFFFF;stroke-width:9.400000e-02;}
	.st13{clip-path:url(#SVGID_6_);}
	.st14{fill:none;stroke:#D1D1D1;stroke-width:2;}
	.st15{fill:#107BD4;stroke:#107BD4;stroke-width:0.101;}
	.st16{fill:url(#SVGID_7_);}
	.st17{fill:url(#SVGID_8_);}
	.st18{fill:url(#SVGID_9_);}
</style>
<path class="st0" d="M180.9,163.5c-11.6,17-32.9,28.4-57.2,28.4c-23.9,0-44.9-11-56.6-27.6c2.6-1.4,5.6-2.2,8.8-2.2H174
	C176.4,162.2,178.8,162.7,180.9,163.5z"/>
<g>
	<path class="st1" d="M102,181.6c0,1.6-1.3,2.6-3.7,2.6h-4.7v-9.5H98c2.3,0,3.5,1,3.5,2.5c0,1-0.5,1.7-1.2,2.1
		C101.3,179.6,102,180.4,102,181.6z M95.3,176.1v2.6h2.5c1.2,0,1.9-0.4,1.9-1.3c0-0.9-0.7-1.3-1.9-1.3H95.3z M100.2,181.5
		c0-0.9-0.7-1.4-2-1.4h-2.8v2.7h2.8C99.5,182.8,100.2,182.4,100.2,181.5z"/>
	<path class="st1" d="M110.7,177v7.2h-1.6v-0.9c-0.5,0.7-1.4,1-2.3,1c-1.9,0-3.1-1-3.1-3.2V177h1.7v3.9c0,1.3,0.6,1.9,1.7,1.9
		c1.2,0,2-0.7,2-2.2V177H110.7z"/>
	<path class="st1" d="M119.7,177l-3.4,7.8c-0.7,1.6-1.6,2.1-2.8,2.1c-0.7,0-1.5-0.2-1.9-0.7l0.7-1.2c0.3,0.3,0.8,0.5,1.2,0.5
		c0.6,0,0.9-0.3,1.3-1l0.1-0.3l-3.2-7.3h1.8l2.3,5.4l2.3-5.4L119.7,177L119.7,177z"/>
	<path class="st1" d="M133.1,174.7v9.5h-1.8v-4.1h-4.9v4.1h-1.8v-9.5h1.8v3.9h4.9v-3.9H133.1z"/>
	<path class="st1" d="M142.2,181.1h-5.7c0.2,1.1,1.1,1.7,2.3,1.7c0.8,0,1.5-0.3,2-0.8l0.9,1c-0.7,0.8-1.7,1.2-2.9,1.2
		c-2.4,0-4-1.6-4-3.7c0-2.2,1.6-3.7,3.7-3.7c2.1,0,3.7,1.5,3.7,3.7C142.3,180.8,142.3,181,142.2,181.1z M136.6,180h4.1
		c-0.1-1-0.9-1.8-2-1.8C137.5,178.3,136.7,179,136.6,180z"/>
	<path class="st1" d="M148.1,176.9v1.6c-0.1,0-0.3,0-0.4,0c-1.3,0-2.1,0.8-2.1,2.2v3.5h-1.7V177h1.6v1.1
		C146,177.3,146.9,176.9,148.1,176.9z"/>
	<path class="st1" d="M156.2,181.1h-5.7c0.2,1.1,1.1,1.7,2.3,1.7c0.8,0,1.4-0.3,2-0.8l0.9,1c-0.7,0.8-1.7,1.2-2.9,1.2
		c-2.4,0-4-1.6-4-3.7c0-2.2,1.6-3.7,3.7-3.7c2.1,0,3.7,1.5,3.7,3.7C156.3,180.8,156.2,181,156.2,181.1z M150.5,180h4.1
		c-0.1-1-0.9-1.8-2-1.8C151.5,178.3,150.7,179,150.5,180z"/>
</g>
<g>
	<g>
		
			<linearGradient id="SVGID_1_" gradientUnits="userSpaceOnUse" x1="208.8952" y1="648.954" x2="208.8952" y2="598.854" gradientTransform="matrix(1 0 0 -1 0.14 708.454)">
			<stop  offset="0" style="stop-color:#F7E830"/>
			<stop  offset="1" style="stop-color:#FDCB06"/>
		</linearGradient>
		<path class="st2" d="M239.4,59.8c0-0.1-0.1-0.2-0.1-0.3c-20.2,0-40.4,0-60.6,0c-0.1,0.1-0.1,0.1-0.1,0.2c0,15.7,0,31.3,0,47
			c0.1,0.8,0.6,1.6,1.2,2.2h0.1c0.3,0.3,0.8,0.5,1.2,0.6c0.3,0,0.6,0.1,0.9,0.1h25.1c0.2,0,0.5,0,0.7-0.1v-0.1c0,0,0-0.1,0-0.2
			c0.5-3,1.1-6,1.6-9l0.1-0.4c-2.3,0-4.6,0-7,0c-0.6,0-1.1,0-1.7-0.1c-1,0-1.9,0-2.9-0.1c-1.2,0-2.4-0.1-3.6-0.1
			c-0.9-0.1-1.9-0.1-2.8-0.1c-0.6-0.1-1.2,0-1.9-0.1c-1-0.1-2,0-3.1-0.1c-1.1,0-2.1-0.1-3.2-0.1c0,0,0,0,0-0.1c0.4,0,0.7,0,1.1,0
			c0.8-0.1,1.6,0,2.4-0.1c0.8,0,1.6-0.1,2.5-0.1c0.7-0.1,1.5,0,2.2-0.1c0.9,0,1.7-0.1,2.6-0.1c0.7-0.1,1.4,0,2.1-0.1
			c0.8,0,1.6-0.1,2.5-0.1c0.8-0.1,1.6-0.1,2.4-0.2c-0.1-0.3-0.1-0.6-0.2-0.9c-0.1-0.2-0.3-0.2-0.5-0.2c-1.9-0.3-3.7-0.5-5.5-0.8
			c0.1-0.1,0.3-0.1,0.4-0.1c1.4-0.1,2.9-0.2,4.3-0.3c0.3,0,0.6-0.1,1-0.1c-0.1-0.4-0.2-0.9-0.4-1.3c-3.1-0.5-6.1-0.9-9.2-1.4
			c0.8-0.1,1.6-0.2,2.4-0.3h0.1c2.5-0.3,5.1-0.6,7.6-0.8c3.2,0,6.4,0,9.6,0c0.1,0,0.3,0,0.3-0.1c0.3-1.4,0.5-2.8,0.8-4.1
			c0.4-1.9,0.9-3.8,1.8-5.6c1.4-2.8,3.6-5.2,6.3-6.8c2.5-1.5,5.5-2.2,8.4-2.3c0.9-0.1,1.9-0.1,2.8,0.1c0.6,0.1,1.2,0.3,1.7,0.7
			c0.4,0.3,0.6,0.8,0.8,1.3c0.4,1.1,0.6,2.3,0.8,3.5c0,0.5,0.1,1-0.2,1.4c-0.2,0.4-0.7,0.6-1.2,0.8c-1.6,0.4-3.4,0-5,0.4
			c-1.4,0.3-2.6,1-3.5,2.1c-1,1.3-1.6,2.8-1.9,4.4c-0.2,1.4-0.5,2.8-0.8,4.2c1.6,0,3.2,0,4.9,0c0.6,0,1.3,0.4,1.6,1
			c0.3,0.8,0.3,1.7,0.2,2.5c-0.1,0.9-0.4,1.9-0.8,2.7c-0.3,0.7-0.9,1.4-1.7,1.6c-0.4,0.2-0.9,0.1-1.3,0.1c-1.4,0-2.9,0-4.3,0
			c-0.2,1-0.4,2.1-0.6,3.2c-0.4,2.1-0.7,4.2-1.1,6.2c0,0.1,0,0.2,0,0.3c0.7,0,1.3,0,2,0c5,0,10,0,15,0c0.5,0,1.1-0.1,1.6-0.4
			c0.3-0.1,0.5-0.3,0.7-0.5c0.2-0.1,0.3-0.4,0.5-0.6c0.2-0.4,0.5-0.8,0.5-1.3h0.1C239.4,91.1,239.4,75.4,239.4,59.8z"/>
		<path class="st3" d="M186.6,49.4c0.7-0.2,1.5-0.1,2.2-0.1c13.9,0,27.9,0,41.8,0c0.8,0,1.6,0.4,2.3,0.7c0.6,0.2,1.3,0.4,1.9,0.7
			c0.1,0.1,0.2,0.2,0.3,0.3c0,1.1,0,2.3,0,3.4c0,0.3,0,0.6,0.1,0.9c0.2,0,0.3,0.2,0.4,0.3c0.6,0.3,1,0.7,1.6,1
			c0.8,0.5,1.6,1,2.3,1.6c0,0.2,0,0.5-0.1,0.7s0,0.5-0.1,0.7c-20.2,0-40.4,0-60.6,0c0-0.3,0-0.6-0.1-0.8c0-0.2-0.1-0.5,0.1-0.7
			c0.9-0.6,1.8-1.1,2.6-1.8c0.5-0.3,1-0.7,1.5-1c0.1-0.2,0.1-0.4,0.1-0.6c0-1.2,0-2.5,0-3.7c0.3-0.4,0.8-0.4,1.2-0.6
			C184.9,50,185.8,49.7,186.6,49.4 M186.6,49.6c-1.1,0.4-2.2,0.8-3.3,1.2c-0.1,0-0.2,0.2-0.3,0.3c0,0.1,0,0.2,0,0.3c0,1,0,2,0,3.1
			c0,0.3,0,0.5,0.1,0.7c-0.1,0.1-0.2,0.2-0.4,0.3c-1.2,0.8-2.4,1.7-3.7,2.5c-0.2,0.1-0.5,0.3-0.4,0.6c0,0.2,0,0.3,0.2,0.2
			c2.7,0,5.3,0,8,0c4,0,8,0,11.9,0h0.1c0.2,0,0.4,0,0.5,0c7.2,0,14.4,0,21.7,0c2.3,0,4.5,0,6.8,0c3.8,0,7.5,0,11.3,0
			c0.1,0,0.1-0.1,0.1-0.2c0-0.1,0-0.3-0.1-0.4c-0.6-0.3-1.1-0.7-1.7-1.1c-0.2-0.2-0.5-0.3-0.6-0.5c-0.6-0.3-1.1-0.7-1.7-1.1
			c-0.1-0.1-0.2-0.2-0.3-0.3c0.1-0.2,0.1-0.4,0.1-0.6c0-1.1,0-2.2,0-3.2c0-0.2,0-0.4-0.1-0.5c-1-0.4-2-0.8-3.1-1.1
			c-0.3-0.2-0.7-0.2-1-0.3h-43.6C187,49.4,186.8,49.5,186.6,49.6L186.6,49.6z"/>
		<path class="st4" d="M183,51.3c0.8,0.3,1.6,0.5,2.3,0.8c0.4,0.2,0.5,0.6,0.7,1c-0.2,0.2-0.4,0.3-0.6,0.5c-0.8,0.5-1.6,1-2.4,1.6
			c-0.1-0.2-0.1-0.5-0.1-0.7C183,53.4,183,52.4,183,51.3z M232.6,52.1c0.8-0.3,1.6-0.5,2.3-0.8c0,1.1,0,2.2,0,3.2
			c0,0.2,0,0.4-0.1,0.6c-0.7-0.5-1.3-0.9-2-1.3c-0.3-0.2-0.7-0.4-1-0.7C232.1,52.7,232.2,52.3,232.6,52.1L232.6,52.1z"/>
		<path class="st5" d="M196.1,52.5c0.9-0.2,2,0.6,1.9,1.6c0,1-1,1.7-1.9,1.5c-0.4-0.1-0.7-0.3-1-0.7c-0.3-0.5-0.4-1.1-0.1-1.6
			C195.1,52.9,195.6,52.6,196.1,52.5L196.1,52.5z M220.4,53c0.4-0.4,1-0.7,1.6-0.5c0.4,0.1,0.9,0.4,1,0.8c0.4,0.7,0.1,1.7-0.6,2.1
			c-0.6,0.4-1.5,0.2-2-0.3C219.9,54.5,219.9,53.6,220.4,53z"/>
		<path class="st6" d="M185.5,53.6c0.2-0.1,0.4-0.3,0.6-0.5l0.1,0.1c0.1,0.4,0,0.9,0,1.3c0,1.3,0,2.7,0,4c-2.5,0-5,0-7.4,0
			c-0.1-0.3,0.2-0.5,0.4-0.6c1.2-0.8,2.4-1.7,3.7-2.5c0.1-0.1,0.3-0.2,0.4-0.3C183.9,54.6,184.7,54.1,185.5,53.6z M231.8,53.4
			c0-0.1,0-0.2,0.1-0.3c0.3,0.3,0.6,0.5,1,0.7c0.7,0.5,1.3,0.9,2,1.3c0.1,0.1,0.2,0.2,0.3,0.3c0.6,0.4,1.1,0.8,1.7,1.1
			c0.2,0.2,0.4,0.3,0.6,0.5c0.6,0.3,1.1,0.8,1.7,1.1c0.1,0.1,0.1,0.3,0.1,0.4c-2.5,0-5,0-7.4,0c0-0.3,0-0.7,0-1
			C231.8,56.1,231.8,54.8,231.8,53.4L231.8,53.4z"/>
		
			<radialGradient id="SVGID_2_" cx="208.6319" cy="626.0945" r="40.7747" gradientTransform="matrix(1 0 0 -1 0.14 708.454)" gradientUnits="userSpaceOnUse">
			<stop  offset="0.596" style="stop-color:#F29405"/>
			<stop  offset="0.736" style="stop-color:#F7D01E"/>
			<stop  offset="1" style="stop-color:#FDCB06"/>
		</radialGradient>
		<path class="st7" d="M239.3,58.5c-2.5,0-5,0-7.4,0c0-0.3,0-0.7,0-1c0-1.4,0-2.7,0-4.1c0-0.1,0-0.2,0.1-0.3c0.2-0.4,0.3-0.8,0.7-1
			c0.8-0.3,1.6-0.5,2.3-0.8c0-0.2,0-0.4-0.1-0.5c-1-0.4-2-0.8-3.1-1.1c-0.3-0.2-0.7-0.2-1-0.3h-43.6c-0.2,0-0.4,0.1-0.6,0.1
			c-1.1,0.4-2.2,0.8-3.3,1.2c-0.1,0-0.2,0.2-0.3,0.3c0,0.1,0,0.2,0,0.3c0.8,0.3,1.6,0.5,2.3,0.8c0.4,0.2,0.5,0.6,0.7,1l0.1,0.1
			c0.1,0.4,0,0.9,0,1.3c0,1.3,0,2.7,0,4c-2.5,0-5,0-7.4,0c0,0.2,0,0.3,0.2,0.2c2.7,0,5.3,0,8,0c4,0,8,0,11.9,0h0.1
			c0.2,0,0.4,0,0.5,0c7.2,0,14.4,0,21.7,0c2.3,0,4.5,0,6.8,0c3.8,0,7.5,0,11.3,0C239.3,58.7,239.3,58.6,239.3,58.5L239.3,58.5z
			 M194.9,53.4c0.2-0.5,0.6-0.8,1.1-0.9c0.9-0.2,2,0.6,1.9,1.6c0,1-1,1.7-1.9,1.5c-0.4-0.1-0.7-0.3-1-0.7
			C194.8,54.5,194.7,53.9,194.9,53.4L194.9,53.4z M220.4,53c0.4-0.4,1-0.7,1.6-0.5c0.4,0.1,0.9,0.4,1,0.8c0.4,0.7,0.1,1.7-0.6,2.1
			c-0.6,0.4-1.5,0.2-2-0.3C219.9,54.5,219.9,53.6,220.4,53z"/>
		
			<linearGradient id="SVGID_3_" gradientUnits="userSpaceOnUse" x1="222.8745" y1="647.1495" x2="222.8888" y2="644.7757" gradientTransform="matrix(1 0 0 -1 0.14 708.454)">
			<stop  offset="0" style="stop-color:#FADA1C"/>
			<stop  offset="1" style="stop-color:#FDCB06"/>
		</linearGradient>
		<path class="st8" d="M222.6,62.2c0.1,0-0.6-0.7-0.5-0.7s0.7-0.4,1.3-0.1c0.6,0.3,0.5,1.1,0.4,1.4c-0.1,0.3-0.3,0.6-0.5,0.7
			c-0.1,0.1-0.3,0.2-0.4,0.2c0.1-0.4-0.2-0.5-0.2-0.9L222.6,62.2z"/>
		
			<linearGradient id="SVGID_4_" gradientUnits="userSpaceOnUse" x1="-383.61" y1="647.263" x2="-383.5958" y2="644.8892" gradientTransform="matrix(-1 0 0 -1 -188.554 708.454)">
			<stop  offset="0" style="stop-color:#FADA1C"/>
			<stop  offset="1" style="stop-color:#FDCB06"/>
		</linearGradient>
		<path class="st9" d="M195.3,62.7c0,0.4-0.3,0.5-0.2,0.9c-0.1,0-0.3-0.1-0.4-0.2c-0.2-0.2-0.4-0.4-0.5-0.7s-0.2-1.1,0.4-1.4
			c0.6-0.3,1.1,0.1,1.3,0.1c0.1,0-0.6,0.8-0.5,0.7L195.3,62.7L195.3,62.7z"/>
		<path class="st5" d="M221.4,67.7c0.1-0.1,0.2-0.1,0.4-0.1c-1,2.2-2.2,4.4-4,6.2c-0.2,0.2-0.4,0.3-0.6,0.5
			c-0.2,0.2-0.4,0.3-0.6,0.4c-0.2,0.1-0.4,0.3-0.6,0.4c-0.5,0.3-0.9,0.6-1.4,0.8c-1,0.5-2,0.8-3.1,1c-0.4,0.1-0.8,0.2-1.3,0.2
			c-0.5,0.2-1.1,0-1.6,0.1c-0.3,0.1-0.6-0.1-0.9-0.1c-0.3,0-0.5-0.1-0.8-0.1c-0.3-0.1-0.5-0.1-0.8-0.2c-3.9-1.2-7.7-4.2-8.9-8.2
			c-0.1-0.3-0.1-0.5-0.1-0.8c0.1,0.2,0.2,0.5,0.4,0.7c1.6,3.5,4.7,6.2,8.5,7c0.3,0.1,0.6,0.1,0.9,0.2c0.3,0,0.5,0,0.8,0.1
			c0.9,0,1.8,0,2.6,0c0.1,0,0.2-0.1,0.3-0.1c1.5,0,2.9-0.4,4.2-1.1c0.3-0.1,0.5-0.3,0.8-0.4c0.2-0.1,0.4-0.2,0.7-0.4
			c0.2-0.1,0.4-0.3,0.6-0.4c1.6-1.3,2.9-2.9,3.9-4.7C221.1,68.3,221.3,68,221.4,67.7z"/>
		<path class="st10" d="M220.1,75.3c2.5-1.5,5.5-2.2,8.4-2.3c0.9-0.1,1.9-0.1,2.8,0.1c0.6,0.1,1.2,0.3,1.7,0.7
			c-0.2,0-0.5-0.1-0.7-0.1c-0.7-0.1-1.4-0.1-2.1-0.1c-2.1,0-4.1,0.2-6.1,0.7c-1,0.3-2.1,0.7-3,1.2c-1.6,0.9-3.1,2.1-4.3,3.5
			c-2.1,2.4-3.4,5.6-4,8.7c-0.3,1.7-0.6,3.4-0.9,5.1c-0.4,0-0.9,0-1.3,0c-1.9,0-3.8,0-5.6,0c-0.4,0-0.8-0.1-1.2-0.1
			c-3.4,0-6.8,0-10.2,0h0.1c2.5-0.3,5.1-0.6,7.6-0.8c3.2,0,6.4,0,9.6,0c0.1,0,0.3,0,0.3-0.1c0.3-1.4,0.5-2.8,0.8-4.1
			c0.4-1.9,0.9-3.8,1.8-5.6C215.1,79.3,217.3,76.9,220.1,75.3z"/>
		<path class="st11" d="M224,74.2c2-0.6,4.1-0.7,6.1-0.7c0.7,0,1.4,0,2.1,0.1c0.2,0,0.5,0.1,0.7,0.1c0.4,0.3,0.6,0.8,0.8,1.3
			c0.4,1.1,0.6,2.3,0.8,3.5c0,0.5,0.1,1-0.2,1.4c-0.2,0.4-0.7,0.6-1.2,0.8c-1.6,0.4-3.4,0-5,0.4c-1.4,0.3-2.6,1-3.5,2.1
			c-1,1.3-1.6,2.8-1.9,4.4c-0.2,1.4-0.5,2.8-0.8,4.2c-0.1,0.3-0.2,0.7-0.2,1c1.6,0,3.2,0,4.8,0c0.6,0,1.2,0,1.8,0
			c0.3,0.8,0.3,1.7,0.2,2.5c-0.1,0.9-0.4,1.9-0.8,2.7c-0.3,0.7-0.9,1.4-1.7,1.6c-0.4,0.2-0.9,0.1-1.3,0.1c-1.4,0-2.9,0-4.3,0
			c-0.2,1-0.4,2.1-0.6,3.2c-0.4,2.1-0.7,4.2-1.1,6.2c0,0.1,0,0.2,0,0.3l0,0c-3.7,0-7.4,0-11.2,0v-0.1c0,0,0-0.1,0-0.2
			c0,0.1,0,0.2,0,0.3c0.2,0,0.6,0.1,0.7-0.2c0.6-3.1,1.1-6.3,1.7-9.4c-0.2-0.1-0.5-0.1-0.7,0c0,0.1-0.1,0.2-0.1,0.4l0.1-0.4
			c-2.3,0-4.6,0-7,0c-0.6,0-1.1,0-1.7-0.1c-1,0-1.9,0-2.9-0.1c-1.2,0-2.4-0.1-3.6-0.1c-0.9-0.1-1.9-0.1-2.8-0.1
			c-0.6-0.1-1.2,0-1.9-0.1c-1-0.1-2,0-3.1-0.1c-1.1,0-2.1-0.1-3.2-0.1c0,0,0,0,0-0.1c0.4,0,0.7,0,1.1,0c0.8-0.1,1.6,0,2.4-0.1
			c0.8,0,1.6-0.1,2.5-0.1c0.7-0.1,1.5,0,2.2-0.1c0.9,0,1.7-0.1,2.6-0.1c0.7-0.1,1.4,0,2.1-0.1c0.8,0,1.6-0.1,2.5-0.1
			c0.8-0.1,1.6-0.1,2.4-0.2c-0.1-0.3-0.1-0.6-0.2-0.9c-0.1-0.2-0.3-0.2-0.5-0.2c-1.9-0.3-3.7-0.5-5.5-0.8c0.1-0.1,0.3-0.1,0.4-0.1
			c1.4-0.1,2.9-0.2,4.3-0.3c0.3,0,0.6-0.1,1-0.1c-0.1-0.4-0.2-0.9-0.4-1.3c-3.1-0.5-6.1-0.9-9.2-1.4c0.8-0.1,1.6-0.2,2.4-0.3
			c3.4,0,6.8,0,10.2,0c0.4,0,0.8,0.1,1.2,0.1c1.9,0,3.8,0,5.6,0c0.4,0,0.9,0,1.3,0c0.3-1.7,0.6-3.4,0.9-5.1c0.6-3.2,1.9-6.3,4-8.7
			c1.2-1.4,2.7-2.6,4.3-3.5C221.9,74.9,223,74.5,224,74.2z"/>
		<path class="st10" d="M222.2,91.9c1.6,0,3.2,0,4.9,0c0.6,0,1.3,0.4,1.6,1c-0.6,0-1.2,0-1.8,0c-1.6,0-3.2,0-4.8,0
			C222,92.5,222.1,92.2,222.2,91.9L222.2,91.9z M209.6,99.9c0.2,0,0.5,0,0.7,0c-0.6,3.1-1.1,6.3-1.7,9.4c-0.1,0.3-0.5,0.2-0.7,0.2
			c0-0.1,0-0.2,0-0.3c0.5-3,1.1-6,1.6-9C209.6,100.1,209.6,100,209.6,99.9L209.6,99.9z"/>
		<path class="st12" d="M223,62.5c-0.1-0.1-0.1-0.3-0.1-0.4h-0.1c-0.1-0.4-0.4-0.7-0.8-0.8c-0.3,0-0.7,0-0.9,0.3
			c-0.3,0.5-0.2,1-0.2,1.6v0.1c0,0.3,0,0.7-0.1,1c-0.1,0.1-0.1,0.2-0.1,0.3c-0.1,0.8-0.4,1.6-0.8,2.3c-0.1,0.1-0.1,0.2-0.2,0.3
			c-0.3,0.4-0.6,0.9-0.9,1.3c-0.1,0-0.1,0.1-0.1,0.1c-0.2,0.3-0.5,0.5-0.7,0.7c-0.1,0-0.1,0.1-0.2,0.1c-0.3,0.3-0.6,0.5-1,0.8
			l-0.1,0.1c-2.2,1.4-4.8,2-7.4,2.1c-2.2,0.1-4.4-0.4-6.4-1.3c0,0-0.1-0.1-0.2-0.1c-0.3-0.2-0.7-0.3-1-0.6c-0.1,0-0.1-0.1-0.2-0.1
			c-0.3-0.2-0.6-0.4-0.9-0.6c-0.1-0.1-0.2-0.2-0.3-0.2c-0.3-0.2-0.6-0.5-0.9-0.8c-0.1-0.1-0.1-0.1-0.2-0.2c-0.9-1-1.7-2.1-2-3.4
			c-0.4-1-0.3-2.1-0.4-3.2c-0.3-0.5-1-0.7-1.5-0.4c-0.2,0.2-0.2,0.4-0.4,0.6c-0.3,2.8,0.9,5.6,2.9,7.7c0,0.1,0,0.1,0.1,0.1
			c0.3,0.3,0.7,0.6,1,0.9c0.1,0.1,0.1,0.1,0.2,0.2c0.3,0.3,0.7,0.5,1.1,0.8c0.1,0.1,0.1,0.1,0.2,0.1c0.5,0.3,0.9,0.6,1.4,0.8
			l0.1,0.1c1.6,0.8,3.4,1.3,5.2,1.5c0.2,0,0.4,0,0.6,0.1c0.9,0.1,1.7,0,2.6,0c2.6-0.2,5.4-0.9,7.6-2.4l0,0c0.1-0.1,0.1-0.1,0.2-0.2
			c0.3-0.3,0.7-0.5,1-0.8c0.1-0.1,0.2-0.1,0.2-0.2c0.4-0.4,0.8-0.8,1.1-1.3h0.1c0,0,0.1-0.1,0.1-0.2c0.3-0.4,0.6-0.8,0.8-1.2
			l0.1-0.1l0,0l0.1-0.1c0.5-1,0.9-2,1-3c0.1,0,0.1-0.1,0.1-0.1c0-0.3,0.1-0.7,0.1-1C223,63.3,223,62.9,223,62.5L223,62.5z"/>
		<g>
			<g>
				<defs>
					<path id="SVGID_5_" d="M223,62.5c-0.1-0.1-0.1-0.3-0.1-0.4h-0.1c-0.1-0.4-0.4-0.7-0.8-0.8c-0.3,0-0.7,0-0.9,0.3
						c-0.3,0.5-0.2,1-0.2,1.6v0.1c0,0.3,0,0.7-0.1,1c-0.1,0.1-0.1,0.2-0.1,0.3c-0.1,0.8-0.4,1.6-0.8,2.3c-0.1,0.1-0.1,0.2-0.2,0.3
						c-0.3,0.4-0.6,0.9-0.9,1.3c-0.1,0-0.1,0.1-0.1,0.1c-0.2,0.3-0.5,0.5-0.7,0.7c-0.1,0-0.1,0.1-0.2,0.1c-0.3,0.3-0.6,0.5-1,0.8
						l-0.1,0.1c-2.2,1.4-4.8,2-7.4,2.1c-2.2,0.1-4.4-0.4-6.4-1.3c0,0-0.1-0.1-0.2-0.1c-0.3-0.2-0.7-0.3-1-0.6
						c-0.1,0-0.1-0.1-0.2-0.1c-0.3-0.2-0.6-0.4-0.9-0.6c-0.1-0.1-0.2-0.2-0.3-0.2c-0.3-0.2-0.6-0.5-0.9-0.8
						c-0.1-0.1-0.1-0.1-0.2-0.2c-0.9-1-1.7-2.1-2-3.4c-0.4-1-0.3-2.1-0.4-3.2c-0.3-0.5-1-0.7-1.5-0.4c-0.2,0.2-0.2,0.4-0.4,0.6
						c-0.3,2.8,0.9,5.6,2.9,7.7c0,0.1,0,0.1,0.1,0.1c0.3,0.3,0.7,0.6,1,0.9c0.1,0.1,0.1,0.1,0.2,0.2c0.3,0.3,0.7,0.5,1.1,0.8
						c0.1,0.1,0.1,0.1,0.2,0.1c0.5,0.3,0.9,0.6,1.4,0.8l0.1,0.1c1.6,0.8,3.4,1.3,5.2,1.5c0.2,0,0.4,0,0.6,0.1c0.9,0.1,1.7,0,2.6,0
						c2.6-0.2,5.4-0.9,7.6-2.4l0,0c0.1-0.1,0.1-0.1,0.2-0.2c0.3-0.3,0.7-0.5,1-0.8c0.1-0.1,0.2-0.1,0.2-0.2c0.4-0.4,0.8-0.8,1.1-1.3
						h0.1c0,0,0.1-0.1,0.1-0.2c0.3-0.4,0.6-0.8,0.8-1.2l0.1-0.1l0,0l0.1-0.1c0.5-1,0.9-2,1-3c0.1,0,0.1-0.1,0.1-0.1
						c0-0.3,0.1-0.7,0.1-1C223,63.3,223,62.9,223,62.5L223,62.5z"/>
				</defs>
				<clipPath id="SVGID_6_">
					<use xlink:href="#SVGID_5_"  style="overflow:visible;"/>
				</clipPath>
				<g class="st13">
					<path class="st14" d="M194.4,62.2c0.7,0.2,2.3-0.3,2.7,0.2 M194.8,64.3c0.7-0.2,2.1-0.8,2.7-0.5 M195.5,66.4
						c0.3,0.1,1-0.5,1.3-0.6c0.5-0.2,0.9-0.4,1.5-0.5 M196.5,68.6c0.3-0.5,0.7-0.9,1.2-1.2c0.5-0.3,1.8-1.2,2.3-0.9 M197.5,70.2
						c0.4-0.3,0.5-0.8,0.9-1.1c0.5-0.4,1.2-0.4,1.7-0.7 M199.1,71.4c0.1-0.8,0.9-1.8,1.7-1.7 M200.3,72.5c0.4,0,0.8-1,1.1-1.3
						c0.4-0.5,0.9-0.6,1.4-0.8 M202.8,73.6c0-0.6,0.6-2.3,1.3-2.2 M204.6,74.1c0-0.7,0.3-2.8,1.2-2.9 M206.5,75.3
						c-0.2-1-0.2-2.4,0.6-3.1 M208.8,75.5c-0.1-0.8-0.9-2.5,0-3.1 M211.3,74.9c-0.4-0.5-0.6-2.2-0.5-2.7 M213.7,74.5
						c-0.3-0.5-0.7-1.1-0.8-1.7c-0.1-0.4,0.1-0.9,0-1.2 M215.7,73.7c-0.7-0.4-0.8-2-0.6-2.7 M217.6,72.8c-0.5-1-1-1.8-1-2.9
						 M219.5,71c-0.7-0.5-1.6-1.4-1.5-2.3 M221.5,69.5c-1.1-0.2-2.4-1.2-3.1-2.1 M222.4,67.6c-0.8-0.2-3.4-1.2-3.2-2.2 M223.3,65.6
						c-1.1-0.4-2.7-0.8-3.6-1.5 M223.8,63.8c-0.7,0.1-1.7-0.3-2.4-0.4c-0.8-0.1-1.5-0.4-2.3-0.6 M223.1,62c-1.3,0.1-2.6-0.4-3.8-0.8
						"/>
				</g>
			</g>
		</g>
		<g>
			<path class="st15" d="M52,66.1c1.2-0.2,2.7-0.3,3.7,0.5c0.7,0.5,0.9,1.4,0.8,2.2c0,1.3-0.6,2.7-1.7,3.4c-1,0.6-2.3,0.6-3.4,0.5
				c-0.8-0.1-1.5-0.5-1.9-1.2C48.6,69.4,49.7,66.5,52,66.1L52,66.1z M15,67.6c0.1-0.7,0.7-1.3,1.4-1.3c5.4,0,10.8,0,16.1,0
				c0.6,0,1.2,0.2,1.5,0.7c0.4,0.7,0,1.5,0,2.2c-0.2,1-0.1,2.3-1.3,2.7c-3.9,0.1-7.8,0-11.8,0c-0.4,2.5-0.7,4.9-1.1,7.4
				c0,0.1,0,0.3,0,0.4c2.9,0,5.7,0,8.6,0c0.8,0,1.6,0.6,1.6,1.5c-0.1,0.9-0.3,1.7-0.4,2.6c-0.1,0.6-0.6,1.1-1.2,1.2
				c-3.2,0.1-6.4-0.1-9.6,0.1c-0.5,3.5-1.1,7-1.7,10.6C17,96.4,16.5,97,15.8,97c-1.3,0-2.7,0-4,0c-0.9,0-1.6-0.9-1.3-1.7
				C12,85.9,13.5,76.8,15,67.6L15,67.6z M38.7,66.3c1.2-0.1,2.4,0,3.7,0c0.7,0,1.5,0.5,1.6,1.3c0,0.6-0.2,1.2-0.2,1.8
				c-1,6.2-2,12.5-3,18.7c-0.1,1-0.4,2.1-0.1,3.1c0.3,1,1.9,0.6,2.3,1.7c0.2,0.9,0,1.8-0.1,2.7c-0.1,1.2-1.4,1.4-2.3,1.7
				c-2,0.4-4.4,0.1-5.8-1.5c-1-1.2-1.1-2.9-0.9-4.4c1.2-7.9,2.5-15.9,3.7-23.8C37.6,67,38.1,66.4,38.7,66.3L38.7,66.3z M85,67.6
				c0.1-0.7,0.7-1.3,1.4-1.3h3.5c0.9,0,1.6,0.9,1.4,1.8c-0.8,5.2-1.7,10.4-2.5,15.5c1.2-0.2,2.6-0.4,3.5-1.4
				c1.4-1.6,2.6-3.5,3.5-5.5c0.3-0.8,0.5-1.9,1.5-2c1.3,0,2.7,0,4,0c0.9,0,1.6,1,1.3,1.8c-0.3,1.2-0.9,2.4-1.5,3.5
				c-1.4,2.2-2.8,4.4-4.8,6.1c0.9,2.6,2,5.1,2.9,7.6c0.3,0.8,1,1.8,0.3,2.6c-0.7,1-2.1,0.5-3.1,0.6c-1-0.1-2.6,0.4-3.1-0.8
				c-1.1-2.5-2-5.2-3.1-7.7c-0.7,0-1.3,0-2,0c0,0.1-0.1,0.3-0.2,0.4c-0.3,2.3-0.7,4.7-1.1,7c-0.1,0.6-0.6,1-1.2,1.1
				c-1.2,0-2.5,0-3.8,0c-0.5,0-1-0.3-1.3-0.8c-0.2-0.5-0.1-1,0-1.5C82.1,85.6,83.5,76.6,85,67.6L85,67.6z M149.8,70.1
				c0.2-0.7,0.8-1.1,1.4-1.1c0.9,0,1.9,0,2.8,0c0.8,0,1.4,0.8,1.3,1.5c-0.1,1.3-0.5,2.7-0.6,4c0.9,0,1.8,0,2.8,0
				c0.8,0,1.5,0.8,1.4,1.6c-0.1,0.7-0.3,1.4-0.4,2.1c-0.1,0.6-0.6,1.1-1.2,1.2c-1.1,0.1-2.2,0-3.3,0.1c-0.5,3.1-1,6.2-1.5,9.4
				c-0.1,0.7-0.1,1.5,0.3,2.2c0.6,0.8,1.7,0.5,2.6,0.6c0.7,0.2,1.1,1,1,1.7c-0.1,0.8-0.1,1.6-0.3,2.4c-0.3,0.9-1.3,1-2.1,1.2
				c-2.1,0.6-4.6,0.6-6.5-0.7c-1.7-1.2-2-3.5-1.8-5.5c0.5-3.8,1.3-7.5,1.7-11.3c-0.7,0-1.4,0.1-1.9-0.5c-0.6-0.6-0.3-1.4-0.2-2.2
				c0.1-0.8,0.1-1.8,1-2.2c0.7-0.3,1.4-0.1,2.2-0.2C148.9,73.1,149.3,71.6,149.8,70.1L149.8,70.1z M136.6,77.7
				c1.5-1.5,3.2-2.7,5.3-3.3c0.9-0.4,2,0.3,2,1.3c-0.2,1.3-0.5,2.5-0.7,3.8c-0.1,0.6-0.6,1.2-1.3,1.2c-2.3,0.4-4.3,1.8-5.9,3.4
				c-0.4,0.5-1,1-1,1.6c-0.5,3.3-1,6.5-1.5,9.8c-0.1,0.7-0.7,1.4-1.4,1.3h-3.5c-0.8,0-1.5-0.8-1.4-1.6c1-6.5,2.1-12.9,3.1-19.4
				c0-0.7,0.5-1.3,1.2-1.4c0.9,0,1.7,0,2.6,0c0.7,0,1.4,0.6,1.4,1.4c0,1-0.1,2-0.1,3.1C135.8,78.7,136.1,78.1,136.6,77.7L136.6,77.7
				z M49.4,74.7c1.3-0.3,2.6,0,3.8-0.1c0.7-0.1,1.5,0.4,1.6,1.1s-0.1,1.3-0.2,1.9c-1,6-1.9,12-2.8,18c-0.1,0.7-0.6,1.4-1.4,1.3
				c-1.3,0-2.5,0-3.8,0c-0.8-0.1-1.4-1-1.2-1.8c1-6.2,2-12.4,3-18.7C48.5,75.8,48.7,75,49.4,74.7z M124.9,75
				c-3.5-0.7-7-1.1-10.5-0.8c-3.1,0.4-6.3,1.8-8.3,4.4c-2.7,3.4-3.6,8-3,12.2c0.3,2,1.2,4.1,2.9,5.3c1.5,1.2,3.6,1.4,5.5,1
				c2.6-0.5,4.8-2.2,6.6-4.1c0.1,0.8-0.1,1.6,0,2.4c0,0.7,0.7,1.4,1.4,1.4h2.4c0.7,0,1.3-0.7,1.3-1.3c1-6.3,2-12.6,3-18.9
				C126.3,75.9,125.7,75.1,124.9,75L124.9,75z M118.3,86c-0.9,1.7-2.2,3.3-3.7,4.7c-0.8,0.7-1.9,1.4-3.1,1.2
				c-1.1-0.2-1.7-1.4-1.9-2.4c-0.6-2.6,0-5.5,1.4-7.7c0.7-1,1.7-1.8,2.9-2.2c1.7-0.4,3.5-0.2,5.2,0.3l0.1,0.1
				C119,82,118.6,84,118.3,86L118.3,86z M79.1,82.5c0-2.3-0.7-4.8-2.3-6.5c-1.1-1.2-2.8-1.9-4.4-1.8c-2.7-0.1-5.2,1.2-7.2,3
				c-0.4,0.3-0.7,0.9-1.2,1.1c0-0.8,0.1-1.5,0-2.3c0-0.7-0.7-1.4-1.4-1.4h-2.4c-0.7,0-1.4,0.7-1.4,1.4c-1.5,9.3-3,18.7-4.4,28
				c-0.2,0.9,0.5,1.7,1.4,1.7c1.3,0,2.6,0.1,3.9-0.1c1-0.3,1-1.5,1.2-2.3c0.4-2.1,0.6-4.1,0.9-6.2c4.6,0.9,9.9,0.3,13.4-3.2
				C77.9,90.8,79.3,86.6,79.1,82.5L79.1,82.5z M72.6,84.9c-0.1,2.1-0.9,4.3-2.4,5.9c-1.9,1.8-4.9,1.6-7.3,1c0-0.1-0.1-0.2-0.1-0.3
				c0.4-2,0.6-4.1,1-6.1c1.3-2.1,2.9-4.3,5.2-5.5c0.8-0.4,2-0.3,2.6,0.5C72.6,81.6,72.7,83.3,72.6,84.9L72.6,84.9z"/>
		</g>
	</g>
	<g>
		<linearGradient id="SVGID_7_" gradientUnits="userSpaceOnUse" x1="125.2049" y1="200.0011" x2="124.8656" y2="165.3989">
			<stop  offset="0" style="stop-color:#1F4D97"/>
			<stop  offset="1" style="stop-color:#1D83D0"/>
		</linearGradient>
		<path class="st16" d="M178.1,199.5H72c-9.3,0-16.8-7.5-16.8-16.8s7.5-16.8,16.8-16.8h106c9.3,0,16.8,7.5,16.8,16.8
			S187.3,199.5,178.1,199.5z"/>
		<linearGradient id="SVGID_8_" gradientUnits="userSpaceOnUse" x1="125.2546" y1="166.9045" x2="124.8158" y2="198.4955">
			<stop  offset="0" style="stop-color:#0F337A"/>
			<stop  offset="1" style="stop-color:#1D83D0"/>
		</linearGradient>
		<path class="st17" d="M178,197.8H72.1c-8.3,0-15.1-6.8-15.1-15.1c0-8.3,6.8-15.1,15.1-15.1H178c8.3,0,15.1,6.8,15.1,15.1
			C193.1,191,186.3,197.8,178,197.8z"/>
		<g>
			<path class="st1" d="M95.1,183.5c0.4,0.5,0.6,1.1,0.6,1.8c0,0.6-0.1,1.1-0.4,1.6c-0.3,0.5-0.7,0.8-1.3,1.1
				c-0.6,0.3-1.2,0.4-2,0.4h-4.9v-11.3h4.7c0.8,0,1.4,0.1,2,0.4c0.6,0.2,1,0.6,1.3,1c0.3,0.4,0.4,0.9,0.4,1.5c0,0.7-0.2,1.2-0.5,1.7
				c-0.4,0.4-0.8,0.8-1.4,0.9C94.1,182.7,94.7,183,95.1,183.5z M89.3,181.7h2.1c0.5,0,1-0.1,1.3-0.4s0.4-0.6,0.4-1
				c0-0.5-0.1-0.8-0.4-1.1c-0.3-0.2-0.7-0.4-1.3-0.4h-2.1V181.7z M92.9,186.2c0.3-0.3,0.5-0.6,0.5-1.1c0-0.5-0.2-0.9-0.5-1.1
				c-0.3-0.3-0.8-0.4-1.3-0.4h-2.2v3.1h2.3C92.2,186.5,92.6,186.4,92.9,186.2z"/>
			<path class="st1" d="M99.8,177.1v7c0,0.8,0.2,1.4,0.6,1.8c0.4,0.4,1,0.6,1.7,0.6c0.7,0,1.3-0.2,1.7-0.6c0.4-0.4,0.6-1,0.6-1.8v-7
				h2.3v7c0,1-0.2,1.8-0.6,2.4c-0.4,0.7-1,1.2-1.7,1.5c-0.7,0.3-1.5,0.5-2.3,0.5c-0.8,0-1.6-0.2-2.3-0.5c-0.7-0.3-1.2-0.8-1.6-1.5
				c-0.4-0.7-0.6-1.5-0.6-2.4v-7H99.8z"/>
			<path class="st1" d="M117.9,177.1l-3.8,7.4v3.9h-2.3v-3.9l-3.9-7.4h2.6l2.4,5.2l2.4-5.2H117.9z"/>
			<path class="st1" d="M132.8,188.4h-2.3l-5.2-7.8v7.8h-2.3V177h2.3l5.2,7.8V177h2.3V188.4z"/>
			<path class="st1" d="M137.4,187.8c-0.9-0.5-1.6-1.2-2.1-2.1c-0.5-0.9-0.8-1.9-0.8-3c0-1.1,0.3-2.1,0.8-3c0.5-0.9,1.2-1.6,2.1-2.1
				c0.9-0.5,1.9-0.7,2.9-0.7c1.1,0,2.1,0.2,2.9,0.7c0.9,0.5,1.6,1.2,2.1,2.1c0.5,0.9,0.8,1.9,0.8,3c0,1.1-0.3,2.1-0.8,3
				c-0.5,0.9-1.2,1.6-2.1,2.1c-0.9,0.5-1.9,0.7-2.9,0.7C139.3,188.5,138.3,188.3,137.4,187.8z M142.1,186c0.5-0.3,0.9-0.8,1.2-1.3
				c0.3-0.6,0.4-1.2,0.4-2c0-0.8-0.1-1.4-0.4-2c-0.3-0.6-0.7-1-1.2-1.3c-0.5-0.3-1.1-0.5-1.8-0.5s-1.3,0.2-1.8,0.5
				c-0.5,0.3-0.9,0.7-1.2,1.3c-0.3,0.6-0.4,1.2-0.4,2c0,0.8,0.1,1.4,0.4,2c0.3,0.6,0.7,1,1.2,1.3c0.5,0.3,1.1,0.5,1.8,0.5
				S141.6,186.3,142.1,186z"/>
			<path class="st1" d="M163,177.1l-3.2,11.3h-2.7l-2.1-8.1l-2.2,8.1l-2.7,0l-3.1-11.4h2.4l2,8.8l2.3-8.8h2.5l2.2,8.8l2-8.8H163z"/>
		</g>
		<circle class="st1" cx="176.5" cy="182.7" r="8.9"/>
		<linearGradient id="SVGID_9_" gradientUnits="userSpaceOnUse" x1="170.0921" y1="176.8963" x2="179.696" y2="186.5002">
			<stop  offset="0" style="stop-color:#0F337A"/>
			<stop  offset="1" style="stop-color:#1D83D0"/>
		</linearGradient>
		<path class="st18" d="M178.8,187.5l2-1.6l-2.5-2.8c-0.1-0.1-0.1-0.3,0.1-0.4l1.6-0.9l-7.6-3.9l2.3,8.3l1.2-1.5
			c0.1-0.1,0.3-0.1,0.3,0L178.8,187.5z"/>
		<g>
			<path class="st1" d="M81.5,185.3h-7.7l-3.5-8h-4.5c-0.2,0-0.4,0.2-0.4,0.4c0,0.2,0.2,0.4,0.4,0.4h4l3.5,8h1.3
				c-0.2,0.2-0.4,0.5-0.4,0.8c0,0.6,0.5,1.1,1.1,1.1c0.6,0,1.1-0.5,1.1-1.1c0-0.3-0.2-0.6-0.4-0.8h2.4c-0.2,0.2-0.4,0.5-0.4,0.8
				c0,0.6,0.5,1.1,1.1,1.1c0.6,0,1.1-0.5,1.1-1.1c0-0.3-0.2-0.6-0.4-0.8h1.8c0.2,0,0.4-0.2,0.4-0.4S81.7,185.3,81.5,185.3z
				 M75.2,187.2c-0.1,0-0.3-0.1-0.3-0.3c0-0.1,0.1-0.3,0.3-0.3c0.1,0,0.3,0.1,0.3,0.3C75.5,187.1,75.4,187.2,75.2,187.2z M79,187.2
				c-0.1,0-0.3-0.1-0.3-0.3c0-0.1,0.1-0.3,0.3-0.3c0.1,0,0.3,0.1,0.3,0.3C79.3,187.1,79.2,187.2,79,187.2z"/>
			<path class="st1" d="M73.8,184.1c0.1,0.3,0.5,0.5,0.8,0.5h6c0.5,0,0.9-0.4,0.9-0.8l0.2-4.2c0-0.2-0.1-0.5-0.2-0.6
				c-0.2-0.2-0.4-0.3-0.6-0.3l-8.1-0.3c-0.3,0-0.5,0.1-0.7,0.3c-0.2,0.2-0.2,0.5-0.1,0.8L73.8,184.1z M80.6,179.7l-0.2,3.9h-5.7
				l-1.7-4.2L80.6,179.7z"/>
		</g>
	</g>
</g>
</svg>
