<?xml version="1.0" encoding="utf-8"?>
<!-- Generator: Adobe Illustrator 24.3.0, SVG Export Plug-In . SVG Version: 6.00 Build 0)  -->
<svg version="1.1" id="Layer_1" xmlns="http://www.w3.org/2000/svg" xmlns:xlink="http://www.w3.org/1999/xlink" x="0px" y="0px"
	 viewBox="0 0 148 49" style="enable-background:new 0 0 148 49;" xml:space="preserve">
<style type="text/css">
	.st0{clip-path:url(#SVGID_2_);fill:#0A4084;}
	.st1{clip-path:url(#SVGID_2_);fill-rule:evenodd;clip-rule:evenodd;fill:#FFFFFF;}
	.st2{clip-path:url(#SVGID_2_);fill:none;stroke:#0A4084;stroke-width:0.216;stroke-miterlimit:2.6131;}
	.st3{clip-path:url(#SVGID_2_);fill-rule:evenodd;clip-rule:evenodd;fill:#0A4084;}
</style>
<g>
	<defs>
		<rect id="SVGID_1_" width="148" height="49"/>
	</defs>
	<clipPath id="SVGID_2_">
		<use xlink:href="#SVGID_1_"  style="overflow:visible;"/>
	</clipPath>
	<path class="st0" d="M40.3,12.4c1.6-0.1,3.2,0,4.7,0.4c1.5,0.4,2.8,1,4,1.9c1.2,0.9,2.1,1.9,2.9,3.2c0.8,1.3,1.2,2.8,1.4,4.4
		c0.2,1.7,0,3.2-0.5,4.6c-0.5,1.4-1.3,2.6-2.3,3.6c-1,1-2.2,1.8-3.6,2.5c-1.4,0.6-2.9,1-4.6,1.1c-1.6,0.1-3.2,0-4.7-0.3
		c-1.5-0.4-2.8-1-4-1.8c-1.2-0.8-2.1-1.9-2.9-3.2c-0.8-1.3-1.2-2.8-1.4-4.5c-0.2-1.7,0-3.2,0.5-4.6c0.5-1.4,1.3-2.6,2.3-3.7
		c1-1,2.2-1.9,3.6-2.5C37.1,12.9,38.7,12.5,40.3,12.4 M40.9,19.3c-0.6,0.1-1.2,0.2-1.7,0.5c-0.5,0.3-0.9,0.6-1.2,1
		c-0.3,0.4-0.5,0.9-0.7,1.4c-0.1,0.5-0.2,1-0.1,1.6c0.1,1.2,0.6,2.2,1.4,2.8c0.8,0.7,1.8,1,3,0.9c1.2-0.1,2.2-0.6,2.8-1.4
		c0.7-0.8,1-1.8,0.9-3c-0.1-0.6-0.2-1.1-0.4-1.6c-0.2-0.5-0.5-0.9-0.9-1.2c-0.4-0.4-0.8-0.6-1.3-0.8C42.1,19.3,41.6,19.2,40.9,19.3z
		"/>
	<path class="st0" d="M31.8,31.9l2.4-2.9L34,28.8l6.6-9.3l-3,4.1l-0.3,0.5l-0.2,0.3l-0.3-0.2l-0.2-0.1l0,0l-0.4-0.2l0.2-0.1l0.1-0.2
		c2.9-5.2,5.7-10.8,8.7-15.8c2.4-4.1,6.3-7.2,11.5-5.6c1-0.4,2.4-0.4,3.2,0.2l-0.5,0.3l1.4,0.1L59,3.9c0.4,0.7,0.9,2.7,0.9,4.5
		c0,1.8-0.4,3.5-2.1,3.2c-0.1,0-0.2,0-0.3-0.1h0l0,0c0,0-0.1,0-0.1,0h0c0,0,0,0-0.1,0c0,0.1,0,0.2-0.1,0.3c-0.1,0.4-0.3,0.6-0.4,0.9
		l0,0l0,0c-1.4,1.9-1.3,4.8-3.4,5.6c-0.1,0.1-0.2,0.2-0.2,0.3c-0.1,0.1-0.2,0.3-0.3,0.4c-0.5,0.5-0.9,0.8-1,0.8l-11.9,7.6l-0.3,0.2
		l-0.2-0.2l-0.1-0.2l-0.1-0.1l-1.3,1.1l-0.3,0.2l-0.2-0.2L37.2,28l0,0l-5.2,5.2l-0.2,0.2l-0.2-0.2L31.3,33L31,32.8l0.2-0.3l0,0v0
		l0,0l0,0l0.1-0.1v0C31.4,32.3,31.6,32.1,31.8,31.9L31.8,31.9z"/>
	<path class="st1" d="M32.1,32.3c-0.4,0.4-0.6,0.7-0.6,0.7l14.9-14.9l0.2,0.3l-9,9.4l0.5-0.4L37.5,28l10.6-8.5c0,0,0.6-0.5,1.2-1
		c-0.3,0.4-0.4,0.8-0.4,0.8l-9.4,8l0.2-0.1c-0.1,0.1-0.2,0.2-0.2,0.2l12-7.7c0,0,0.8-0.3,1.5-1.5c1.5-0.3,2.4-2.8,2.7-4
		c0.3-1.2,0.7-1.5,1-2.3c0.1-0.3,0.1-0.7,0-1c0.4,0.4,1,0.6,1.8,0.6c0.7-0.1,1-0.5,1.1-0.9c0.1-0.1,0.3-2.7-0.1-4.3
		c-0.4-1.6-0.6-1.9-0.9-2.4L60.1,3L59,2.8l0.6-0.3c0,0-1.3-0.7-2.7,0c-2.2-0.9-5-0.5-7.4,1c-2.2,1.3-3.7,3.9-5.4,6.8
		c-2.2,3.7-4.3,8-6,11.3l-1.3,2.3l0.2-0.3c-0.1,0.1-0.2,0.3-0.2,0.4c0.1-0.2,0.2-0.3,0.3-0.5l7.6-10.3c0,0.3,0.1,0.6,0.2,0.9
		L34.2,29.2l11.1-13.4c0.1,0.2,0.1,0.3,0.1,0.3L32.1,32.3z"/>
	<path class="st2" d="M32.1,32.3c-0.4,0.4-0.6,0.7-0.6,0.7l14.9-14.9l0.2,0.3l-9,9.4l0.5-0.4L37.5,28l10.6-8.5c0,0,0.6-0.5,1.2-1
		c-0.3,0.4-0.4,0.8-0.4,0.8l-9.4,8l0.2-0.1c-0.1,0.1-0.2,0.2-0.2,0.2l12-7.7c0,0,0.8-0.3,1.5-1.5c1.5-0.3,2.4-2.8,2.7-4
		c0.3-1.2,0.7-1.5,1-2.3c0.1-0.3,0.1-0.7,0-1c0.4,0.4,1,0.6,1.8,0.6c0.7-0.1,1-0.5,1.1-0.9c0.1-0.1,0.3-2.7-0.1-4.3
		c-0.4-1.6-0.6-1.9-0.9-2.4L60.1,3L59,2.8l0.6-0.3c0,0-1.3-0.7-2.7,0c-2.2-0.9-5-0.5-7.4,1c-2.2,1.3-3.7,3.9-5.4,6.8
		c-2.2,3.7-4.3,8-6,11.3l-1.3,2.3l0.2-0.3c-0.1,0.1-0.2,0.3-0.2,0.4c0.1-0.2,0.2-0.3,0.3-0.5l7.6-10.3c0,0.3,0.1,0.6,0.2,0.9
		L34.2,29.2l11.1-13.4c0.1,0.2,0.1,0.3,0.1,0.3L32.1,32.3z"/>
	<path class="st0" d="M58.5,3.1l-0.2,0.1c0,0.1,0.1,0.1,0.2,0.2l0.4-0.3L58.5,3.1z M49.7,11.3c0.2-1.5,2-5.5,3.3-4.4
		c0.1-0.1-1.4,0.8-2.4,3.5c0.6,0,1.5,0.2,1.5,0.8C51.3,10.8,50.5,11,49.7,11.3z M58.6,10.1c0,0,0.1,0.4-0.1,0.7
		c-0.1,0.1-0.2,0.1-0.3,0.2h0c-0.1,0-0.1,0-0.1,0l0,0c0,0-0.1-0.1-0.1-0.1c0-0.1,0-0.2,0-0.3c0,0,0-0.1,0.1-0.1
		C58.1,10.2,58.3,10.1,58.6,10.1z M56.9,9.5c0,0,0.6-0.2,0.7,0.2c0,0.1,0,0.2-0.1,0.2c0,0-0.1,0-0.1-0.1C57.4,9.6,57.2,9.5,56.9,9.5
		z M58.7,10.2c0.1-0.2-0.1-0.4-0.3-0.3c-0.2,0.1-0.4,0.4-0.4,0.4s0.3-0.2,0.5-0.3C58.5,10,58.6,10,58.7,10.2z M57.1,7.1L57.1,7.1
		L57.1,7.1L57.1,7.1C57.1,7.1,57.1,7.2,57.1,7.1L57.1,7.1L57.1,7.1L57.1,7.1c-0.1,0.2-0.1,0.3-0.4,0.6C56.9,7.9,57,8.1,57,8.4
		c0,0,0,0,0,0l0,0l0,0.1c-0.3-0.4-0.8-0.8-1.2-1c0.2,0.1,0.4,0.1,0.6,0C56.7,7.4,56.9,7.3,57.1,7.1L57.1,7.1z M53.4,17.5
		c0.6-0.5,1.3-2,1.9-3.5c0.6-1.4,1.2-2.1,1-3.3c-0.1-0.4-0.4-0.5-0.6-0.6c0,0,0,0-0.1,0c0,0,0,0,0.1,0.1c0.1,0.1,0.1,0.2,0.2,0.3
		c0.4,0.9-0.4,2.3-0.4,2.4L53.4,17.5z M54.9,9.8c0.2-0.1,0.6-0.3,1.1-0.1l0,0l0,0c0,0,0.1,0,0.1,0c0-0.1,0.1-0.2,0.1-0.4l0,0
		c0.1-0.1,0.2-0.3,0.3-0.4c0-0.1,0-0.3-0.1-0.4c0,0,0,0-0.1-0.1l0,0c0,0,0,0-0.1-0.1l0,0l0,0c-0.2-0.2-0.4-0.3-0.7-0.4
		c-0.4-0.2-0.7-0.4-1-0.7c-0.3,0.2-1,0.9-1.2,2.3c0.2,0.1,0.3,0.2,0.4,0.3c0.1,0.1,0.1,0.1,0.1,0.2c0.1-0.1,0.2-0.1,0.4-0.2
		C54.4,9.8,54.7,9.8,54.9,9.8z M45,15.5c-0.1-0.2-0.2-0.5-0.2-0.9l-6.7,9.3L45,15.5z M31.9,32.3l13.3-16.1l0-0.2L34.1,29.2l10.6-15
		c-0.1-0.2-0.1-0.5-0.1-0.7l-7.5,10.1c-0.1,0.2-0.2,0.3-0.3,0.5L36.6,24l0,0l0,0l0,0l0,0l0,0l0-0.1l0,0l1.3-2.3
		c0.4-0.7,0.8-1.5,1.2-2.4c1.5-2.9,3.1-6.1,4.8-9l0.1-0.1c1.7-2.8,3.2-5.4,5.3-6.7l0,0l0,0l0,0c0.3-0.2,0.7-0.4,1.1-0.6
		c0.4-0.2,0.7-0.3,1.1-0.4c1.8-0.6,3.7-0.6,5.3,0c1.5-0.6,2.8,0.1,2.8,0.1l0.2,0.1l-0.2,0.1l-0.3,0.2l1.1,0.2L60,3.1l-1.3,0.8
		c0.3,0.5,0.6,1.3,0.9,2.3c0.4,1.6,0.3,3.2,0.2,3.9c0,0.1,0,0.1,0,0.2c-0.2,1-1.4,1.4-2.3,1.1c-0.2-0.1-0.4-0.2-0.6-0.3
		c0,0.2,0,0.5-0.1,0.7c-0.1,0.3-0.2,0.6-0.4,0.8c-0.2,0.4-0.4,0.7-0.6,1.4l0,0c0,0.2-0.1,0.4-0.2,0.6c-0.1,0.2-0.1,0.4-0.2,0.7
		c-0.5,1.2-1.2,2.5-2.4,2.8c-0.7,1.1-1.4,1.5-1.5,1.5l-12,7.7l-0.1-0.2c0,0,0,0,0,0l0,0l9.3-7.9c0,0,0-0.1,0.1-0.1
		c-0.4,0.3-0.7,0.6-0.7,0.6l0,0l-10.6,8.5L37.3,28l1.2-1.1l8.1-8.4l-0.2-0.2L31.5,33.1L31.3,33C31.3,33,31.5,32.7,31.9,32.3z
		 M58.4,6.1c0,0.2,0.1,0.6,0.3,0.8c-0.3,0-0.4-0.2-0.5-0.4c0,0-0.1,0-0.1,0l0,0l0,0l0,0c-0.1,0-0.2,0-0.3-0.1
		c-0.1-0.1-0.1-0.1-0.1-0.2l0,0l0,0l0,0c0-0.1,0-0.2,0.1-0.3c0,0,0.1-0.1,0.2-0.1c-0.1-0.1-0.1-0.2-0.2-0.2
		C58,5.5,58.3,5.7,58.4,6.1z M55.1,5.1c-0.4,0.4-0.5,1-0.5,1.4c0,0.1,0,0.2,0.1,0.3v0c0,0.1,0.1,0.2,0.1,0.2l0,0l0,0l0,0
		c0.2,0.3,0.5,0.5,0.9,0.6l0,0c0.1,0.1,0.2,0.1,0.3,0.2l0,0l0,0v0c0.4,0.2,0.7,0.4,0.8,0.7C56.9,8.6,57,8.7,57,8.8
		c0.1,0,0.1,0,0.2,0l0.2,0.1l-0.2,0.1c-0.5,0.2-0.8,0.9-0.5,1.4c0.1,0.1,0.1,0.2,0.2,0.3c0-0.1,0-0.2,0-0.3c0-0.2,0.1-0.3,0-0.4
		c0-0.1-0.3-0.1-0.2-0.4c0.1-0.2,0.4-0.2,0.6,0c0.3,0.3-0.3,1,0.1,1.4c0,0,0.1,0.1,0.2,0.1c0.6,0.2,1.4-0.1,1.6-0.8
		c0-0.1,0.1-0.2,0.1-0.3c0-0.2,0-0.3,0.1-0.5c0-1.1,0-4.2-1.5-6.1l-0.3,0l-0.3,0l0.4-0.2l0,0l0,0l0.8-0.5C56.9,2.5,56,3.4,56,3.4
		l-0.1,0l0,0c-1.6-0.2-3-0.1-4.2,0.4c-1.2,0.5-2.3,1.3-3.3,2.4c-0.1-1.1,2.5-2.5,3-2.7c1.2-0.5,2.7-0.7,4.4-0.5
		c0.1-0.1,0.2-0.2,0.4-0.3c-0.6-0.1-1.1-0.2-1.7-0.2c-0.7,0-1.6,0.1-2.5,0.4c-3.4,1.1-4.7,3.3-6.4,6.1v0l-0.3,0.4l0,0l0,0l0,0
		c-1.7,2.7-3.6,6.2-5.5,9.5l-0.4,0.7l5.5-7.4l0,0h0l0-0.1l0.2-0.2l0,0.8c0.1,0.8,0.3,2.3,0.7,3.4l0,0.1l0,0.1l-8.3,10.2l8.9-8.9
		c0.1-0.1,0.7,0.7,0.7,0.7l0.1,0.1l-0.1,0.1l-0.2,0.1l-6,6.3c2.7-2.1,9-7.2,10.1-8.3c1-1,1.6-2.3,1.8-3c0.1-0.3,0.1-0.5,0.2-0.6
		c0.1-0.2,0.3-0.1,0.3,0l0,0c0,0-0.2,0.7-0.5,2.1c-0.2,0.8-0.5,1.2-0.8,1.6c-0.2,0.3-0.4,0.6-0.5,0.9l0,0.1l-0.1,0
		c0,0-0.9,0.1-1.4,0.7c-0.4,0.6-0.2,1.4-0.2,1.4l-0.2,0.1l-0.2-0.4l-4.6,4c1.7-1.1,3.6-2.3,4.8-3.1c0.4-0.2,0.7-0.5,1-0.7
		c0.3-0.2,0.5-0.3,0.6-0.4l0,0l0,0l0,0c1.1-0.7,1.4-1.4,1.6-2c0-0.1,0-0.1,0.1-0.2c0.2-0.5,1-2.1,1-2.1l0,0l1-2.3l0,0
		c0.4-0.6,0.6-1.1,0.6-1.4c0.1-0.3,0-0.5-0.1-0.7l0,0c-0.1-0.2-0.3-0.3-0.6-0.3h0c-0.3,0-0.7,0.2-1.4,0.7c-1.5,1.1-3.3,1.1-4.8,2
		c0-0.1,0-0.2,0.1-0.2c0.6-1.1,3.6-1.3,4.6-2.2l0,0l0,0c0,0,0.1,0,0.1-0.1c0-0.2-0.2-0.3-0.5-0.3c-0.4,0-0.5,0.4-0.7,0.5
		c0,0-0.2-0.7,0.4-1c0.1-0.5,0.5-1.9,1.7-2.7c-0.1-0.3-0.2-0.6-0.1-1h0C54.2,5.7,54.6,5.1,55.1,5.1z"/>
	<path class="st0" d="M57.1,14.3h13.3v4v2.4v0l-0.4,0h-3.7v9.8c0.2,2.9-1.5,3.8-4,3.7h-3.5V20.8h-3.7l-0.4,0v-4
		C54.8,15.2,55.6,14.4,57.1,14.3 M106.8,14.3h4.6l-0.2,8.7l3.4-6.2c0.9-1.7,2.4-2.6,4.3-2.5h5.2l-6.4,9.7l6.9,10l6.2-17.3
		c0.6-1.5,1.7-2.4,3.7-2.4h5.4l6,16.4c0.8,2-0.3,3.6-3,3.5h-3.6l0,0l0,0l-3.5-11.5l-2.7,9h0c-0.5,1.8-1.6,2.6-3.3,2.5h-5h-0.3h-8.4
		l-4.8-8.4l-0.1,4.9c0.1,2.4-1.1,3.6-3.5,3.5h-3.7V16.8C104,15.1,105.5,14.2,106.8,14.3z M96.1,14.3h4.5v16.4c0,2.5-1,3.6-3.6,3.5
		h-3.9V16.8C93.1,15,94.3,14.2,96.1,14.3z M79.7,19.8v2.3h0v9.7c-0.1,1.8-1.4,2.6-3.4,2.5h-3.9V16.8c0.1-1.5,1.4-2.6,3-2.4h6
		c1.2,0,2.3,0.1,3.3,0.4c1,0.2,1.9,0.6,2.7,1.2c3.5,2.5,3.6,8.6,0,11l3.6,7.4l0,0l0.1,0.1h-7.9l-2.6-8.1
		C84.9,25.7,84.8,19.3,79.7,19.8z M8,14.3h4.7l2.8,10.5l2.3-8c0.6-2,1.4-2.5,3.3-2.5h5L29,30.8c0.4,2.2-0.5,3.3-2.6,3.5h-4.1
		l-1-10.9l-3.6,10.9h-4.4l-3.1-10.9l-0.9,7.4c-0.3,2.2-1.2,3.5-3,3.5H1.7l2.9-17.5C5,15.2,6.1,14.3,8,14.3z"/>
	<path class="st3" d="M34.2,32.4L30,36.5l15.7-7.9L24,46.4L23.8,46l8.5-8.4L22.6,42l8.9-12c0.6,0.8,1.3,1.5,2.1,2.1
		C33.8,32.1,34,32.3,34.2,32.4"/>
	<path class="st0" d="M29.8,36.3l4-3.9l0,0c-0.1,0-0.2-0.1-0.2-0.2c-0.4-0.3-0.8-0.6-1.2-1c-0.3-0.3-0.6-0.6-0.8-0.9l-8.2,11.1
		c3-1.3,6-2.7,9-4c0.4-0.1,0.4,0.2,0.3,0.4l-9,8.6l20.3-16.6c-4.6,2.3-9.3,4.7-13.9,7C29.8,36.8,29.7,36.6,29.8,36.3 M34.3,32.5
		l-3.2,3.1l14.4-7.2l0.8,0.5L23.7,47.1c-0.9,0.6-1.6-0.2-1.1-0.9l7.1-7.1l-7.6,3.4c-0.3,0.1-0.8,0.5-1,0c-0.1-0.1,0-0.3,0.1-0.5
		l10.4-14l-0.1,1.4l0.2,0.2c0.3,0.4,0.6,0.8,1,1.1c0.3,0.3,0.7,0.7,1.1,0.9c0.1,0,0.1,0.1,0.2,0.2c0.1,0.1,0.2,0.1,0.2,0.2l0.2,0.2
		L34.3,32.5z"/>
	<path class="st0" d="M37.9,21c-0.2,0.3-0.4,0.7-0.5,1.1c-0.1,0.5-0.2,1-0.1,1.6c0.1,1.2,0.6,2.2,1.4,2.8c0.8,0.7,1.8,1,3,0.9
		c0.8-0.1,1.6-0.3,2.1-0.7l5.8,4.6c-0.8,0.6-1.7,1.2-2.7,1.6c-1.4,0.6-2.9,1-4.6,1.1c-1.6,0.1-3.2,0-4.7-0.3c-1.5-0.4-2.8-1-4-1.8
		c-1.2-0.8-2.1-1.9-2.9-3.2c-0.8-1.3-1.2-2.8-1.4-4.5c-0.2-1.7,0-3.2,0.5-4.6c0.5-1.4,1.3-2.6,2.3-3.7c0.5-0.5,1.1-1,1.7-1.5
		C35.3,17,36.8,19.4,37.9,21"/>
	<path class="st1" d="M34,32.1l-4.2,4l15.7-7.7L23.8,45.7l-0.1-0.4l8.5-8.2l-9.8,4.2l8.9-11.6c0.6,0.8,1.3,1.4,2.1,2
		C33.7,31.9,33.9,32,34,32.1"/>
	<path class="st0" d="M29.7,36.2l4-3.9l0,0c-0.1,0-0.2-0.1-0.2-0.2c-0.4-0.3-0.8-0.6-1.2-1c-0.3-0.3-0.6-0.6-0.8-0.9l-8.2,11.1
		c3-1.3,6-2.7,9-4.1c0.3-0.1,0.4,0.3,0.2,0.4l-8.1,7.9l19.5-16c-4.6,2.3-9.3,4.7-13.9,7C29.6,36.6,29.5,36.5,29.7,36.2 M34.2,32.4
		l-2.6,2.7l13.8-7.3l0.3,0.8L23.8,46.6c-0.4,0.3-1-0.3-0.7-0.8l7.3-7.3c-2.9,1.3-5,2.3-7.9,3.6c-0.2,0.1-0.7-0.1-0.5-0.3l9.2-12
		l0.2-0.2l0.2,0.2c0.3,0.4,0.6,0.8,1,1.1c0.3,0.3,0.7,0.7,1.1,0.9c0.1,0,0.1,0.1,0.2,0.2c0.1,0.1,0.2,0.1,0.2,0.2l0.2,0.2L34.2,32.4
		z"/>
	<path class="st1" d="M38.8,26.6l9-9.4l-0.8-9.2l-3.6,4.5l-5.9,10.7C37.2,23.5,37.1,25.3,38.8,26.6"/>
	<polygon class="st3" points="29.9,36.1 46.9,17.8 47.7,18 31.1,35.4 	"/>
	<path class="st3" d="M52.4,10c0,0,0.2-2.2,1.9-3.2L54.5,7c0,0-0.6,0.5-1.1,1.5c-0.5,1-0.6,1.4-0.6,1.4L52.4,10L52.4,10z"/>
	<path class="st3" d="M48.6,12.9c0,0,0-0.8,1.5-1.3c1.5-0.4,2.6-0.9,3.3-1.4c0.7-0.5,1.8-0.8,2.3-0.2l-0.2,0.2c0,0-1-0.3-2,0.4
		c-1,0.7-2.6,1.2-3.4,1.4C49.2,12.3,48.6,12.9,48.6,12.9"/>
	<path class="st3" d="M54.9,7.2c0,0,1.1,0.8,2.2-0.2c0,0,0,0.5-0.4,0.7c0,0,0.5,0.5,0.3,1.1l0,0.1c0,0-0.5-0.4-0.5-0.5
		C56.3,8.2,55,7.6,55,7.6C54.9,7.5,54.9,7.2,54.9,7.2"/>
	<path class="st1" d="M57.9,6C58,6,58.1,6,58.1,6.1C58.1,6.1,58.1,6.1,57.9,6c-0.1,0.1-0.1,0.2-0.1,0.3c0,0,0,0.1,0,0.1
		c-0.1,0-0.1-0.1-0.1-0.2C57.7,6.1,57.8,6,57.9,6"/>
	<path class="st3" d="M57.9,5.8c0,0,0.1,0.2,0.2,0.4c0.1,0.2,0.2,0.4,0.2,0.4c0,0,0.1-0.4,0.1-0.5c0-0.1-0.1-0.2-0.1-0.2
		C58.1,5.9,57.9,5.8,57.9,5.8"/>
</g>
</svg>
