<?xml version="1.0" encoding="utf-8"?>
<!-- Generator: Adobe Illustrator 24.3.0, SVG Export Plug-In . SVG Version: 6.00 Build 0)  -->
<svg version="1.1" id="Layer_1" xmlns="http://www.w3.org/2000/svg" xmlns:xlink="http://www.w3.org/1999/xlink" x="0px" y="0px"
	 viewBox="0 0 250 250" style="enable-background:new 0 0 250 250;" xml:space="preserve">
<style type="text/css">
	.st0{fill:none;}
	.st1{fill:#590948;}
	.st2{fill:#FF9D00;}
	.st3{fill:#FFFFFF;}
	.st4{fill:url(#SVGID_1_);}
	.st5{fill:url(#SVGID_2_);}
	.st6{fill:url(#SVGID_3_);}
</style>
<rect x="348.9" y="-120.9" class="st0" width="223.9" height="51.7"/>
<image style="overflow:visible;enable-background:new    ;" width="2048" height="1307" xlink:href="C:\Users\Manoj\Downloads\Meesho.jpg"  transform="matrix(0.3479 0 0 0.3414 -2099.3999 -223.084)">
</image>
<image style="overflow:visible;" width="754" height="206" xlink:href="C:\Users\Manoj\Downloads\Buy Now button.jpg"  transform="matrix(1 0 0 1 632.6 -206)">
</image>
<g>
	<rect x="49" y="41.7" class="st1" width="151" height="94.6"/>
	<rect x="94.3" y="105.4" class="st0" width="60.4" height="14.4"/>
	<g>
		<path class="st2" d="M136.9,58.8c4.7,0.1,8.6,1.7,11.9,5c3.3,3.3,4.9,7.3,4.9,12l-0.1,22c0,2.6-2.1,4.7-4.8,4.7
			c-2.6,0-4.8-2.2-4.7-4.8l0.1-22c0.1-2-0.7-3.9-2.1-5.2c-1.4-1.4-3.1-2.2-5.2-2.2c-2-0.1-4,0.8-5.4,2.3c-1.4,1.4-2,3.3-2,5.3
			l-0.1,21.7c0,2.6-2.2,4.8-4.9,4.8s-4.8-2.2-4.8-4.9l0.1-21.9c0.1-1.9-0.7-3.8-2-5.2c-1.4-1.5-3.2-2.3-5.4-2.3
			c-2-0.1-3.8,0.7-5.2,2.1c-1.4,1.4-2.1,3.1-2.1,5.2l-0.1,22c0,2.6-2.1,4.8-4.8,4.7c-2.6,0-4.8-2.2-4.8-4.8l0.1-21.9
			c0-4.1,1.5-8.1,4.2-11.1c3.5-3.9,7.8-5.8,12.8-5.8c4.8,0.1,8.9,1.8,12.2,5.2C128,60.5,132.1,58.8,136.9,58.8L136.9,58.8z"/>
		<g>
			<path class="st3" d="M103.3,110.3c-1,0-1.9,0.4-2.6,1.1c-0.7-0.7-1.6-1.1-2.6-1.1c-0.6,0-1.1,0.1-1.6,0.4
				c-0.1-0.4-0.4-0.7-0.8-0.7h-0.4c-0.5,0-0.9,0.4-0.9,0.9v2.5c0,0.1,0,0.2,0,0.3c0,0.1,0,0.2,0,0.4v4.7c0,0.6,0.5,1,1,1
				c0.6,0,1-0.5,1-1v-4.7c0-0.4,0.2-0.8,0.5-1.1c0.3-0.3,0.7-0.5,1.1-0.5c0.5,0,0.8,0.2,1.2,0.5c0.3,0.3,0.4,0.7,0.4,1.1v4.7
				c0,0.6,0.5,1,1,1c0.6,0,1.1-0.5,1.1-1v-4.7c0-0.4,0.1-0.8,0.4-1.1c0.3-0.3,0.7-0.5,1.2-0.5c0.4,0,0.8,0.2,1.1,0.5
				c0.3,0.3,0.5,0.7,0.5,1.1v4.7c0,0.6,0.4,1,1,1s1-0.5,1-1v-4.7c0-1-0.3-1.9-1.1-2.6C105.2,110.7,104.3,110.3,103.3,110.3z"/>
			<path class="st3" d="M112.6,110.4c-1.3,0-2.3,0.4-3.1,1.3c-0.8,0.9-1.2,2-1.2,3.4s0.4,2.6,1.2,3.4c0.8,0.9,1.9,1.3,3.2,1.3
				c0.5,0,0.9-0.1,1.3-0.1c0.4-0.1,0.8-0.2,1.1-0.5c0.4-0.2,0.7-0.5,1-0.8c0.1-0.1,0.1-0.1,0.2-0.2c0.4-0.5,0.3-1.2-0.3-1.5h-0.1
				c-0.4-0.2-0.9-0.1-1.2,0.3c-0.2,0.3-0.4,0.5-0.6,0.7c-0.3,0.2-0.8,0.4-1.3,0.4c-0.6,0-1.2-0.2-1.6-0.6s-0.7-1-0.7-1.7h5.9
				c0.3,0,0.5-0.2,0.5-0.5c0-1.5-0.4-2.6-1.1-3.4C114.9,110.8,113.9,110.4,112.6,110.4z M110.5,113.9c0.1-0.3,0.2-0.5,0.3-0.7
				c0.1-0.2,0.3-0.4,0.5-0.5s0.4-0.3,0.6-0.3c0.2-0.1,0.5-0.1,0.7-0.1c1.1,0,1.8,0.6,2.1,1.7L110.5,113.9z"/>
			<path class="st3" d="M122.3,110.4c-1.3,0-2.3,0.4-3.1,1.3c-0.8,0.9-1.2,2-1.2,3.4s0.4,2.6,1.2,3.4c0.8,0.9,1.9,1.3,3.2,1.3
				c0.5,0,0.9-0.1,1.3-0.1c0.4-0.1,0.8-0.2,1.1-0.5c0.4-0.2,0.7-0.5,1-0.8c0.1-0.1,0.1-0.1,0.2-0.2c0.4-0.5,0.3-1.2-0.3-1.5h-0.1
				c-0.4-0.2-0.9-0.1-1.2,0.3c-0.2,0.3-0.4,0.5-0.6,0.7c-0.3,0.2-0.8,0.4-1.3,0.4c-0.6,0-1.2-0.2-1.6-0.6s-0.7-1-0.7-1.7h5.9
				c0.3,0,0.5-0.2,0.5-0.5c0-1.5-0.4-2.6-1.1-3.4C124.7,110.8,123.7,110.4,122.3,110.4z M120.3,113.8c0.1-0.3,0.2-0.5,0.3-0.7
				c0.3-0.4,0.6-0.7,1.1-0.8c0.2-0.1,0.5-0.1,0.7-0.1c1.1,0,1.8,0.6,2.1,1.7L120.3,113.8z"/>
			<path class="st3" d="M140.9,110.3c-0.9,0-1.7,0.1-2.5,0.8v-4.7c0-0.6-0.5-1.1-1-1.1c-0.6,0-1.1,0.5-1,1.1l-0.1,12.2
				c0,0.6,0.5,1.1,1,1.1c0.6,0,1.1-0.5,1.1-1v-3.4c0-1.1,0.2-1.9,0.5-2.4c0.3-0.4,0.8-0.7,1.6-0.7c0.6,0,1,0.2,1.2,0.5
				c0.3,0.3,0.4,0.8,0.4,1.6v4.3c0,0.6,0.5,1.1,1,1.1c0.6,0,1.1-0.5,1.1-1v-4.5c0-1.3-0.2-2.2-0.8-2.8
				C142.7,110.7,141.8,110.3,140.9,110.3z"/>
			<path class="st3" d="M153.3,111.9c-0.9-0.9-2-1.3-3.3-1.4c-1.3,0-2.4,0.4-3.3,1.3c-0.9,0.9-1.4,1.9-1.4,3.2
				c0,1.3,0.4,2.5,1.3,3.3c0.9,0.9,2,1.4,3.3,1.4s2.4-0.4,3.3-1.3c0.9-0.9,1.4-2,1.4-3.3C154.6,113.9,154.2,112.8,153.3,111.9z
				 M151.8,117.2c-0.5,0.5-1.1,0.7-1.9,0.7c-0.8,0-1.4-0.3-1.9-0.8s-0.7-1.2-0.7-2.1c0-0.8,0.3-1.5,0.7-2c0.5-0.5,1.1-0.8,1.9-0.8
				c0.8,0,1.4,0.3,1.9,0.8s0.7,1.2,0.7,2C152.6,116.1,152.3,116.7,151.8,117.2z"/>
			<path class="st3" d="M133.9,114.9c-0.6-0.4-1.2-0.7-1.8-0.9l-0.2-0.1c-0.9-0.3-1.7-0.5-1.7-1l0,0c0-0.4,0.4-0.7,1-0.7
				c0.5,0,1.1,0.2,1.7,0.5c0.1,0.1,0.3,0.1,0.4,0.1c0.4,0,0.7-0.2,0.9-0.5c0.1-0.2,0.2-0.5,0.1-0.8c-0.1-0.3-0.3-0.5-0.5-0.6
				c-0.8-0.4-1.7-0.6-2.5-0.6c-1.9,0-3.3,1.2-3.3,2.8l0,0c0,0.8,0.3,1.4,0.9,1.9c0.5,0.4,1.2,0.6,1.9,0.8c0.1,0,0.1,0,0.2,0.1
				c1,0.3,1.6,0.5,1.6,1l0,0c0,0.2-0.1,0.8-1.2,0.8c-0.7,0-1.4-0.2-2.1-0.6c-0.1-0.1-0.3-0.1-0.5-0.1c-0.3,0-0.6,0.2-0.8,0.5
				c-0.3,0.5-0.2,1.1,0.3,1.4c0.9,0.5,2,0.8,3.1,0.8c1,0,1.8-0.3,2.4-0.7c0.7-0.5,1-1.3,1-2.2l0,0
				C134.9,116,134.6,115.4,133.9,114.9z"/>
		</g>
	</g>
</g>
<g>
	<linearGradient id="SVGID_1_" gradientUnits="userSpaceOnUse" x1="124.6696" y1="197.7011" x2="124.3304" y2="163.0989">
		<stop  offset="0" style="stop-color:#1F4D97"/>
		<stop  offset="1" style="stop-color:#1D83D0"/>
	</linearGradient>
	<path class="st4" d="M177.5,197.2h-106c-9.3,0-16.8-7.5-16.8-16.8s7.5-16.8,16.8-16.8h106c9.3,0,16.8,7.5,16.8,16.8
		S186.8,197.2,177.5,197.2z"/>
	<linearGradient id="SVGID_2_" gradientUnits="userSpaceOnUse" x1="124.7194" y1="164.6045" x2="124.2806" y2="196.1955">
		<stop  offset="0" style="stop-color:#0F337A"/>
		<stop  offset="1" style="stop-color:#1D83D0"/>
	</linearGradient>
	<path class="st5" d="M177.5,195.5H71.5c-8.3,0-15.1-6.8-15.1-15.1c0-8.3,6.8-15.1,15.1-15.1h105.9c8.3,0,15.1,6.8,15.1,15.1
		C192.5,188.7,185.8,195.5,177.5,195.5z"/>
	<g>
		<path class="st3" d="M94.6,181.2c0.4,0.5,0.6,1.1,0.6,1.8c0,0.6-0.1,1.1-0.4,1.6c-0.3,0.5-0.7,0.8-1.3,1.1c-0.6,0.3-1.2,0.4-2,0.4
			h-4.9v-11.3h4.7c0.8,0,1.4,0.1,2,0.4c0.6,0.2,1,0.6,1.3,1c0.3,0.4,0.4,0.9,0.4,1.5c0,0.7-0.2,1.2-0.5,1.7
			c-0.4,0.4-0.8,0.8-1.4,0.9C93.6,180.4,94.1,180.7,94.6,181.2z M88.8,179.4h2.1c0.5,0,1-0.1,1.3-0.4s0.4-0.6,0.4-1
			c0-0.5-0.1-0.8-0.4-1.1c-0.3-0.2-0.7-0.4-1.3-0.4h-2.1V179.4z M92.4,183.9c0.3-0.3,0.5-0.6,0.5-1.1c0-0.5-0.2-0.9-0.5-1.1
			c-0.3-0.3-0.8-0.4-1.3-0.4h-2.2v3.1h2.3C91.7,184.2,92.1,184.1,92.4,183.9z"/>
		<path class="st3" d="M99.2,174.8v7c0,0.8,0.2,1.4,0.6,1.8c0.4,0.4,1,0.6,1.7,0.6c0.7,0,1.3-0.2,1.7-0.6c0.4-0.4,0.6-1,0.6-1.8v-7
			h2.3v7c0,1-0.2,1.8-0.6,2.4c-0.4,0.7-1,1.2-1.7,1.5c-0.7,0.3-1.5,0.5-2.3,0.5c-0.8,0-1.6-0.2-2.3-0.5c-0.7-0.3-1.2-0.8-1.6-1.5
			c-0.4-0.7-0.6-1.5-0.6-2.4v-7H99.2z"/>
		<path class="st3" d="M117.4,174.8l-3.8,7.4v3.9h-2.3v-3.9l-3.9-7.4h2.6l2.4,5.2l2.4-5.2H117.4z"/>
		<path class="st3" d="M132.3,186.1H130l-5.2-7.8v7.8h-2.3v-11.4h2.3l5.2,7.8v-7.8h2.3V186.1z"/>
		<path class="st3" d="M136.9,185.5c-0.9-0.5-1.6-1.2-2.1-2.1c-0.5-0.9-0.8-1.9-0.8-3c0-1.1,0.3-2.1,0.8-3c0.5-0.9,1.2-1.6,2.1-2.1
			c0.9-0.5,1.9-0.7,2.9-0.7c1.1,0,2.1,0.2,2.9,0.7c0.9,0.5,1.6,1.2,2.1,2.1c0.5,0.9,0.8,1.9,0.8,3c0,1.1-0.3,2.1-0.8,3
			c-0.5,0.9-1.2,1.6-2.1,2.1c-0.9,0.5-1.9,0.7-2.9,0.7C138.7,186.2,137.7,186,136.9,185.5z M141.6,183.7c0.5-0.3,0.9-0.8,1.2-1.3
			c0.3-0.6,0.4-1.2,0.4-2c0-0.8-0.1-1.4-0.4-2c-0.3-0.6-0.7-1-1.2-1.3c-0.5-0.3-1.1-0.5-1.8-0.5s-1.3,0.2-1.8,0.5
			c-0.5,0.3-0.9,0.7-1.2,1.3c-0.3,0.6-0.4,1.2-0.4,2c0,0.8,0.1,1.4,0.4,2c0.3,0.6,0.7,1,1.2,1.3c0.5,0.3,1.1,0.5,1.8,0.5
			S141.1,184,141.6,183.7z"/>
		<path class="st3" d="M162.5,174.8l-3.2,11.3h-2.7l-2.1-8.1l-2.2,8.1l-2.7,0l-3.1-11.4h2.4l2,8.8l2.3-8.8h2.5l2.2,8.8l2-8.8H162.5z
			"/>
	</g>
	<circle class="st3" cx="176" cy="180.4" r="8.9"/>
	<linearGradient id="SVGID_3_" gradientUnits="userSpaceOnUse" x1="169.5569" y1="174.5963" x2="179.1608" y2="184.2002">
		<stop  offset="0" style="stop-color:#0F337A"/>
		<stop  offset="1" style="stop-color:#1D83D0"/>
	</linearGradient>
	<path class="st6" d="M178.2,185.2l2-1.6l-2.5-2.8c-0.1-0.1-0.1-0.3,0.1-0.4l1.6-0.9l-7.6-3.9l2.3,8.3l1.2-1.5
		c0.1-0.1,0.3-0.1,0.3,0L178.2,185.2z"/>
	<g>
		<path class="st3" d="M80.9,183h-7.7l-3.5-8h-4.5c-0.2,0-0.4,0.2-0.4,0.4c0,0.2,0.2,0.4,0.4,0.4h4l3.5,8H74
			c-0.2,0.2-0.4,0.5-0.4,0.8c0,0.6,0.5,1.1,1.1,1.1c0.6,0,1.1-0.5,1.1-1.1c0-0.3-0.2-0.6-0.4-0.8h2.4c-0.2,0.2-0.4,0.5-0.4,0.8
			c0,0.6,0.5,1.1,1.1,1.1c0.6,0,1.1-0.5,1.1-1.1c0-0.3-0.2-0.6-0.4-0.8h1.8c0.2,0,0.4-0.2,0.4-0.4S81.2,183,80.9,183z M74.7,184.9
			c-0.1,0-0.3-0.1-0.3-0.3c0-0.1,0.1-0.3,0.3-0.3c0.1,0,0.3,0.1,0.3,0.3C75,184.8,74.9,184.9,74.7,184.9z M78.5,184.9
			c-0.1,0-0.3-0.1-0.3-0.3c0-0.1,0.1-0.3,0.3-0.3c0.1,0,0.3,0.1,0.3,0.3C78.7,184.8,78.6,184.9,78.5,184.9z"/>
		<path class="st3" d="M73.3,181.8c0.1,0.3,0.5,0.5,0.8,0.5h6c0.5,0,0.9-0.4,0.9-0.8l0.2-4.2c0-0.2-0.1-0.5-0.2-0.6
			c-0.2-0.2-0.4-0.3-0.6-0.3l-8.1-0.3c-0.3,0-0.5,0.1-0.7,0.3c-0.2,0.2-0.2,0.5-0.1,0.8L73.3,181.8z M80.1,177.4l-0.2,3.9h-5.7
			l-1.7-4.2L80.1,177.4z"/>
	</g>
</g>
</svg>
