<?xml version="1.0" encoding="utf-8"?>
<!-- Generator: Adobe Illustrator 24.3.0, SVG Export Plug-In . SVG Version: 6.00 Build 0)  -->
<svg version="1.1" id="Layer_1" xmlns="http://www.w3.org/2000/svg" xmlns:xlink="http://www.w3.org/1999/xlink" x="0px" y="0px"
	 viewBox="0 0 150 57" style="enable-background:new 0 0 150 57;" xml:space="preserve">
<style type="text/css">
	.st0{fill:#D98C00;}
	.st1{fill:#FFFFFF;}
	.st2{fill:url(#SVGID_1_);}
</style>
<g>
	<rect x="0.1" width="149.8" height="57"/>
	<g>
		<g>
			<path class="st0" d="M72.7,30.9l-0.5-2.3l-0.9-2.8L67,25.6l-3.9,0.1l-1,2.7l-0.5,2.5h-3.3l7.3-20.5h3.9l6.6,20.5H72.7z
				 M67.6,13.5h-0.2L64,23l3.2,0.1l3.3-0.1L67.6,13.5z"/>
			<path class="st0" d="M88.2,30.9h-8.9l0.1-4.8l-0.1-11.2h3.1l-0.2,10.9l0,2.5h5.9l0.2,0.3L88.2,30.9z"/>
			<path class="st0" d="M97.7,14.8c3.5,0,5.4,1.7,5.4,4.9c0,3.7-2.6,5.9-6.8,5.9h-1.8v0.2l0.1,5.1h-3.1l0.1-4.8l-0.1-11.2L97.7,14.8
				z M97.1,23.3c1.8-0.4,2.8-1.5,2.8-3.4c0-1.9-1.1-2.7-3.1-2.8l-2.1,0.1l-0.1,6L97.1,23.3z"/>
			<path class="st0" d="M120.8,30.9h-3.1l0.1-4.8l0-1.9l-4.1,0l-3.8,0.1l0,1.6l0.1,5.1h-3.1l0.1-4.8l-0.1-11.2h3.1l-0.1,6.7l4,0.1
				l3.9,0l-0.1-6.7h3.1l-0.2,10.9L120.8,30.9z"/>
			<path class="st0" d="M135.9,30.9l-0.4-2l-0.6-1.8l-3.6,0l-3.2,0l-0.6,1.6l-0.4,2.1h-3l6-16h3.6l5.4,16H135.9z M131.8,17.7h-0.2
				l-2.6,7l2.5,0l2.6,0L131.8,17.7z"/>
		</g>
		<g>
			<path class="st1" d="M64.6,36.8l-0.2,0.9l-0.1,0c-0.5-0.4-1.1-0.7-1.9-0.7c-1.5,0-2.4,1.1-2.4,3.2c0,2.1,0.9,3.2,2.4,3.2
				c0.7,0,1.5-0.3,2-0.7l0.1,0.1l-0.1,0.9c-0.7,0.4-1.4,0.6-2.2,0.6c-2.1,0-3.3-1.4-3.3-4c0-2.6,1.3-4.1,3.5-4.1
				C63.3,36.2,64,36.4,64.6,36.8z"/>
			<path class="st1" d="M71.1,40.9c0,2.1-1.1,3.3-3,3.3c-1.8,0-2.8-1.1-2.8-3.1c0-2,1.1-3.2,3-3.2C70.1,37.9,71.1,39,71.1,40.9z
				 M66.3,41c0,1.7,0.6,2.4,1.9,2.4c1.3,0,1.9-0.7,1.9-2.3c0-1.7-0.6-2.4-1.9-2.4C66.9,38.7,66.3,39.4,66.3,41z"/>
			<path class="st1" d="M77.8,44.1h-1l-3.2-4.7h-0.1l0,2.6l0,2h-0.8l0-1.8l0-4.3h1l3.2,4.7H77l0-4.6l0.8-0.1l0,4.3L77.8,44.1z"/>
			<path class="st1" d="M83.3,38.2l-0.2,0.9l-0.1,0c-0.5-0.4-0.8-0.5-1.3-0.5c-0.7,0-1.1,0.5-1.1,0.9c0,1.2,2.9,1,2.9,2.8
				c0,0.9-0.8,1.8-2.2,1.8c-0.5,0-1.2-0.1-1.8-0.4l0.1-1l0.1,0c0.5,0.5,1.2,0.7,1.7,0.7c0.7,0,1.2-0.4,1.2-0.9c0-1.2-2.9-1-2.9-2.8
				c0-1,0.8-1.7,2.1-1.7C82.3,37.9,82.8,38,83.3,38.2z"/>
			<path class="st1" d="M89.9,42c0,1.4-0.9,2.2-2.5,2.2c-1.6,0-2.4-0.8-2.4-2.2l0-0.9l0-3.1H86l0,3.8c0,1,0.5,1.6,1.6,1.6
				c1,0,1.6-0.5,1.6-1.6l0-3.8H90l0,3.1V42z"/>
			<path class="st1" d="M95.2,44.1h-3.3l0-1.8l0-4.3h0.9l0,4.2l0,1.1h2.4l0,0.1L95.2,44.1z"/>
			<path class="st1" d="M99.8,38.8l-1.1-0.1H98l0,3.4l0,1.9h-0.9l0-1.8l0-3.5h-0.6l-1.2,0.1l-0.1-0.1l0.1-0.8h4.5l0,0.1L99.8,38.8z"
				/>
			<path class="st1" d="M104.5,44.1l-0.1-0.7l-0.3-0.9l-1.5,0l-1.3,0l-0.3,0.9l-0.2,0.7h-0.9l2.4-6.1h1.1l2.1,6.1H104.5z
				 M102.8,38.9L102.8,38.9l-1.2,2.9l1.1,0l1.1,0L102.8,38.9z"/>
			<path class="st1" d="M112,44.1h-1l-3.2-4.7h-0.1l0,2.6l0,2H107l0-1.8l0-4.3h1l3.2,4.7h0.1l0-4.6l0.8-0.1l0,4.3L112,44.1z"/>
			<path class="st1" d="M118.1,38.8l-1.1-0.1h-0.6l0,3.4l0,1.9h-0.9l0-1.8l0-3.5h-0.6l-1.2,0.1l-0.1-0.1l0.1-0.8h4.5l0,0.1
				L118.1,38.8z"/>
			<path class="st1" d="M122.7,38.2l-0.2,0.9l-0.1,0c-0.5-0.4-0.8-0.5-1.3-0.5c-0.7,0-1.1,0.5-1.1,0.9c0,1.2,2.9,1,2.9,2.8
				c0,0.9-0.8,1.8-2.2,1.8c-0.5,0-1.2-0.1-1.8-0.4l0.1-1l0.1,0c0.5,0.5,1.2,0.7,1.7,0.7c0.7,0,1.2-0.4,1.2-0.9c0-1.2-2.9-1-2.9-2.8
				c0-1,0.8-1.7,2.1-1.7C121.7,37.9,122.2,38,122.7,38.2z"/>
			<path class="st1" d="M129.9,44.1h-3.3l0-1.8l0-4.3h0.9l0,4.2l0,1.1h2.4l0,0.1L129.9,44.1z"/>
			<path class="st1" d="M134.5,44.1h-3.3l0-1.8l0-4.3h0.9l0,4.2l0,1.1h2.4l0,0.1L134.5,44.1z"/>
			<path class="st1" d="M139.6,38.4l-0.2,0.8l-0.1,0c-0.4-0.3-1-0.6-1.6-0.6c-1.2,0-1.9,0.8-1.9,2.3c0,1.6,0.7,2.4,1.9,2.4
				c0.6,0,1.2-0.2,1.7-0.6l0.1,0l-0.1,0.8c-0.5,0.3-1.1,0.5-1.8,0.5c-1.8,0-2.8-1.1-2.8-3.1c0-2,1.1-3.2,2.9-3.2
				C138.5,37.9,139.1,38.1,139.6,38.4z"/>
		</g>
		<radialGradient id="SVGID_1_" cx="45.7425" cy="11.4861" r="33.7381" gradientUnits="userSpaceOnUse">
			<stop  offset="0" style="stop-color:#FCD900"/>
			<stop  offset="1" style="stop-color:#D98C00"/>
		</radialGradient>
		<path class="st2" d="M29.1,19.6c1.1,1.7,2.1,4.1,3,7.1l-0.8,3.8C30,37.3,27.8,40.6,25,40.6c-3.3,0-5-3.8-5-11.5
			c0-8.1,1.7-12.1,5.2-12.1C26.7,17,28,17.9,29.1,19.6z M46.6,10.4v36.2H10.4V10.4H46.6z M42.3,35h-1c-0.1,2.4-0.9,3.5-2.6,3.5
			c-1.4,0-2.5-1.7-3.3-5.2c0.2-0.6,0.6-2.1,1.2-4.6l2.9-13.1h-4.8l-1.7,8.1c-1-3.1-2.1-5.4-3.3-6.7c-1.2-1.4-2.8-2.1-4.8-2.1
			c-2.8,0-5.1,1.2-7.1,3.6c-2,2.4-2.9,5.8-2.9,10.1c0,4.4,0.9,7.8,2.7,10.2c1.8,2.4,4.2,3.6,7.3,3.6c4.4,0,7.7-2.1,9.6-6.2
			c0.6,2.5,1.1,4.2,1.6,5c0.5,0.8,1.2,1.2,2.2,1.2c1.2,0,2.2-0.7,2.9-2C41.8,38.9,42.2,37.1,42.3,35z"/>
		<g>
			<g>
				<rect x="52.1" y="10.4" class="st1" width="0.5" height="36.2"/>
			</g>
		</g>
	</g>
</g>
</svg>
