<?xml version="1.0" encoding="utf-8"?>
<!-- Generator: Adobe Illustrator 24.3.0, SVG Export Plug-In . SVG Version: 6.00 Build 0)  -->
<svg version="1.1" id="Layer_1" xmlns="http://www.w3.org/2000/svg" xmlns:xlink="http://www.w3.org/1999/xlink" x="0px" y="0px"
	 viewBox="0 0 100 60" style="enable-background:new 0 0 100 60;" xml:space="preserve">
<style type="text/css">
	.st0{fill:#008DFF;}
	.st1{fill:#32DBBE;}
	.st2{fill:url(#SVGID_1_);}
</style>
<g>
	<g>
		<polygon class="st0" points="35.82,34.38 49.72,1.23 28.21,41.05 58.73,29.69 61.17,35.23 66.15,35.13 61.83,24.62 		"/>
		<path class="st1" d="M71.79,16.82l-11.93,3.05L54.98,9.12h-4.93l-8.4,19.41L71.79,16.82z M52.54,14.57l2.72,6.71l-6.2,1.46
			L52.54,14.57z"/>
	</g>
	<g>
		<linearGradient id="SVGID_1_" gradientUnits="userSpaceOnUse" x1="3.2223" y1="52.2164" x2="96.7777" y2="52.2164">
			<stop  offset="0" style="stop-color:#FFFFFF;stop-opacity:0.3"/>
			<stop  offset="0.5164" style="stop-color:#FFFFFF"/>
			<stop  offset="1" style="stop-color:#FFFFFF;stop-opacity:0.3"/>
		</linearGradient>
		<rect x="3.22" y="45.67" class="st2" width="93.56" height="13.1"/>
		<g>
			<path d="M8.16,56.98l3.81-8.56h1.96l3.83,8.56h-2.08l-3.13-7.55h0.78l-3.14,7.55H8.16z M10.07,55.14l0.53-1.5H15l0.54,1.5H10.07z
				"/>
			<path d="M18.04,56.98v-1.15l3.89-4.6l0.33,0.64h-4.13V50.4h5.67v1.15l-3.89,4.6l-0.34-0.64h4.34v1.47H18.04z"/>
			<path d="M33.55,50.3c0.52,0,0.98,0.1,1.39,0.31c0.4,0.21,0.72,0.53,0.95,0.95c0.23,0.43,0.35,0.98,0.35,1.64v3.77h-1.91v-3.47
				c0-0.53-0.11-0.92-0.33-1.17c-0.22-0.25-0.53-0.38-0.93-0.38c-0.28,0-0.53,0.06-0.75,0.19c-0.22,0.13-0.39,0.32-0.51,0.57
				c-0.12,0.25-0.18,0.57-0.18,0.97v3.3h-1.91v-3.47c0-0.53-0.11-0.92-0.32-1.17c-0.22-0.25-0.52-0.38-0.92-0.38
				c-0.28,0-0.53,0.06-0.75,0.19c-0.22,0.13-0.39,0.32-0.51,0.57c-0.12,0.25-0.18,0.57-0.18,0.97v3.3h-1.91V50.4h1.82v1.8
				l-0.34-0.53c0.23-0.45,0.55-0.79,0.97-1.02c0.42-0.23,0.9-0.35,1.44-0.35c0.6,0,1.13,0.15,1.58,0.46c0.45,0.31,0.75,0.77,0.9,1.4
				l-0.67-0.18c0.22-0.51,0.57-0.92,1.06-1.22C32.37,50.45,32.92,50.3,33.55,50.3z"/>
			<path d="M39.98,57.08c-0.51,0-0.95-0.09-1.32-0.26c-0.37-0.18-0.65-0.41-0.84-0.72c-0.2-0.3-0.29-0.64-0.29-1.01
				c0-0.39,0.1-0.73,0.29-1.03c0.19-0.29,0.5-0.52,0.91-0.69c0.42-0.17,0.96-0.25,1.63-0.25h1.75v1.11h-1.54
				c-0.45,0-0.76,0.07-0.92,0.22c-0.17,0.15-0.25,0.33-0.25,0.55c0,0.24,0.1,0.44,0.29,0.58c0.19,0.14,0.45,0.21,0.79,0.21
				c0.32,0,0.6-0.08,0.86-0.23c0.25-0.15,0.44-0.37,0.55-0.67l0.29,0.88c-0.14,0.42-0.39,0.75-0.76,0.97
				C41.03,56.97,40.56,57.08,39.98,57.08z M41.99,56.98v-1.28l-0.12-0.28v-2.3c0-0.41-0.12-0.73-0.37-0.95
				c-0.25-0.23-0.63-0.34-1.14-0.34c-0.35,0-0.69,0.06-1.03,0.17c-0.34,0.11-0.63,0.26-0.86,0.45l-0.68-1.33
				c0.36-0.25,0.79-0.45,1.3-0.59c0.51-0.14,1.02-0.21,1.54-0.21c1,0,1.78,0.24,2.33,0.71c0.55,0.47,0.83,1.21,0.83,2.21v3.75H41.99
				z"/>
			<path d="M45.5,56.98v-9.07h1.91v9.07H45.5z"/>
			<path d="M51.64,56.98l3.81-8.56h1.96l3.83,8.56h-2.08l-3.13-7.55h0.78l-3.14,7.55H51.64z M53.55,55.14l0.53-1.5h4.4l0.54,1.5
				H53.55z"/>
			<path d="M66,50.3c0.52,0,0.99,0.1,1.4,0.31c0.41,0.21,0.74,0.53,0.97,0.95c0.24,0.43,0.35,0.98,0.35,1.64v3.77h-1.91v-3.47
				c0-0.53-0.12-0.92-0.35-1.17c-0.23-0.25-0.56-0.38-0.98-0.38c-0.3,0-0.57,0.06-0.81,0.19c-0.24,0.13-0.43,0.32-0.56,0.58
				c-0.13,0.26-0.2,0.59-0.2,1v3.25H62V50.4h1.82v1.82l-0.34-0.55c0.24-0.44,0.57-0.78,1.01-1.01C64.93,50.42,65.43,50.3,66,50.3z"
				/>
			<path d="M72.66,57.08c-0.56,0-1.1-0.07-1.62-0.2c-0.52-0.13-0.93-0.3-1.23-0.51L70.45,55c0.3,0.19,0.66,0.34,1.07,0.46
				c0.41,0.12,0.82,0.18,1.22,0.18c0.44,0,0.75-0.05,0.94-0.16c0.18-0.11,0.28-0.25,0.28-0.44c0-0.15-0.07-0.27-0.21-0.35
				c-0.14-0.08-0.33-0.14-0.57-0.18c-0.24-0.04-0.5-0.08-0.78-0.12c-0.28-0.04-0.56-0.1-0.85-0.17c-0.29-0.07-0.55-0.17-0.78-0.31
				c-0.24-0.14-0.43-0.33-0.57-0.56c-0.14-0.24-0.21-0.54-0.21-0.92c0-0.42,0.12-0.78,0.36-1.1c0.24-0.32,0.59-0.57,1.05-0.75
				c0.46-0.18,1-0.28,1.64-0.28c0.45,0,0.9,0.05,1.37,0.15c0.46,0.1,0.85,0.24,1.16,0.43l-0.64,1.36c-0.32-0.19-0.64-0.32-0.96-0.39
				c-0.32-0.07-0.63-0.1-0.94-0.1c-0.42,0-0.73,0.06-0.93,0.17c-0.2,0.11-0.29,0.26-0.29,0.44c0,0.16,0.07,0.29,0.21,0.37
				c0.14,0.08,0.33,0.15,0.57,0.2c0.24,0.05,0.5,0.09,0.78,0.13c0.28,0.04,0.56,0.09,0.85,0.17c0.29,0.07,0.54,0.18,0.78,0.31
				c0.23,0.13,0.42,0.32,0.57,0.55c0.15,0.23,0.22,0.54,0.22,0.91c0,0.41-0.12,0.77-0.37,1.08c-0.24,0.31-0.6,0.56-1.06,0.74
				C73.88,56.99,73.32,57.08,72.66,57.08z"/>
			<path d="M78.97,57.08c-0.51,0-0.95-0.09-1.32-0.26C77.28,56.64,77,56.4,76.8,56.1c-0.2-0.3-0.29-0.64-0.29-1.01
				c0-0.39,0.1-0.73,0.29-1.03c0.19-0.29,0.5-0.52,0.91-0.69c0.42-0.17,0.96-0.25,1.63-0.25h1.75v1.11h-1.54
				c-0.45,0-0.76,0.07-0.92,0.22c-0.17,0.15-0.25,0.33-0.25,0.55c0,0.24,0.1,0.44,0.29,0.58c0.19,0.14,0.45,0.21,0.79,0.21
				c0.32,0,0.6-0.08,0.86-0.23c0.25-0.15,0.44-0.37,0.55-0.67l0.29,0.88c-0.14,0.42-0.39,0.75-0.76,0.97
				C80.02,56.97,79.54,57.08,78.97,57.08z M80.97,56.98v-1.28l-0.12-0.28v-2.3c0-0.41-0.12-0.73-0.37-0.95
				c-0.25-0.23-0.63-0.34-1.14-0.34c-0.35,0-0.69,0.06-1.03,0.17c-0.34,0.11-0.63,0.26-0.86,0.45l-0.68-1.33
				c0.36-0.25,0.79-0.45,1.3-0.59c0.51-0.14,1.02-0.21,1.54-0.21c1,0,1.78,0.24,2.33,0.71c0.55,0.47,0.83,1.21,0.83,2.21v3.75H80.97
				z"/>
			<path d="M84.48,56.98V50.4h1.82v1.86l-0.26-0.54c0.2-0.46,0.51-0.82,0.94-1.06c0.43-0.24,0.96-0.36,1.58-0.36v1.76
				c-0.08-0.01-0.15-0.01-0.22-0.02c-0.07,0-0.13-0.01-0.21-0.01c-0.52,0-0.94,0.15-1.27,0.45c-0.32,0.3-0.48,0.76-0.48,1.39v3.1
				H84.48z"/>
			<path d="M90.65,49.48c-0.35,0-0.64-0.1-0.86-0.31c-0.22-0.2-0.33-0.46-0.33-0.76c0-0.3,0.11-0.55,0.33-0.76
				c0.22-0.2,0.51-0.31,0.86-0.31c0.35,0,0.64,0.1,0.86,0.29c0.22,0.19,0.33,0.44,0.33,0.74c0,0.32-0.11,0.58-0.32,0.79
				C91.3,49.38,91.01,49.48,90.65,49.48z M89.7,56.98V50.4h1.91v6.58H89.7z"/>
		</g>
	</g>
</g>
</svg>
