<?xml version="1.0" encoding="utf-8"?>
<!-- Generator: Adobe Illustrator 27.3.1, SVG Export Plug-In . SVG Version: 6.00 Build 0)  -->
<svg version="1.1" id="Layer_1" xmlns="http://www.w3.org/2000/svg" xmlns:xlink="http://www.w3.org/1999/xlink" x="0px" y="0px"
	 viewBox="0 0 299 226" style="enable-background:new 0 0 299 226;" xml:space="preserve">
<style type="text/css">
	.st0{fill:url(#SVGID_1_);}
</style>
<linearGradient id="SVGID_1_" gradientUnits="userSpaceOnUse" x1="68.2494" y1="64.4971" x2="309.7666" y2="233.6569">
	<stop  offset="0" style="stop-color:#F5C230"/>
	<stop  offset="0" style="stop-color:#ECC440"/>
	<stop  offset="0.3198" style="stop-color:#FFFA8A"/>
	<stop  offset="0.6802" style="stop-color:#DDAC17"/>
	<stop  offset="1" style="stop-color:#FFFF95"/>
</linearGradient>
<path class="st0" d="M20.36,110.49v7.32l5-7.32h6.18l-6,8.33l6.39,9.1h-6.5l-5.07-7.57v7.57h-5.48v-17.43H20.36z M44.93,110.49
	l6.34,17.43h-5.75l-0.87-2.65h-5.82L38,127.92h-5.75l6.39-17.43H44.93z M43.33,121.17l-1.57-4.86l-1.57,4.86H43.33z M63.05,120.94
	l-3.83-10.45h-6.71v17.43h5.48v-8.69l2.69,8.69h4.68l2.67-8.69v8.69h5.45v-17.43h-6.68L63.05,120.94z M89.72,117.59
	c-0.52,0.71-1.23,1.16-2.12,1.39c1.05,0.25,1.87,0.75,2.44,1.51c0.59,0.78,0.89,1.64,0.89,2.65c0,1.53-0.5,2.72-1.53,3.54
	c-1,0.84-2.44,1.25-4.33,1.25h-9.13v-17.43h8.88c1.78,0,3.17,0.39,4.2,1.14c1,0.78,1.53,1.89,1.53,3.38
	C90.54,116.03,90.27,116.88,89.72,117.59z M81.39,117.29h2.12c0.5,0,0.87-0.11,1.1-0.3c0.23-0.21,0.36-0.5,0.36-0.91
	c0-0.43-0.14-0.75-0.36-0.96c-0.23-0.21-0.59-0.3-1.1-0.3h-2.12V117.29z M85.34,122.33c0-0.84-0.48-1.25-1.46-1.25h-2.49v2.46h2.49
	c0.5,0,0.87-0.09,1.1-0.3C85.22,123.06,85.34,122.74,85.34,122.33z M98.23,110.49h-5.45v17.43h5.45V110.49z M107.29,123.84
	c-0.8,0-1.23-0.5-1.32-1.51h-5.82c0.14,1.89,0.87,3.31,2.21,4.29c1.35,0.98,3.08,1.46,5.16,1.46c1.39,0,2.58-0.23,3.58-0.71
	c1-0.48,1.76-1.14,2.28-1.98c0.52-0.84,0.8-1.8,0.8-2.87c0-1-0.27-1.85-0.8-2.53c-0.52-0.66-1.14-1.19-1.85-1.57
	c-0.73-0.36-1.64-0.78-2.74-1.19c-0.94-0.34-1.64-0.66-2.08-0.91c-0.43-0.25-0.64-0.59-0.64-0.98c0-0.27,0.07-0.48,0.21-0.64
	c0.16-0.16,0.34-0.25,0.57-0.25c0.32,0,0.62,0.11,0.84,0.32c0.23,0.23,0.34,0.57,0.36,1.07h5.89c-0.07-1.8-0.73-3.17-1.98-4.18
	c-1.25-0.98-2.94-1.46-5.09-1.46c-1.25,0-2.4,0.21-3.4,0.62c-1.03,0.41-1.83,1-2.4,1.8c-0.59,0.8-0.87,1.76-0.87,2.9
	c-0.02,1.12,0.23,2.05,0.75,2.78c0.52,0.71,1.16,1.28,1.89,1.64c0.73,0.39,1.64,0.78,2.76,1.16c0.94,0.32,1.62,0.62,2.08,0.87
	c0.43,0.25,0.66,0.59,0.66,1c0,0.3-0.11,0.5-0.32,0.64C107.83,123.77,107.58,123.84,107.29,123.84z M116.09,110.49v17.43h5.45v-6.8
	h5.2v6.8h5.48v-17.43h-5.48v6.27h-5.2v-6.27H116.09z M144.34,110.49h-5.48v17.43h5.48V110.49z M158.05,119.39l-5.8-8.9h-5.48v17.43
	h5.48v-8.76l5.8,8.76h5.45v-17.43h-5.45V119.39z M181.19,114.67c0.73,1.32,1.12,2.81,1.12,4.49c0,1.64-0.39,3.15-1.12,4.47
	c-0.73,1.32-1.8,2.37-3.17,3.15c-1.37,0.75-2.97,1.14-4.77,1.14h-7.28v-17.43h7.28c1.8,0,3.4,0.36,4.77,1.1
	C179.38,112.34,180.46,113.37,181.19,114.67z M176.76,119.16c0-1.25-0.36-2.21-1.1-2.9c-0.71-0.66-1.69-1-2.92-1h-1.3v7.78h1.3
	c1.23,0,2.21-0.34,2.92-1C176.39,121.35,176.76,120.39,176.76,119.16z M184.17,110.49v9.81c0,1.69,0.32,3.1,0.96,4.27
	c0.64,1.16,1.53,2.05,2.67,2.62c1.14,0.59,2.44,0.89,3.92,0.89c1.48,0,2.81-0.3,4.02-0.89c1.19-0.57,2.14-1.46,2.83-2.65
	c0.68-1.16,1.03-2.58,1.03-4.24v-9.81h-5.43v9.81c0,0.82-0.18,1.44-0.57,1.92c-0.36,0.46-0.96,0.71-1.76,0.71
	c-0.78,0-1.35-0.25-1.71-0.71c-0.34-0.48-0.52-1.1-0.52-1.92v-9.81H184.17z M208.56,123.84c-0.8,0-1.25-0.5-1.32-1.51h-5.82
	c0.11,1.89,0.84,3.31,2.21,4.29c1.35,0.98,3.06,1.46,5.16,1.46c1.37,0,2.56-0.23,3.56-0.71c1-0.48,1.78-1.14,2.3-1.98
	c0.52-0.84,0.78-1.8,0.78-2.87c0-1-0.25-1.85-0.78-2.53c-0.52-0.66-1.14-1.19-1.87-1.57c-0.71-0.36-1.62-0.78-2.72-1.19
	c-0.96-0.34-1.64-0.66-2.08-0.91c-0.43-0.25-0.66-0.59-0.66-0.98c0-0.27,0.07-0.48,0.23-0.64c0.14-0.16,0.34-0.25,0.57-0.25
	c0.32,0,0.59,0.11,0.82,0.32c0.23,0.23,0.36,0.57,0.39,1.07h5.89c-0.07-1.8-0.73-3.17-1.98-4.18c-1.25-0.98-2.97-1.46-5.09-1.46
	c-1.28,0-2.4,0.21-3.42,0.62c-1,0.41-1.8,1-2.37,1.8c-0.59,0.8-0.89,1.76-0.89,2.9c0,1.12,0.25,2.05,0.78,2.78
	c0.52,0.71,1.14,1.28,1.87,1.64c0.73,0.39,1.67,0.78,2.78,1.16c0.94,0.32,1.62,0.62,2.05,0.87c0.46,0.25,0.68,0.59,0.68,1
	c0,0.3-0.11,0.5-0.32,0.64C209.11,123.77,208.86,123.84,208.56,123.84z M216.37,114.83h4.59v13.1h5.48v-13.1h4.63v-4.33h-14.69
	V114.83z M246.3,119.3c-0.64,0.91-1.57,1.55-2.78,1.94l3.79,6.69h-6.02l-3.26-6.25H238v6.25h-5.48v-17.43h8.12
	c1.41,0,2.62,0.25,3.63,0.75c1,0.48,1.76,1.16,2.26,2.03c0.5,0.87,0.75,1.83,0.75,2.92C247.28,117.36,246.94,118.38,246.3,119.3z
	 M241.74,116.54c0-0.46-0.14-0.82-0.41-1.07c-0.27-0.27-0.66-0.41-1.16-0.41H238v2.97h2.17c0.52,0,0.91-0.11,1.19-0.36
	C241.6,117.43,241.74,117.04,241.74,116.54z M254.49,110.49h-5.48v17.43h5.48V110.49z M268.57,114.85v-4.36h-11.61v17.43h11.61
	v-4.36h-6.16v-2.46h5.43v-4.11h-5.43v-2.14H268.57z M277.24,123.84c-0.8,0-1.25-0.5-1.32-1.51h-5.82c0.11,1.89,0.84,3.31,2.21,4.29
	c1.35,0.98,3.06,1.46,5.16,1.46c1.37,0,2.56-0.23,3.56-0.71c1-0.48,1.78-1.14,2.3-1.98c0.52-0.84,0.78-1.8,0.78-2.87
	c0-1-0.25-1.85-0.78-2.53c-0.52-0.66-1.16-1.19-1.87-1.57c-0.71-0.36-1.62-0.78-2.72-1.19c-0.96-0.34-1.64-0.66-2.08-0.91
	s-0.66-0.59-0.66-0.98c0-0.27,0.07-0.48,0.23-0.64c0.14-0.16,0.34-0.25,0.57-0.25c0.32,0,0.59,0.11,0.82,0.32
	c0.23,0.23,0.36,0.57,0.39,1.07h5.86c-0.05-1.8-0.71-3.17-1.96-4.18c-1.25-0.98-2.97-1.46-5.09-1.46c-1.28,0-2.42,0.21-3.42,0.62
	c-1,0.41-1.8,1-2.37,1.8c-0.59,0.8-0.89,1.76-0.89,2.9c0,1.12,0.25,2.05,0.78,2.78c0.52,0.71,1.14,1.28,1.87,1.64
	c0.73,0.39,1.67,0.78,2.78,1.16c0.94,0.32,1.62,0.62,2.05,0.87c0.46,0.25,0.66,0.59,0.66,1c0,0.3-0.09,0.5-0.3,0.64
	C277.79,123.77,277.53,123.84,277.24,123.84z M44.43,146.45c-0.23,0.09-0.43,0.16-0.68,0.21c0.14,0.14,0.25,0.25,0.37,0.34
	c0.23,0.21,0.48,0.34,0.71,0.43c0.23,0.09,0.46,0.14,0.68,0.14c0.64,0,1.21-0.25,1.67-0.78l0.59,0.73
	c-0.57,0.71-1.35,1.07-2.28,1.07c-0.3,0-0.59-0.05-0.87-0.11c-0.27-0.07-0.55-0.18-0.82-0.34c-0.27-0.16-0.57-0.37-0.87-0.62
	c-0.23-0.23-0.48-0.46-0.73-0.73c-0.57-0.02-1.1-0.16-1.6-0.34c-0.59-0.23-1.12-0.55-1.55-0.98c-0.43-0.41-0.75-0.91-1-1.46
	c-0.25-0.57-0.36-1.19-0.36-1.85c0-0.66,0.11-1.28,0.36-1.85c0.25-0.55,0.57-1.05,1-1.46c0.43-0.43,0.96-0.75,1.53-0.98
	c0.59-0.23,1.23-0.34,1.94-0.34c0.68,0,1.32,0.11,1.92,0.34c0.59,0.23,1.1,0.55,1.53,0.96c0.43,0.43,0.78,0.91,1,1.48
	c0.25,0.55,0.36,1.16,0.36,1.85c0,0.68-0.11,1.3-0.36,1.85c-0.23,0.57-0.57,1.05-1,1.48C45.53,145.9,45.02,146.22,44.43,146.45z
	 M43.91,145.4c0.43-0.18,0.8-0.43,1.12-0.75c0.32-0.32,0.57-0.68,0.75-1.12c0.16-0.41,0.25-0.87,0.25-1.37
	c0-0.5-0.09-0.96-0.25-1.39c-0.18-0.41-0.43-0.8-0.75-1.1c-0.32-0.32-0.68-0.57-1.12-0.75c-0.43-0.16-0.89-0.25-1.39-0.25
	c-0.5,0-0.98,0.09-1.41,0.25c-0.41,0.18-0.8,0.43-1.12,0.75c-0.32,0.3-0.57,0.68-0.73,1.1c-0.18,0.43-0.27,0.89-0.27,1.39
	c0,0.5,0.09,0.96,0.27,1.37c0.16,0.43,0.41,0.8,0.73,1.12c0.32,0.32,0.71,0.57,1.12,0.75c0.43,0.16,0.91,0.25,1.41,0.25
	C43.02,145.65,43.47,145.56,43.91,145.4z M50.52,142.73v-5.11h-1.28v5.16c0,1.32,0.34,2.33,1.03,3.01c0.66,0.68,1.62,1.03,2.81,1.03
	c1.21,0,2.14-0.34,2.83-1.03c0.66-0.68,1-1.69,1-3.01v-5.16h-1.25v5.11c0,1-0.23,1.76-0.66,2.21c-0.46,0.48-1.1,0.71-1.92,0.71
	c-0.8,0-1.44-0.23-1.87-0.71C50.75,144.49,50.52,143.73,50.52,142.73z M63.39,137.62l4.13,9.08h-1.37l-0.98-2.26h-4.84l-1,2.26
	h-1.32l4.11-9.08H63.39z M64.71,143.39l-1.96-4.47l-1.96,4.47H64.71z M68.87,137.62v9.08h6.21v-1.12h-4.91v-7.96H68.87z
	 M77.88,146.7v-9.08h-1.3v9.08H77.88z M88.08,137.62H86.8h-0.11h-7.39v1.12h3.1v7.96h1.28v-7.96h3.13v-0.94l3.49,5.75v3.15h1.3
	v-3.15l3.6-5.93h-1.3l-2.9,4.79L88.08,137.62z M102.06,146.7h1.39l2.49-7.26l2.46,7.26h1.37l3.03-9.08h-1.23l-2.49,7.39l-2.51-7.39
	h-1.21l-2.53,7.39l-2.46-7.39h-1.35L102.06,146.7z M114.38,137.62v9.08h1.3v-9.08H114.38z M121.5,146.7v-7.96h3.1v-1.12h-7.51v1.12
	h3.13v7.96H121.5z M133.84,146.7v-9.08h-1.3v3.9h-5.22v-3.9h-1.3v9.08h1.3v-4.04h5.22v4.04H133.84z M138.73,137.87
	c0.59-0.23,1.23-0.34,1.94-0.34c0.68,0,1.32,0.11,1.89,0.34c0.59,0.23,1.1,0.55,1.53,0.96c0.46,0.43,0.78,0.91,1.03,1.48
	c0.23,0.55,0.34,1.16,0.34,1.85c0,0.68-0.11,1.3-0.34,1.85c-0.25,0.57-0.57,1.05-1.03,1.48c-0.43,0.41-0.94,0.73-1.53,0.96
	c-0.57,0.25-1.21,0.36-1.89,0.36c-0.71,0-1.35-0.14-1.94-0.36c-0.59-0.23-1.1-0.55-1.53-0.98c-0.43-0.41-0.78-0.91-1.03-1.46
	c-0.23-0.57-0.34-1.19-0.34-1.85c0-0.66,0.11-1.28,0.34-1.85c0.25-0.55,0.59-1.05,1.03-1.46
	C137.63,138.42,138.13,138.1,138.73,137.87z M139.25,138.92c-0.43,0.18-0.8,0.43-1.12,0.75c-0.32,0.3-0.57,0.68-0.75,1.1
	c-0.18,0.43-0.27,0.89-0.27,1.39c0,0.5,0.09,0.96,0.27,1.39c0.18,0.41,0.43,0.8,0.75,1.1c0.32,0.32,0.68,0.57,1.12,0.75
	c0.43,0.16,0.89,0.25,1.41,0.25c0.5,0,0.96-0.09,1.39-0.25c0.41-0.18,0.8-0.43,1.12-0.75c0.3-0.3,0.55-0.68,0.73-1.1
	c0.18-0.43,0.27-0.89,0.27-1.39c0-0.5-0.09-0.96-0.27-1.39c-0.18-0.41-0.43-0.8-0.73-1.1c-0.32-0.32-0.71-0.57-1.12-0.75
	c-0.43-0.16-0.89-0.25-1.39-0.25C140.14,138.67,139.68,138.76,139.25,138.92z M147.37,137.62v5.16c0,1.32,0.34,2.33,1.03,3.01
	c0.68,0.68,1.62,1.03,2.81,1.03c1.21,0,2.14-0.34,2.83-1.03c0.68-0.68,1.03-1.69,1.03-3.01v-5.16h-1.28v5.11
	c0,1-0.21,1.76-0.66,2.21c-0.43,0.48-1.07,0.71-1.89,0.71c-0.82,0-1.44-0.23-1.89-0.71c-0.43-0.46-0.66-1.21-0.66-2.21v-5.11H147.37
	z M160.63,146.7v-7.96h3.1v-1.12h-7.51v1.12h3.13v7.96H160.63z M170.21,139.65c0.32-0.3,0.71-0.55,1.14-0.73
	c0.43-0.16,0.91-0.25,1.41-0.25c0.5,0,0.96,0.09,1.39,0.27c0.43,0.18,0.82,0.43,1.16,0.8l0.84-0.82c-0.41-0.46-0.91-0.8-1.51-1.05
	c-0.59-0.23-1.25-0.34-1.94-0.34c-0.71,0-1.35,0.11-1.92,0.34c-0.59,0.23-1.1,0.55-1.53,0.96c-0.43,0.43-0.78,0.91-1,1.48
	c-0.25,0.55-0.37,1.16-0.37,1.85c0,0.68,0.11,1.3,0.37,1.85c0.23,0.57,0.57,1.05,1,1.48c0.43,0.41,0.94,0.73,1.51,0.96
	c0.59,0.25,1.23,0.36,1.92,0.36c0.71,0,1.37-0.14,1.96-0.36c0.59-0.25,1.1-0.62,1.51-1.07l-0.84-0.82
	c-0.34,0.36-0.73,0.64-1.16,0.82c-0.43,0.18-0.89,0.27-1.39,0.27c-0.5,0-0.98-0.09-1.41-0.25c-0.43-0.18-0.82-0.43-1.14-0.73
	c-0.32-0.32-0.57-0.68-0.75-1.12c-0.16-0.43-0.25-0.89-0.25-1.39c0-0.5,0.09-0.96,0.25-1.39
	C169.64,140.33,169.89,139.97,170.21,139.65z M183.44,137.87c0.59,0.23,1.1,0.55,1.53,0.96c0.43,0.43,0.78,0.91,1.03,1.48
	c0.23,0.55,0.34,1.16,0.34,1.85c0,0.68-0.11,1.3-0.34,1.85c-0.25,0.57-0.59,1.05-1.03,1.48c-0.43,0.41-0.94,0.73-1.53,0.96
	c-0.57,0.25-1.21,0.36-1.92,0.36c-0.68,0-1.32-0.14-1.92-0.36c-0.59-0.23-1.12-0.55-1.53-0.98c-0.43-0.41-0.78-0.91-1.03-1.46
	c-0.23-0.57-0.36-1.19-0.36-1.85c0-0.66,0.14-1.28,0.36-1.85c0.25-0.55,0.59-1.05,1.03-1.46c0.41-0.43,0.94-0.75,1.53-0.98
	c0.57-0.23,1.23-0.34,1.92-0.34C182.23,137.53,182.87,137.64,183.44,137.87z M184.04,139.67c-0.32-0.32-0.68-0.57-1.12-0.75
	c-0.41-0.16-0.89-0.25-1.39-0.25c-0.5,0-0.98,0.09-1.39,0.25c-0.43,0.18-0.8,0.43-1.14,0.75c-0.32,0.3-0.55,0.68-0.73,1.1
	c-0.18,0.43-0.27,0.89-0.27,1.39c0,0.5,0.09,0.96,0.27,1.39c0.18,0.41,0.41,0.8,0.73,1.1c0.34,0.32,0.71,0.57,1.14,0.75
	c0.41,0.16,0.89,0.25,1.39,0.25c0.5,0,0.98-0.09,1.39-0.25c0.43-0.18,0.8-0.43,1.12-0.75c0.32-0.3,0.57-0.68,0.75-1.1
	c0.16-0.43,0.25-0.89,0.25-1.39c0-0.5-0.09-0.96-0.25-1.39C184.61,140.36,184.36,139.97,184.04,139.67z M198,146.7l-0.02-9.08h-1.07
	l-3.74,6.39l-3.76-6.39h-1.07v9.08h1.25v-6.55l3.29,5.45h0.59l3.29-5.52v6.62H198z M200.72,137.62h3.54c0.8,0,1.48,0.14,2.03,0.36
	c0.57,0.27,1,0.62,1.3,1.1c0.32,0.48,0.46,1.05,0.46,1.71c0,0.66-0.14,1.21-0.46,1.69c-0.3,0.48-0.73,0.84-1.3,1.1
	c-0.55,0.25-1.23,0.39-2.03,0.39h-2.24v2.74h-1.3V137.62z M202.02,138.74v4.08h-0.59l0.55,0.57l0.05,0.07v-0.64h2.19
	c0.84,0,1.46-0.18,1.89-0.52c0.43-0.37,0.64-0.87,0.64-1.51c0-0.66-0.21-1.16-0.64-1.51c-0.43-0.37-1.05-0.55-1.89-0.55H202.02
	v-0.64l-0.59,0.64H202.02z M216.28,138.46c0.66,0.55,1,1.32,1,2.33c0,0.66-0.16,1.21-0.46,1.69c-0.3,0.48-0.73,0.82-1.3,1.07
	c-0.09,0.05-0.18,0.07-0.27,0.09l2.19,3.06h-1.41l-1.96-2.78c-0.18,0.02-0.37,0.02-0.57,0.02h-2.24v2.76h-1.3v-9.08h3.54
	C214.66,137.62,215.59,137.89,216.28,138.46z M215.98,140.79c0-0.66-0.21-1.16-0.64-1.51c-0.43-0.37-1.05-0.55-1.89-0.55h-2.19
	v-0.64l-0.59,0.64h0.59v4.11h-0.59l0.55,0.55l0.05,0.07v-0.62h2.19c0.84,0,1.46-0.18,1.89-0.55
	C215.77,141.93,215.98,141.43,215.98,140.79z M226.93,138.83c0.43,0.43,0.78,0.91,1,1.48c0.23,0.55,0.37,1.16,0.37,1.85
	c0,0.68-0.14,1.3-0.37,1.85c-0.23,0.57-0.57,1.05-1,1.48c-0.46,0.41-0.96,0.73-1.55,0.96c-0.57,0.25-1.21,0.36-1.89,0.36
	c-0.71,0-1.35-0.14-1.94-0.36c-0.59-0.23-1.1-0.55-1.53-0.98c-0.43-0.41-0.78-0.91-1-1.46c-0.25-0.57-0.36-1.19-0.36-1.85
	c0-0.66,0.11-1.28,0.36-1.85c0.23-0.55,0.57-1.05,1-1.46c0.43-0.43,0.94-0.75,1.53-0.98c0.59-0.23,1.23-0.34,1.94-0.34
	c0.68,0,1.32,0.11,1.89,0.34C225.97,138.1,226.47,138.42,226.93,138.83z M227,142.16c0-0.5-0.09-0.96-0.27-1.39
	c-0.18-0.41-0.41-0.8-0.73-1.1c-0.32-0.32-0.68-0.57-1.12-0.75c-0.43-0.16-0.89-0.25-1.39-0.25c-0.52,0-0.98,0.09-1.41,0.25
	c-0.43,0.18-0.8,0.43-1.12,0.75c-0.32,0.3-0.57,0.68-0.75,1.1c-0.18,0.43-0.25,0.89-0.25,1.39c0,0.5,0.07,0.96,0.25,1.39
	c0.18,0.41,0.43,0.8,0.75,1.1c0.32,0.32,0.68,0.57,1.12,0.75c0.43,0.16,0.89,0.25,1.41,0.25c0.5,0,0.96-0.09,1.39-0.25
	c0.43-0.18,0.8-0.43,1.12-0.75c0.32-0.3,0.55-0.68,0.73-1.1C226.91,143.12,227,142.66,227,142.16z M230.26,137.62v9.08h1.25v-6.59
	l3.29,5.5h0.59l3.29-5.52v6.62h1.25l-0.02-9.08h-1.05l-3.74,6.39l-3.79-6.39H230.26z M243.95,146.7v-9.08h-1.3v9.08H243.95z
	 M246.44,138.83c-0.25,0.39-0.37,0.82-0.37,1.28c0,0.48,0.09,0.89,0.3,1.19c0.21,0.32,0.46,0.55,0.78,0.73
	c0.34,0.18,0.68,0.34,1.1,0.46c0.39,0.11,0.78,0.23,1.16,0.3c0.39,0.09,0.75,0.21,1.07,0.32c0.32,0.11,0.59,0.27,0.8,0.46
	c0.18,0.18,0.3,0.43,0.3,0.75c0,0.27-0.09,0.5-0.23,0.71c-0.16,0.23-0.41,0.39-0.73,0.5c-0.34,0.14-0.75,0.18-1.28,0.18
	c-0.59,0-1.14-0.09-1.69-0.3c-0.52-0.21-0.98-0.46-1.32-0.75l-0.48,1c0.36,0.34,0.87,0.62,1.51,0.84c0.62,0.21,1.28,0.32,1.98,0.32
	c0.78,0,1.44-0.14,1.96-0.36c0.52-0.25,0.91-0.55,1.16-0.96c0.25-0.39,0.39-0.82,0.39-1.28c0-0.46-0.11-0.84-0.3-1.16
	c-0.21-0.3-0.48-0.55-0.8-0.73c-0.32-0.18-0.68-0.32-1.07-0.43c-0.39-0.11-0.78-0.21-1.16-0.3c-0.41-0.09-0.75-0.21-1.07-0.32
	c-0.34-0.11-0.59-0.25-0.8-0.43c-0.21-0.21-0.3-0.46-0.3-0.78c0-0.27,0.07-0.5,0.23-0.73c0.14-0.21,0.39-0.39,0.71-0.52
	c0.32-0.11,0.75-0.18,1.25-0.18c0.41,0,0.82,0.05,1.25,0.16c0.43,0.14,0.84,0.32,1.23,0.57l0.43-1.03
	c-0.39-0.27-0.82-0.46-1.35-0.59s-1.05-0.21-1.57-0.21c-0.8,0-1.44,0.11-1.96,0.34C247.08,138.12,246.69,138.42,246.44,138.83z
	 M254.74,146.7h6.57v-1.12h-5.29v-2.94h4.56v-1.1h-4.56v-2.81h5.11v-1.12h-6.39V146.7z M276.8,157.53h-79.62
	c0,0-8.89,29.46-44.88,30.01c-35.99,0.56-51.83-29.32-51.83-29.32s-64.48,0.42-79.34,0C6.25,157.81,5,137.66,5,137.66
	s-0.64,11.35,3.75,18.06c1.29,1.98,2.68,3.69,4.09,5.16c5.33,5.56,12.77,8.59,20.48,8.59h34.07l9.03,15.15l16.67-6.53
	c1.95,3.06,10.42,10.42,10.42,10.42l-6.95,17.37l15.7,8.62l11.12-14.45c2.64,1.25,13.9,3.61,13.9,3.61l2.92,17.79l17.65,0.83
	l3.33-19.04c6.95-0.14,12.51-3.06,12.51-3.06l12.78,14.45l15.01-9.31l-7.09-16.95c2.5-0.97,10.84-10.56,10.84-10.56l16.95,7.09
	l8.48-15.01c0,0,20.43,0,40.3-0.69c19.87-0.69,23.07-28.9,23.07-28.9C289.45,158.23,276.8,157.53,276.8,157.53z M294.21,116.7
	c-2.08-17.64-18.75-18.62-18.75-18.62s-223.86-0.14-248.19,0C5.58,98.22,4.75,113.59,4.85,116.9c-0.75-12.91,5.82-20.72,12.14-25.19
	c5.06-3.54,11.16-5.32,17.32-5.32h41.62V33.17l6.25-6.94v60.57h3.47V25.69h18.07l0.55,46.95h1.25l1.67-16.81l15.86-4.59
	c0.41-7.37,2.9-34.72,2.9-34.72l3.76,0.27l1.23,32.92c2.37-1.39,10.29-3.33,10.29-3.33c0-7.92,2.92-42.66,2.92-42.66h3.63
	l2.35,40.86c1.94-0.14,22.22,6.25,22.22,6.25l0.71-1.25l-12.09-4.86l0.41-8.9l29.61-9.72h16.38v34.88h1.94V45.12l13.35,4.72v36.96
	h47.66C294.78,91.69,294.21,116.7,294.21,116.7z M121.02,86.58l-0.64-19.8l-2.51,19.8H121.02z M200.97,52.74v7.89h3.99v-7.89H200.97
	z M204.96,50.92v-7.87h-3.99v7.87H204.96z M197.06,68.62v18.05h6.68V68.62H197.06z M198.48,32.03h-5.11v7.87h5.11V32.03z
	 M193.37,43.05v7.87h5.11v-7.87H193.37z M193.37,52.74v7.89h5.11v-7.89H193.37z M204.96,32.03h-3.99v7.87h3.99V32.03z"/>
</svg>
